<?xml version="1.0" encoding="UTF-8" standalone="no"?>
<!-- Created with Digital by H.Neemann -->
<!-- created: Mon Apr 13 07:17:35 CEST 2020 -->

<svg
   xmlns:svg="http://www.w3.org/2000/svg"
   xmlns="http://www.w3.org/2000/svg"
   width="393.6mm"
   height="108.6mm"
   viewBox="58 108 2624 724">
<g stroke-linecap="square">
<path d="M 1500,640 L 1620,640 L 1620,600 L 60,600 L 60,400 L 100,400 L 114,400" stroke="#3b3b3b" stroke-width="2.8" fill="none"/>
<path d="M 1546,260 L 1560,260 L 1880,260 L 1880,400 L 1880,700 L 1860,700 L 1856,700" stroke="#3b3b3b" stroke-width="2.8" fill="none"/>
<path d="M 140,520 L 200,520 L 580,520 L 980,520 L 1380,520 L 1660,520 L 1960,520 L 2240,520 L 2480,520 L 2480,440 L 2540,440" stroke="#3b3b3b" stroke-width="2.8" fill="none"/>
<path d="M 2146,200 L 2160,200 L 2400,200 L 2400,400 L 2400,440" stroke="#3b3b3b" stroke-width="2.8" fill="none"/>
<path d="M 220,560 L 220,460 L 260,460" stroke="#3b3b3b" stroke-width="2.8" fill="none"/>
<path d="M 620,560 L 620,460 L 640,460" stroke="#3b3b3b" stroke-width="2.8" fill="none"/>
<path d="M 1020,560 L 1020,460 L 1040,460" stroke="#3b3b3b" stroke-width="2.8" fill="none"/>
<path d="M 1420,560 L 1420,460 L 1440,460" stroke="#3b3b3b" stroke-width="2.8" fill="none"/>
<path d="M 1700,560 L 1700,460 L 1720,460" stroke="#3b3b3b" stroke-width="2.8" fill="none"/>
<path d="M 2000,560 L 2000,460 L 2020,460" stroke="#3b3b3b" stroke-width="2.8" fill="none"/>
<path d="M 2280,560 L 2280,460 L 2300,460" stroke="#3b3b3b" stroke-width="2.8" fill="none"/>
<path d="M 2416,780 L 2420,780 L 2460,780 L 2460,400 L 2460,160 L 2400,160 L 2386,160" stroke="#3b3b3b" stroke-width="2.8" fill="none"/>
<path d="M 1100,400 L 1140,400 L 1180,400 L 1194,400" stroke="#3b3b3b" stroke-width="2.8" fill="none"/>
<path d="M 240,340 L 240,400 L 260,400" stroke="#3b3b3b" stroke-width="2.8" fill="none"/>
<path d="M 620,340 L 620,400 L 640,400" stroke="#3b3b3b" stroke-width="2.8" fill="none"/>
<path d="M 1020,340 L 1020,400 L 1040,400" stroke="#3b3b3b" stroke-width="2.8" fill="none"/>
<path d="M 1420,340 L 1420,400 L 1440,400" stroke="#3b3b3b" stroke-width="2.8" fill="none"/>
<path d="M 2080,400 L 2120,400 L 2140,400 L 2140,420 L 2220,420 L 2300,420" stroke="#3b3b3b" stroke-width="2.8" fill="none"/>
<path d="M 2360,400 L 2400,400 L 2460,400 L 2480,400 L 2480,420 L 2540,420" stroke="#3b3b3b" stroke-width="2.8" fill="none"/>
<path d="M 1700,340 L 1700,400 L 1720,400" stroke="#3b3b3b" stroke-width="2.8" fill="none"/>
<path d="M 2000,340 L 2000,400 L 2020,400" stroke="#3b3b3b" stroke-width="2.8" fill="none"/>
<path d="M 2280,340 L 2280,400 L 2300,400" stroke="#3b3b3b" stroke-width="2.8" fill="none"/>
<path d="M 2600,400 L 2640,400 L 2680,400 L 2680,820 L 2420,820 L 2416,820" stroke="#3b3b3b" stroke-width="2.8" fill="none"/>
<path d="M 2520,340 L 2520,400 L 2540,400" stroke="#3b3b3b" stroke-width="2.8" fill="none"/>
<path d="M 1500,400 L 1540,400 L 1620,400 L 1620,300 L 1560,300 L 1546,300" stroke="#3b3b3b" stroke-width="2.8" fill="none"/>
<path d="M 1380,400 L 1400,400 L 1400,420 L 1440,420" stroke="#3b3b3b" stroke-width="2.8" fill="none"/>
<path d="M 320,400 L 360,400 L 400,400 L 440,400 L 454,400" stroke="#3b3b3b" stroke-width="2.8" fill="none"/>
<path d="M 700,400 L 740,400 L 780,400 L 820,400 L 834,400" stroke="#3b3b3b" stroke-width="2.8" fill="none"/>
<path d="M 1780,400 L 1820,400 L 1880,400 L 1900,400 L 1900,420 L 2020,420" stroke="#3b3b3b" stroke-width="2.8" fill="none"/>
<path d="M 1360,720 L 1400,720 L 1400,780 L 1420,780" stroke="#3b3b3b" stroke-width="2.8" fill="none"/>
<path d="M 740,400 L 740,720 L 880,720" stroke="#3b3b3b" stroke-width="2.8" fill="none"/>
<path d="M 1500,800 L 2320,800" stroke="#3b3b3b" stroke-width="2.8" fill="none"/>
<path d="M 1620,400 L 1620,420 L 1720,420" stroke="#3b3b3b" stroke-width="2.8" fill="none"/>
<path d="M 1856,740 L 1860,740 L 2220,740 L 2220,420 L 2220,320" stroke="#3b3b3b" stroke-width="2.8" fill="none"/>
<path d="M 960,740 L 980,740 L 980,680 L 1080,680" stroke="#3b3b3b" stroke-width="2.8" fill="none"/>
<path d="M 1360,680 L 1400,680 L 1400,640 L 1440,640" stroke="#3b3b3b" stroke-width="2.8" fill="none"/>
<path d="M 140,560 L 220,560 L 620,560 L 1020,560 L 1420,560 L 1700,560 L 2000,560 L 2280,560 L 2520,560 L 2520,460 L 2540,460" stroke="#3b3b3b" stroke-width="2.8" fill="none"/>
<path d="M 1660,520 L 1660,440 L 1720,440" stroke="#3b3b3b" stroke-width="2.8" fill="none"/>
<path d="M 1960,520 L 1960,440 L 2020,440" stroke="#3b3b3b" stroke-width="2.8" fill="none"/>
<path d="M 2240,520 L 2240,440 L 2300,440" stroke="#3b3b3b" stroke-width="2.8" fill="none"/>
<path d="M 200,520 L 200,440 L 260,440" stroke="#3b3b3b" stroke-width="2.8" fill="none"/>
<path d="M 580,520 L 580,440 L 640,440" stroke="#3b3b3b" stroke-width="2.8" fill="none"/>
<path d="M 980,520 L 980,440 L 1040,440" stroke="#3b3b3b" stroke-width="2.8" fill="none"/>
<path d="M 1380,520 L 1380,440 L 1440,440" stroke="#3b3b3b" stroke-width="2.8" fill="none"/>
<path d="M 2386,120 L 2400,120 L 2640,120 L 2640,400 L 2640,440" stroke="#3b3b3b" stroke-width="2.8" fill="none"/>
<path d="M 1500,760 L 1680,760 L 1680,720 L 1760,720" stroke="#3b3b3b" stroke-width="2.8" fill="none"/>
<path d="M 400,400 L 400,760 L 880,760" stroke="#3b3b3b" stroke-width="2.8" fill="none"/>
<path d="M 1160,700 L 1200,700 L 1200,460 L 1260,460 L 1260,420 L 1300,420 L 1314,420" stroke="#3b3b3b" stroke-width="2.8" fill="none"/>
<path d="M 200,380 L 220,380 L 220,420 L 260,420" stroke="#3b3b3b" stroke-width="2.8" fill="none"/>
<path d="M 520,380 L 540,380 L 540,420 L 640,420" stroke="#3b3b3b" stroke-width="2.8" fill="none"/>
<path d="M 900,380 L 960,380 L 960,420 L 1040,420" stroke="#3b3b3b" stroke-width="2.8" fill="none"/>
<path d="M 1280,380 L 1300,380 L 1314,380" stroke="#3b3b3b" stroke-width="2.8" fill="none"/>
<path d="M 1540,400 L 1540,440" stroke="#3b3b3b" stroke-width="2.8" fill="none"/>
<path d="M 2120,400 L 2120,440" stroke="#3b3b3b" stroke-width="2.8" fill="none"/>
<path d="M 780,400 L 780,440" stroke="#3b3b3b" stroke-width="2.8" fill="none"/>
<path d="M 1620,420 L 1620,600" stroke="#3b3b3b" stroke-width="2.8" fill="none"/>
<path d="M 1820,400 L 1820,440" stroke="#3b3b3b" stroke-width="2.8" fill="none"/>
<path d="M 1480,280 L 800,280 L 800,360 L 820,360 L 834,360" stroke="#3b3b3b" stroke-width="2.8" fill="none"/>
<path d="M 1080,720 L 1060,720 L 1060,760 L 1240,760 L 1240,700 L 1280,700" stroke="#3b3b3b" stroke-width="2.8" fill="none"/>
<path d="M 360,400 L 360,440" stroke="#3b3b3b" stroke-width="2.8" fill="none"/>
<path d="M 1140,400 L 1140,440" stroke="#3b3b3b" stroke-width="2.8" fill="none"/>
<path d="M 2146,240 L 2160,240 L 2220,240 L 2220,320 L 1140,320 L 1140,360 L 1180,360 L 1194,360" stroke="#3b3b3b" stroke-width="2.8" fill="none"/>
<path d="M 2080,220 L 380,220 L 380,360 L 440,360 L 454,360" stroke="#3b3b3b" stroke-width="2.8" fill="none"/>
<path d="M 2320,140 L 60,140 L 60,360 L 100,360 L 114,360" stroke="#3b3b3b" stroke-width="2.8" fill="none"/>
<g>
<circle cx="2220.0" cy="320.0" r="4.0" stroke="#3b3b3b" stroke-width="2.8" fill="#3b3b3b" />
<circle cx="200.0" cy="520.0" r="4.0" stroke="#3b3b3b" stroke-width="2.8" fill="#3b3b3b" />
<circle cx="1660.0" cy="520.0" r="4.0" stroke="#3b3b3b" stroke-width="2.8" fill="#3b3b3b" />
<circle cx="1960.0" cy="520.0" r="4.0" stroke="#3b3b3b" stroke-width="2.8" fill="#3b3b3b" />
<circle cx="1380.0" cy="520.0" r="4.0" stroke="#3b3b3b" stroke-width="2.8" fill="#3b3b3b" />
<circle cx="580.0" cy="520.0" r="4.0" stroke="#3b3b3b" stroke-width="2.8" fill="#3b3b3b" />
<circle cx="980.0" cy="520.0" r="4.0" stroke="#3b3b3b" stroke-width="2.8" fill="#3b3b3b" />
<circle cx="2240.0" cy="520.0" r="4.0" stroke="#3b3b3b" stroke-width="2.8" fill="#3b3b3b" />
<circle cx="1140.0" cy="400.0" r="4.0" stroke="#3b3b3b" stroke-width="2.8" fill="#3b3b3b" />
<circle cx="2120.0" cy="400.0" r="4.0" stroke="#3b3b3b" stroke-width="2.8" fill="#3b3b3b" />
<circle cx="2400.0" cy="400.0" r="4.0" stroke="#3b3b3b" stroke-width="2.8" fill="#3b3b3b" />
<circle cx="2640.0" cy="400.0" r="4.0" stroke="#3b3b3b" stroke-width="2.8" fill="#3b3b3b" />
<circle cx="1540.0" cy="400.0" r="4.0" stroke="#3b3b3b" stroke-width="2.8" fill="#3b3b3b" />
<circle cx="360.0" cy="400.0" r="4.0" stroke="#3b3b3b" stroke-width="2.8" fill="#3b3b3b" />
<circle cx="740.0" cy="400.0" r="4.0" stroke="#3b3b3b" stroke-width="2.8" fill="#3b3b3b" />
<circle cx="1820.0" cy="400.0" r="4.0" stroke="#3b3b3b" stroke-width="2.8" fill="#3b3b3b" />
<circle cx="400.0" cy="400.0" r="4.0" stroke="#3b3b3b" stroke-width="2.8" fill="#3b3b3b" />
<circle cx="780.0" cy="400.0" r="4.0" stroke="#3b3b3b" stroke-width="2.8" fill="#3b3b3b" />
<circle cx="1620.0" cy="400.0" r="4.0" stroke="#3b3b3b" stroke-width="2.8" fill="#3b3b3b" />
<circle cx="2460.0" cy="400.0" r="4.0" stroke="#3b3b3b" stroke-width="2.8" fill="#3b3b3b" />
<circle cx="1880.0" cy="400.0" r="4.0" stroke="#3b3b3b" stroke-width="2.8" fill="#3b3b3b" />
<circle cx="1620.0" cy="600.0" r="4.0" stroke="#3b3b3b" stroke-width="2.8" fill="#3b3b3b" />
<circle cx="2220.0" cy="420.0" r="4.0" stroke="#3b3b3b" stroke-width="2.8" fill="#3b3b3b" />
<circle cx="1620.0" cy="420.0" r="4.0" stroke="#3b3b3b" stroke-width="2.8" fill="#3b3b3b" />
<circle cx="220.0" cy="560.0" r="4.0" stroke="#3b3b3b" stroke-width="2.8" fill="#3b3b3b" />
<circle cx="1700.0" cy="560.0" r="4.0" stroke="#3b3b3b" stroke-width="2.8" fill="#3b3b3b" />
<circle cx="2000.0" cy="560.0" r="4.0" stroke="#3b3b3b" stroke-width="2.8" fill="#3b3b3b" />
<circle cx="1420.0" cy="560.0" r="4.0" stroke="#3b3b3b" stroke-width="2.8" fill="#3b3b3b" />
<circle cx="620.0" cy="560.0" r="4.0" stroke="#3b3b3b" stroke-width="2.8" fill="#3b3b3b" />
<circle cx="1020.0" cy="560.0" r="4.0" stroke="#3b3b3b" stroke-width="2.8" fill="#3b3b3b" />
<circle cx="2280.0" cy="560.0" r="4.0" stroke="#3b3b3b" stroke-width="2.8" fill="#3b3b3b" />
</g>
<g>
<path d="M 130,410 L 110,410 C 120,394 120,366 110,350 L 130,350 C 150,350 170,360 180,380 C 170,400 150,410 130,410 Z" stroke="#000000" stroke-width="2.8" fill="none"/>
<path d="M 100,410 C 110,400 110,360 100,350" stroke="#000000" stroke-width="2.8" fill="none"/>
<circle cx="190.0" cy="380.0" r="9.0" stroke="#000000" stroke-width="2.8" fill="none" />
<circle cx="100.0" cy="360.0" r="2.0" stroke="#3b3b3b" stroke-width="2.8" fill="#3b3b3b" />
<circle cx="100.0" cy="400.0" r="2.0" stroke="#3b3b3b" stroke-width="2.8" fill="#3b3b3b" />
<circle cx="200.0" cy="380.0" r="2.0" stroke="#3b3b3b" stroke-width="2.8" fill="#3b3b3b" />
</g>
<g>
<path d="M 261,390 L 319,390 L 319,470 L 261,470 Z" stroke="#000000" stroke-width="2.8" fill="none"/>
<text text-anchor="start" x="264.0" y="406.75" fill="#808080" style="font-size:18px">Set</text>
<text text-anchor="start" x="264.0" y="426.75" fill="#808080" style="font-size:18px">D</text>
<path d="M 261,447 L 268,440 L 261,433" stroke="#000000" stroke-width="1.4" fill="none"/>
<text text-anchor="start" x="271.0" y="446.75" fill="#808080" style="font-size:18px">C</text>
<text text-anchor="start" x="264.0" y="466.75" fill="#808080" style="font-size:18px">Clr</text>
<text text-anchor="end" x="316.0" y="406.75" fill="#808080" style="font-size:18px">Q</text>
<text text-anchor="end" x="316.0" y="426.75" fill="#808080" style="font-size:18px"><tspan style="text-decoration:overline;">Q</tspan></text>
<text text-anchor="middle" x="290.0" y="487.5" fill="#808080" style="font-size:18px">D-AS</text>
<circle cx="260.0" cy="400.0" r="2.0" stroke="#3b3b3b" stroke-width="2.8" fill="#3b3b3b" />
<circle cx="260.0" cy="420.0" r="2.0" stroke="#3b3b3b" stroke-width="2.8" fill="#3b3b3b" />
<circle cx="260.0" cy="440.0" r="2.0" stroke="#3b3b3b" stroke-width="2.8" fill="#3b3b3b" />
<circle cx="260.0" cy="460.0" r="2.0" stroke="#3b3b3b" stroke-width="2.8" fill="#3b3b3b" />
<circle cx="320.0" cy="400.0" r="2.0" stroke="#3b3b3b" stroke-width="2.8" fill="#3b3b3b" />
<circle cx="320.0" cy="420.0" r="2.0" stroke="#3b3b3b" stroke-width="2.8" fill="#3b3b3b" />
</g>
<g>
<path d="M 1041,390 L 1099,390 L 1099,470 L 1041,470 Z" stroke="#000000" stroke-width="2.8" fill="none"/>
<text text-anchor="start" x="1044.0" y="406.75" fill="#808080" style="font-size:18px">Set</text>
<text text-anchor="start" x="1044.0" y="426.75" fill="#808080" style="font-size:18px">D</text>
<path d="M 1041,447 L 1048,440 L 1041,433" stroke="#000000" stroke-width="1.4" fill="none"/>
<text text-anchor="start" x="1051.0" y="446.75" fill="#808080" style="font-size:18px">C</text>
<text text-anchor="start" x="1044.0" y="466.75" fill="#808080" style="font-size:18px">Clr</text>
<text text-anchor="end" x="1096.0" y="406.75" fill="#808080" style="font-size:18px">Q</text>
<text text-anchor="end" x="1096.0" y="426.75" fill="#808080" style="font-size:18px"><tspan style="text-decoration:overline;">Q</tspan></text>
<text text-anchor="middle" x="1070.0" y="487.5" fill="#808080" style="font-size:18px">D-AS</text>
<circle cx="1040.0" cy="400.0" r="2.0" stroke="#3b3b3b" stroke-width="2.8" fill="#3b3b3b" />
<circle cx="1040.0" cy="420.0" r="2.0" stroke="#3b3b3b" stroke-width="2.8" fill="#3b3b3b" />
<circle cx="1040.0" cy="440.0" r="2.0" stroke="#3b3b3b" stroke-width="2.8" fill="#3b3b3b" />
<circle cx="1040.0" cy="460.0" r="2.0" stroke="#3b3b3b" stroke-width="2.8" fill="#3b3b3b" />
<circle cx="1100.0" cy="400.0" r="2.0" stroke="#3b3b3b" stroke-width="2.8" fill="#3b3b3b" />
<circle cx="1100.0" cy="420.0" r="2.0" stroke="#3b3b3b" stroke-width="2.8" fill="#3b3b3b" />
</g>
<g>
<path d="M 641,390 L 699,390 L 699,470 L 641,470 Z" stroke="#000000" stroke-width="2.8" fill="none"/>
<text text-anchor="start" x="644.0" y="406.75" fill="#808080" style="font-size:18px">Set</text>
<text text-anchor="start" x="644.0" y="426.75" fill="#808080" style="font-size:18px">D</text>
<path d="M 641,447 L 648,440 L 641,433" stroke="#000000" stroke-width="1.4" fill="none"/>
<text text-anchor="start" x="651.0" y="446.75" fill="#808080" style="font-size:18px">C</text>
<text text-anchor="start" x="644.0" y="466.75" fill="#808080" style="font-size:18px">Clr</text>
<text text-anchor="end" x="696.0" y="406.75" fill="#808080" style="font-size:18px">Q</text>
<text text-anchor="end" x="696.0" y="426.75" fill="#808080" style="font-size:18px"><tspan style="text-decoration:overline;">Q</tspan></text>
<text text-anchor="middle" x="670.0" y="487.5" fill="#808080" style="font-size:18px">D-AS</text>
<circle cx="640.0" cy="400.0" r="2.0" stroke="#3b3b3b" stroke-width="2.8" fill="#3b3b3b" />
<circle cx="640.0" cy="420.0" r="2.0" stroke="#3b3b3b" stroke-width="2.8" fill="#3b3b3b" />
<circle cx="640.0" cy="440.0" r="2.0" stroke="#3b3b3b" stroke-width="2.8" fill="#3b3b3b" />
<circle cx="640.0" cy="460.0" r="2.0" stroke="#3b3b3b" stroke-width="2.8" fill="#3b3b3b" />
<circle cx="700.0" cy="400.0" r="2.0" stroke="#3b3b3b" stroke-width="2.8" fill="#3b3b3b" />
<circle cx="700.0" cy="420.0" r="2.0" stroke="#3b3b3b" stroke-width="2.8" fill="#3b3b3b" />
</g>
<g>
<path d="M 1441,390 L 1499,390 L 1499,470 L 1441,470 Z" stroke="#000000" stroke-width="2.8" fill="none"/>
<text text-anchor="start" x="1444.0" y="406.75" fill="#808080" style="font-size:18px">Set</text>
<text text-anchor="start" x="1444.0" y="426.75" fill="#808080" style="font-size:18px">D</text>
<path d="M 1441,447 L 1448,440 L 1441,433" stroke="#000000" stroke-width="1.4" fill="none"/>
<text text-anchor="start" x="1451.0" y="446.75" fill="#808080" style="font-size:18px">C</text>
<text text-anchor="start" x="1444.0" y="466.75" fill="#808080" style="font-size:18px">Clr</text>
<text text-anchor="end" x="1496.0" y="406.75" fill="#808080" style="font-size:18px">Q</text>
<text text-anchor="end" x="1496.0" y="426.75" fill="#808080" style="font-size:18px"><tspan style="text-decoration:overline;">Q</tspan></text>
<text text-anchor="middle" x="1470.0" y="487.5" fill="#808080" style="font-size:18px">D-AS</text>
<circle cx="1440.0" cy="400.0" r="2.0" stroke="#3b3b3b" stroke-width="2.8" fill="#3b3b3b" />
<circle cx="1440.0" cy="420.0" r="2.0" stroke="#3b3b3b" stroke-width="2.8" fill="#3b3b3b" />
<circle cx="1440.0" cy="440.0" r="2.0" stroke="#3b3b3b" stroke-width="2.8" fill="#3b3b3b" />
<circle cx="1440.0" cy="460.0" r="2.0" stroke="#3b3b3b" stroke-width="2.8" fill="#3b3b3b" />
<circle cx="1500.0" cy="400.0" r="2.0" stroke="#3b3b3b" stroke-width="2.8" fill="#3b3b3b" />
<circle cx="1500.0" cy="420.0" r="2.0" stroke="#3b3b3b" stroke-width="2.8" fill="#3b3b3b" />
</g>
<g>
<path d="M 109,505 L 139,505 L 139,535 L 109,535 Z" stroke="#000000" stroke-width="2.8" fill="none"/>
<circle cx="124.0" cy="520.0" r="9.0" stroke="#000000" stroke-width="2.8" fill="none" />
<text text-anchor="end" x="95.0" y="529.0" fill="#000000" style="font-size:24px"><tspan style="font-style:italic;">ck</tspan></text>
<circle cx="140.0" cy="520.0" r="2.0" stroke="#3b3b3b" stroke-width="2.8" fill="#3b3b3b" />
</g>
<g>
<path d="M 109,545 L 139,545 L 139,575 L 109,575 Z" stroke="#000000" stroke-width="2.8" fill="none"/>
<circle cx="124.0" cy="560.0" r="9.0" stroke="#000000" stroke-width="2.8" fill="none" />
<text text-anchor="end" x="95.0" y="569.0" fill="#000000" style="font-size:24px"><tspan style="font-style:italic;">rst</tspan></text>
<circle cx="140.0" cy="560.0" r="2.0" stroke="#3b3b3b" stroke-width="2.8" fill="#3b3b3b" />
</g>
<g>
<circle cx="360.0" cy="456.0" r="9.0" stroke="#000000" stroke-width="2.8" fill="none" />
<circle cx="360.0" cy="456.0" r="15.0" stroke="#000000" stroke-width="2.8" fill="none" />
<text text-anchor="end" x="360.0" y="494.0" fill="#000000" style="font-size:24px" transform="rotate(-90,360.0,485.0)" ><tspan style="font-style:italic;">o0</tspan></text>
<circle cx="360.0" cy="440.0" r="2.0" stroke="#3b3b3b" stroke-width="2.8" fill="#3b3b3b" />
</g>
<g>
<circle cx="780.0" cy="456.0" r="9.0" stroke="#000000" stroke-width="2.8" fill="none" />
<circle cx="780.0" cy="456.0" r="15.0" stroke="#000000" stroke-width="2.8" fill="none" />
<text text-anchor="end" x="780.0" y="494.0" fill="#000000" style="font-size:24px" transform="rotate(-90,780.0,485.0)" ><tspan style="font-style:italic;">o1</tspan></text>
<circle cx="780.0" cy="440.0" r="2.0" stroke="#3b3b3b" stroke-width="2.8" fill="#3b3b3b" />
</g>
<g>
<circle cx="1140.0" cy="456.0" r="9.0" stroke="#000000" stroke-width="2.8" fill="none" />
<circle cx="1140.0" cy="456.0" r="15.0" stroke="#000000" stroke-width="2.8" fill="none" />
<text text-anchor="end" x="1140.0" y="494.0" fill="#000000" style="font-size:24px" transform="rotate(-90,1140.0,485.0)" ><tspan style="font-style:italic;">o2</tspan></text>
<circle cx="1140.0" cy="440.0" r="2.0" stroke="#3b3b3b" stroke-width="2.8" fill="#3b3b3b" />
</g>
<g>
<circle cx="1540.0" cy="456.0" r="9.0" stroke="#000000" stroke-width="2.8" fill="none" />
<circle cx="1540.0" cy="456.0" r="15.0" stroke="#000000" stroke-width="2.8" fill="none" />
<text text-anchor="end" x="1540.0" y="494.0" fill="#000000" style="font-size:24px" transform="rotate(-90,1540.0,485.0)" ><tspan style="font-style:italic;">o3</tspan></text>
<circle cx="1540.0" cy="440.0" r="2.0" stroke="#3b3b3b" stroke-width="2.8" fill="#3b3b3b" />
</g>
<g>
<path d="M 1330,430 L 1310,430 C 1320,414 1320,386 1310,370 L 1330,370 C 1350,370 1370,380 1380,400 C 1370,420 1350,430 1330,430 Z" stroke="#000000" stroke-width="2.8" fill="none"/>
<path d="M 1300,430 C 1310,420 1310,380 1300,370" stroke="#000000" stroke-width="2.8" fill="none"/>
<circle cx="1300.0" cy="380.0" r="2.0" stroke="#3b3b3b" stroke-width="2.8" fill="#3b3b3b" />
<circle cx="1300.0" cy="420.0" r="2.0" stroke="#3b3b3b" stroke-width="2.8" fill="#3b3b3b" />
<circle cx="1380.0" cy="400.0" r="2.0" stroke="#3b3b3b" stroke-width="2.8" fill="#3b3b3b" />
</g>
<g>
<text text-anchor="end" x="237.0" y="349.0" fill="#000000" style="font-size:24px">0</text>
<circle cx="240.0" cy="340.0" r="2.0" stroke="#3b3b3b" stroke-width="2.8" fill="#3b3b3b" />
</g>
<g>
<text text-anchor="end" x="617.0" y="349.0" fill="#000000" style="font-size:24px">0</text>
<circle cx="620.0" cy="340.0" r="2.0" stroke="#3b3b3b" stroke-width="2.8" fill="#3b3b3b" />
</g>
<g>
<text text-anchor="end" x="1017.0" y="349.0" fill="#000000" style="font-size:24px">0</text>
<circle cx="1020.0" cy="340.0" r="2.0" stroke="#3b3b3b" stroke-width="2.8" fill="#3b3b3b" />
</g>
<g>
<text text-anchor="end" x="1417.0" y="349.0" fill="#000000" style="font-size:24px">0</text>
<circle cx="1420.0" cy="340.0" r="2.0" stroke="#3b3b3b" stroke-width="2.8" fill="#3b3b3b" />
</g>
<g>
<path d="M 2021,390 L 2079,390 L 2079,470 L 2021,470 Z" stroke="#000000" stroke-width="2.8" fill="none"/>
<text text-anchor="start" x="2024.0" y="406.75" fill="#808080" style="font-size:18px">Set</text>
<text text-anchor="start" x="2024.0" y="426.75" fill="#808080" style="font-size:18px">D</text>
<path d="M 2021,447 L 2028,440 L 2021,433" stroke="#000000" stroke-width="1.4" fill="none"/>
<text text-anchor="start" x="2031.0" y="446.75" fill="#808080" style="font-size:18px">C</text>
<text text-anchor="start" x="2024.0" y="466.75" fill="#808080" style="font-size:18px">Clr</text>
<text text-anchor="end" x="2076.0" y="406.75" fill="#808080" style="font-size:18px">Q</text>
<text text-anchor="end" x="2076.0" y="426.75" fill="#808080" style="font-size:18px"><tspan style="text-decoration:overline;">Q</tspan></text>
<text text-anchor="middle" x="2050.0" y="487.5" fill="#808080" style="font-size:18px">D-AS</text>
<circle cx="2020.0" cy="400.0" r="2.0" stroke="#3b3b3b" stroke-width="2.8" fill="#3b3b3b" />
<circle cx="2020.0" cy="420.0" r="2.0" stroke="#3b3b3b" stroke-width="2.8" fill="#3b3b3b" />
<circle cx="2020.0" cy="440.0" r="2.0" stroke="#3b3b3b" stroke-width="2.8" fill="#3b3b3b" />
<circle cx="2020.0" cy="460.0" r="2.0" stroke="#3b3b3b" stroke-width="2.8" fill="#3b3b3b" />
<circle cx="2080.0" cy="400.0" r="2.0" stroke="#3b3b3b" stroke-width="2.8" fill="#3b3b3b" />
<circle cx="2080.0" cy="420.0" r="2.0" stroke="#3b3b3b" stroke-width="2.8" fill="#3b3b3b" />
</g>
<g>
<path d="M 1721,390 L 1779,390 L 1779,470 L 1721,470 Z" stroke="#000000" stroke-width="2.8" fill="none"/>
<text text-anchor="start" x="1724.0" y="406.75" fill="#808080" style="font-size:18px">Set</text>
<text text-anchor="start" x="1724.0" y="426.75" fill="#808080" style="font-size:18px">D</text>
<path d="M 1721,447 L 1728,440 L 1721,433" stroke="#000000" stroke-width="1.4" fill="none"/>
<text text-anchor="start" x="1731.0" y="446.75" fill="#808080" style="font-size:18px">C</text>
<text text-anchor="start" x="1724.0" y="466.75" fill="#808080" style="font-size:18px">Clr</text>
<text text-anchor="end" x="1776.0" y="406.75" fill="#808080" style="font-size:18px">Q</text>
<text text-anchor="end" x="1776.0" y="426.75" fill="#808080" style="font-size:18px"><tspan style="text-decoration:overline;">Q</tspan></text>
<text text-anchor="middle" x="1750.0" y="487.5" fill="#808080" style="font-size:18px">D-AS</text>
<circle cx="1720.0" cy="400.0" r="2.0" stroke="#3b3b3b" stroke-width="2.8" fill="#3b3b3b" />
<circle cx="1720.0" cy="420.0" r="2.0" stroke="#3b3b3b" stroke-width="2.8" fill="#3b3b3b" />
<circle cx="1720.0" cy="440.0" r="2.0" stroke="#3b3b3b" stroke-width="2.8" fill="#3b3b3b" />
<circle cx="1720.0" cy="460.0" r="2.0" stroke="#3b3b3b" stroke-width="2.8" fill="#3b3b3b" />
<circle cx="1780.0" cy="400.0" r="2.0" stroke="#3b3b3b" stroke-width="2.8" fill="#3b3b3b" />
<circle cx="1780.0" cy="420.0" r="2.0" stroke="#3b3b3b" stroke-width="2.8" fill="#3b3b3b" />
</g>
<g>
<path d="M 2301,390 L 2359,390 L 2359,470 L 2301,470 Z" stroke="#000000" stroke-width="2.8" fill="none"/>
<text text-anchor="start" x="2304.0" y="406.75" fill="#808080" style="font-size:18px">Set</text>
<text text-anchor="start" x="2304.0" y="426.75" fill="#808080" style="font-size:18px">D</text>
<path d="M 2301,447 L 2308,440 L 2301,433" stroke="#000000" stroke-width="1.4" fill="none"/>
<text text-anchor="start" x="2311.0" y="446.75" fill="#808080" style="font-size:18px">C</text>
<text text-anchor="start" x="2304.0" y="466.75" fill="#808080" style="font-size:18px">Clr</text>
<text text-anchor="end" x="2356.0" y="406.75" fill="#808080" style="font-size:18px">Q</text>
<text text-anchor="end" x="2356.0" y="426.75" fill="#808080" style="font-size:18px"><tspan style="text-decoration:overline;">Q</tspan></text>
<text text-anchor="middle" x="2330.0" y="487.5" fill="#808080" style="font-size:18px">D-AS</text>
<circle cx="2300.0" cy="400.0" r="2.0" stroke="#3b3b3b" stroke-width="2.8" fill="#3b3b3b" />
<circle cx="2300.0" cy="420.0" r="2.0" stroke="#3b3b3b" stroke-width="2.8" fill="#3b3b3b" />
<circle cx="2300.0" cy="440.0" r="2.0" stroke="#3b3b3b" stroke-width="2.8" fill="#3b3b3b" />
<circle cx="2300.0" cy="460.0" r="2.0" stroke="#3b3b3b" stroke-width="2.8" fill="#3b3b3b" />
<circle cx="2360.0" cy="400.0" r="2.0" stroke="#3b3b3b" stroke-width="2.8" fill="#3b3b3b" />
<circle cx="2360.0" cy="420.0" r="2.0" stroke="#3b3b3b" stroke-width="2.8" fill="#3b3b3b" />
</g>
<g>
<circle cx="1820.0" cy="456.0" r="9.0" stroke="#000000" stroke-width="2.8" fill="none" />
<circle cx="1820.0" cy="456.0" r="15.0" stroke="#000000" stroke-width="2.8" fill="none" />
<text text-anchor="end" x="1820.0" y="494.0" fill="#000000" style="font-size:24px" transform="rotate(-90,1820.0,485.0)" ><tspan style="font-style:italic;">o4</tspan></text>
<circle cx="1820.0" cy="440.0" r="2.0" stroke="#3b3b3b" stroke-width="2.8" fill="#3b3b3b" />
</g>
<g>
<circle cx="2120.0" cy="456.0" r="9.0" stroke="#000000" stroke-width="2.8" fill="none" />
<circle cx="2120.0" cy="456.0" r="15.0" stroke="#000000" stroke-width="2.8" fill="none" />
<text text-anchor="end" x="2120.0" y="494.0" fill="#000000" style="font-size:24px" transform="rotate(-90,2120.0,485.0)" ><tspan style="font-style:italic;">o5</tspan></text>
<circle cx="2120.0" cy="440.0" r="2.0" stroke="#3b3b3b" stroke-width="2.8" fill="#3b3b3b" />
</g>
<g>
<circle cx="2400.0" cy="456.0" r="9.0" stroke="#000000" stroke-width="2.8" fill="none" />
<circle cx="2400.0" cy="456.0" r="15.0" stroke="#000000" stroke-width="2.8" fill="none" />
<text text-anchor="end" x="2400.0" y="494.0" fill="#000000" style="font-size:24px" transform="rotate(-90,2400.0,485.0)" ><tspan style="font-style:italic;">o6</tspan></text>
<circle cx="2400.0" cy="440.0" r="2.0" stroke="#3b3b3b" stroke-width="2.8" fill="#3b3b3b" />
</g>
<g>
<text text-anchor="end" x="1697.0" y="349.0" fill="#000000" style="font-size:24px">0</text>
<circle cx="1700.0" cy="340.0" r="2.0" stroke="#3b3b3b" stroke-width="2.8" fill="#3b3b3b" />
</g>
<g>
<text text-anchor="end" x="1997.0" y="349.0" fill="#000000" style="font-size:24px">0</text>
<circle cx="2000.0" cy="340.0" r="2.0" stroke="#3b3b3b" stroke-width="2.8" fill="#3b3b3b" />
</g>
<g>
<text text-anchor="end" x="2277.0" y="349.0" fill="#000000" style="font-size:24px">0</text>
<circle cx="2280.0" cy="340.0" r="2.0" stroke="#3b3b3b" stroke-width="2.8" fill="#3b3b3b" />
</g>
<g>
<path d="M 2541,390 L 2599,390 L 2599,470 L 2541,470 Z" stroke="#000000" stroke-width="2.8" fill="none"/>
<text text-anchor="start" x="2544.0" y="406.75" fill="#808080" style="font-size:18px">Set</text>
<text text-anchor="start" x="2544.0" y="426.75" fill="#808080" style="font-size:18px">D</text>
<path d="M 2541,447 L 2548,440 L 2541,433" stroke="#000000" stroke-width="1.4" fill="none"/>
<text text-anchor="start" x="2551.0" y="446.75" fill="#808080" style="font-size:18px">C</text>
<text text-anchor="start" x="2544.0" y="466.75" fill="#808080" style="font-size:18px">Clr</text>
<text text-anchor="end" x="2596.0" y="406.75" fill="#808080" style="font-size:18px">Q</text>
<text text-anchor="end" x="2596.0" y="426.75" fill="#808080" style="font-size:18px"><tspan style="text-decoration:overline;">Q</tspan></text>
<text text-anchor="middle" x="2570.0" y="487.5" fill="#808080" style="font-size:18px">D-AS</text>
<circle cx="2540.0" cy="400.0" r="2.0" stroke="#3b3b3b" stroke-width="2.8" fill="#3b3b3b" />
<circle cx="2540.0" cy="420.0" r="2.0" stroke="#3b3b3b" stroke-width="2.8" fill="#3b3b3b" />
<circle cx="2540.0" cy="440.0" r="2.0" stroke="#3b3b3b" stroke-width="2.8" fill="#3b3b3b" />
<circle cx="2540.0" cy="460.0" r="2.0" stroke="#3b3b3b" stroke-width="2.8" fill="#3b3b3b" />
<circle cx="2600.0" cy="400.0" r="2.0" stroke="#3b3b3b" stroke-width="2.8" fill="#3b3b3b" />
<circle cx="2600.0" cy="420.0" r="2.0" stroke="#3b3b3b" stroke-width="2.8" fill="#3b3b3b" />
</g>
<g>
<circle cx="2640.0" cy="456.0" r="9.0" stroke="#000000" stroke-width="2.8" fill="none" />
<circle cx="2640.0" cy="456.0" r="15.0" stroke="#000000" stroke-width="2.8" fill="none" />
<text text-anchor="end" x="2640.0" y="494.0" fill="#000000" style="font-size:24px" transform="rotate(-90,2640.0,485.0)" ><tspan style="font-style:italic;">o7</tspan></text>
<circle cx="2640.0" cy="440.0" r="2.0" stroke="#3b3b3b" stroke-width="2.8" fill="#3b3b3b" />
</g>
<g>
<text text-anchor="end" x="2517.0" y="349.0" fill="#000000" style="font-size:24px">0</text>
<circle cx="2520.0" cy="340.0" r="2.0" stroke="#3b3b3b" stroke-width="2.8" fill="#3b3b3b" />
</g>
<g>
<path d="M 2370,110 L 2390,110 C 2380,126 2380,154 2390,170 L 2370,170 C 2350,170 2330,160 2320,140 C 2330,120 2350,110 2370,110 Z" stroke="#000000" stroke-width="2.8" fill="none"/>
<path d="M 2400,110 C 2390,120 2390,160 2400,170" stroke="#000000" stroke-width="2.8" fill="none"/>
<circle cx="2400.0" cy="160.0" r="2.0" stroke="#3b3b3b" stroke-width="2.8" fill="#3b3b3b" />
<circle cx="2400.0" cy="120.0" r="2.0" stroke="#3b3b3b" stroke-width="2.8" fill="#3b3b3b" />
<circle cx="2320.0" cy="140.0" r="2.0" stroke="#3b3b3b" stroke-width="2.8" fill="#3b3b3b" />
</g>
<g>
<path d="M 2130,190 L 2150,190 C 2140,206 2140,234 2150,250 L 2130,250 C 2110,250 2090,240 2080,220 C 2090,200 2110,190 2130,190 Z" stroke="#000000" stroke-width="2.8" fill="none"/>
<path d="M 2160,190 C 2150,200 2150,240 2160,250" stroke="#000000" stroke-width="2.8" fill="none"/>
<circle cx="2160.0" cy="240.0" r="2.0" stroke="#3b3b3b" stroke-width="2.8" fill="#3b3b3b" />
<circle cx="2160.0" cy="200.0" r="2.0" stroke="#3b3b3b" stroke-width="2.8" fill="#3b3b3b" />
<circle cx="2080.0" cy="220.0" r="2.0" stroke="#3b3b3b" stroke-width="2.8" fill="#3b3b3b" />
</g>
<g>
<path d="M 1530,250 L 1550,250 C 1540,266 1540,294 1550,310 L 1530,310 C 1510,310 1490,300 1480,280 C 1490,260 1510,250 1530,250 Z" stroke="#000000" stroke-width="2.8" fill="none"/>
<path d="M 1560,250 C 1550,260 1550,300 1560,310" stroke="#000000" stroke-width="2.8" fill="none"/>
<circle cx="1560.0" cy="300.0" r="2.0" stroke="#3b3b3b" stroke-width="2.8" fill="#3b3b3b" />
<circle cx="1560.0" cy="260.0" r="2.0" stroke="#3b3b3b" stroke-width="2.8" fill="#3b3b3b" />
<circle cx="1480.0" cy="280.0" r="2.0" stroke="#3b3b3b" stroke-width="2.8" fill="#3b3b3b" />
</g>
<g>
<path d="M 1210,410 L 1190,410 C 1200,394 1200,366 1190,350 L 1210,350 C 1230,350 1250,360 1260,380 C 1250,400 1230,410 1210,410 Z" stroke="#000000" stroke-width="2.8" fill="none"/>
<path d="M 1180,410 C 1190,400 1190,360 1180,350" stroke="#000000" stroke-width="2.8" fill="none"/>
<circle cx="1270.0" cy="380.0" r="9.0" stroke="#000000" stroke-width="2.8" fill="none" />
<circle cx="1180.0" cy="360.0" r="2.0" stroke="#3b3b3b" stroke-width="2.8" fill="#3b3b3b" />
<circle cx="1180.0" cy="400.0" r="2.0" stroke="#3b3b3b" stroke-width="2.8" fill="#3b3b3b" />
<circle cx="1280.0" cy="380.0" r="2.0" stroke="#3b3b3b" stroke-width="2.8" fill="#3b3b3b" />
</g>
<g>
<path d="M 2390,770 L 2420,770 C 2410,786 2410,814 2420,830 L 2400,830 C 2370,830 2350,820 2340,800 C 2350,780 2370,770 2390,770 Z" stroke="#000000" stroke-width="2.8" fill="none"/>
<circle cx="2330.0" cy="800.0" r="9.0" stroke="#000000" stroke-width="2.8" fill="none" />
<circle cx="2420.0" cy="820.0" r="2.0" stroke="#3b3b3b" stroke-width="2.8" fill="#3b3b3b" />
<circle cx="2420.0" cy="780.0" r="2.0" stroke="#3b3b3b" stroke-width="2.8" fill="#3b3b3b" />
<circle cx="2320.0" cy="800.0" r="2.0" stroke="#3b3b3b" stroke-width="2.8" fill="#3b3b3b" />
</g>
<g>
<path d="M 1830,690 L 1860,690 C 1850,706 1850,734 1860,750 L 1840,750 C 1810,750 1790,740 1780,720 C 1790,700 1810,690 1830,690 Z" stroke="#000000" stroke-width="2.8" fill="none"/>
<circle cx="1770.0" cy="720.0" r="9.0" stroke="#000000" stroke-width="2.8" fill="none" />
<circle cx="1860.0" cy="740.0" r="2.0" stroke="#3b3b3b" stroke-width="2.8" fill="#3b3b3b" />
<circle cx="1860.0" cy="700.0" r="2.0" stroke="#3b3b3b" stroke-width="2.8" fill="#3b3b3b" />
<circle cx="1760.0" cy="720.0" r="2.0" stroke="#3b3b3b" stroke-width="2.8" fill="#3b3b3b" />
</g>
<g>
<path d="M 1499,662 L 1461,640 L 1499,618 Z" stroke="#000000" stroke-width="2.8" fill="none"/>
<circle cx="1450.0" cy="640.0" r="9.0" stroke="#000000" stroke-width="2.8" fill="none" />
<circle cx="1500.0" cy="640.0" r="2.0" stroke="#3b3b3b" stroke-width="2.8" fill="#3b3b3b" />
<circle cx="1440.0" cy="640.0" r="2.0" stroke="#3b3b3b" stroke-width="2.8" fill="#3b3b3b" />
</g>
<g>
<path d="M 1450,750 L 1499,750 L 1499,810 L 1450,810 C 1440,810 1420,800 1421,780 C 1421,760 1440,750 1450,750 Z" stroke="#000000" stroke-width="2.8" fill="none"/>
<circle cx="1500.0" cy="800.0" r="2.0" stroke="#3b3b3b" stroke-width="2.8" fill="#3b3b3b" />
<circle cx="1500.0" cy="760.0" r="2.0" stroke="#3b3b3b" stroke-width="2.8" fill="#3b3b3b" />
<circle cx="1420.0" cy="780.0" r="2.0" stroke="#3b3b3b" stroke-width="2.8" fill="#3b3b3b" />
</g>
<g>
<path d="M 1310,670 L 1359,670 L 1359,730 L 1310,730 C 1300,730 1280,720 1281,700 C 1281,680 1300,670 1310,670 Z" stroke="#000000" stroke-width="2.8" fill="none"/>
<circle cx="1360.0" cy="720.0" r="2.0" stroke="#3b3b3b" stroke-width="2.8" fill="#3b3b3b" />
<circle cx="1360.0" cy="680.0" r="2.0" stroke="#3b3b3b" stroke-width="2.8" fill="#3b3b3b" />
<circle cx="1280.0" cy="700.0" r="2.0" stroke="#3b3b3b" stroke-width="2.8" fill="#3b3b3b" />
</g>
<g>
<path d="M 930,770 L 881,770 L 881,710 L 930,710 C 940,710 960,720 959,740 C 959,760 940,770 930,770 Z" stroke="#000000" stroke-width="2.8" fill="none"/>
<circle cx="880.0" cy="720.0" r="2.0" stroke="#3b3b3b" stroke-width="2.8" fill="#3b3b3b" />
<circle cx="880.0" cy="760.0" r="2.0" stroke="#3b3b3b" stroke-width="2.8" fill="#3b3b3b" />
<circle cx="960.0" cy="740.0" r="2.0" stroke="#3b3b3b" stroke-width="2.8" fill="#3b3b3b" />
</g>
<g>
<path d="M 1130,730 L 1081,730 L 1081,670 L 1130,670 C 1140,670 1160,680 1159,700 C 1159,720 1140,730 1130,730 Z" stroke="#000000" stroke-width="2.8" fill="none"/>
<circle cx="1080.0" cy="680.0" r="2.0" stroke="#3b3b3b" stroke-width="2.8" fill="#3b3b3b" />
<circle cx="1080.0" cy="720.0" r="2.0" stroke="#3b3b3b" stroke-width="2.8" fill="#3b3b3b" />
<circle cx="1160.0" cy="700.0" r="2.0" stroke="#3b3b3b" stroke-width="2.8" fill="#3b3b3b" />
</g>
<g>
<path d="M 850,410 L 830,410 C 840,394 840,366 830,350 L 850,350 C 870,350 890,360 900,380 C 890,400 870,410 850,410 Z" stroke="#000000" stroke-width="2.8" fill="none"/>
<path d="M 820,410 C 830,400 830,360 820,350" stroke="#000000" stroke-width="2.8" fill="none"/>
<circle cx="820.0" cy="360.0" r="2.0" stroke="#3b3b3b" stroke-width="2.8" fill="#3b3b3b" />
<circle cx="820.0" cy="400.0" r="2.0" stroke="#3b3b3b" stroke-width="2.8" fill="#3b3b3b" />
<circle cx="900.0" cy="380.0" r="2.0" stroke="#3b3b3b" stroke-width="2.8" fill="#3b3b3b" />
</g>
<g>
<path d="M 470,410 L 450,410 C 460,394 460,366 450,350 L 470,350 C 490,350 510,360 520,380 C 510,400 490,410 470,410 Z" stroke="#000000" stroke-width="2.8" fill="none"/>
<path d="M 440,410 C 450,400 450,360 440,350" stroke="#000000" stroke-width="2.8" fill="none"/>
<circle cx="440.0" cy="360.0" r="2.0" stroke="#3b3b3b" stroke-width="2.8" fill="#3b3b3b" />
<circle cx="440.0" cy="400.0" r="2.0" stroke="#3b3b3b" stroke-width="2.8" fill="#3b3b3b" />
<circle cx="520.0" cy="380.0" r="2.0" stroke="#3b3b3b" stroke-width="2.8" fill="#3b3b3b" />
</g>
</g>
</svg>
