<?xml version="1.0" encoding="UTF-8" standalone="no"?>
<!-- Created with Digital by H.Neemann -->
<!-- created: Sat Apr 25 09:40:32 CEST 2020 -->

<svg
   xmlns:svg="http://www.w3.org/2000/svg"
   xmlns="http://www.w3.org/2000/svg"
   width="223.2mm"
   height="90.45mm"
   viewBox="-582 -392 1488 603">
<g stroke-linecap="square">
<path d="M -280,140 L -270,140 L -260,140" stroke="#000000" stroke-width="2.8" fill="none"/>
<path d="M -280,160 L -270,160" stroke="#000000" stroke-width="2.8" fill="none"/>
<path d="M -280,180 L -270,180" stroke="#000000" stroke-width="2.8" fill="none"/>
<path d="M -280,200 L -270,200" stroke="#000000" stroke-width="2.8" fill="none"/>
<path d="M -300,160 L -280,160" stroke="#000000" stroke-width="2.8" fill="none"/>
<path d="M 476,100 L 480,100 L 600,100 L 600,-180" stroke="#000000" stroke-width="2.8" fill="none"/>
<path d="M -320,-200 L -280,-200 L -220,-200 L -206,-200" stroke="#000000" stroke-width="2.8" fill="none"/>
<path d="M 200,-200 L 240,-200 L 320,-200 L 320,-180 L 440,-180" stroke="#000000" stroke-width="2.8" fill="none"/>
<path d="M 500,-200 L 540,-200 L 560,-200 L 560,-180 L 600,-180 L 660,-180 L 720,-180" stroke="#000000" stroke-width="2.8" fill="none"/>
<path d="M 780,-200 L 820,-200 L 900,-200 L 900,-380 L 600,-380 L 586,-380" stroke="#000000" stroke-width="2.8" fill="none"/>
<path d="M -400,-200 L -380,-200" stroke="#000000" stroke-width="2.8" fill="none"/>
<path d="M 120,-200 L 140,-200" stroke="#000000" stroke-width="2.8" fill="none"/>
<path d="M 420,-200 L 440,-200" stroke="#000000" stroke-width="2.8" fill="none"/>
<path d="M 700,-200 L 720,-200" stroke="#000000" stroke-width="2.8" fill="none"/>
<path d="M -300,200 L -280,200" stroke="#000000" stroke-width="2.8" fill="none"/>
<path d="M 420,-140 L 440,-140" stroke="#000000" stroke-width="2.8" fill="none"/>
<path d="M -400,-140 L -380,-140" stroke="#000000" stroke-width="2.8" fill="none"/>
<path d="M 120,-140 L 140,-140" stroke="#000000" stroke-width="2.8" fill="none"/>
<path d="M 700,-140 L 720,-140" stroke="#000000" stroke-width="2.8" fill="none"/>
<path d="M 476,140 L 480,140 L 900,140 L 900,-200" stroke="#000000" stroke-width="2.8" fill="none"/>
<path d="M -260,140 L -220,140" stroke="#000000" stroke-width="2.8" fill="none"/>
<path d="M -300,140 L -280,140" stroke="#000000" stroke-width="2.8" fill="none"/>
<path d="M -460,140 L -440,140" stroke="#000000" stroke-width="2.8" fill="none"/>
<path d="M 80,80 L 120,80 L 120,60 L 160,60" stroke="#000000" stroke-width="2.8" fill="none"/>
<path d="M 586,-340 L 600,-340 L 660,-340 L 660,-280 L -260,-280 L -260,-240 L -220,-240 L -206,-240" stroke="#000000" stroke-width="2.8" fill="none"/>
<path d="M 0,-180 L 140,-180" stroke="#000000" stroke-width="2.8" fill="none"/>
<path d="M -300,180 L -280,180" stroke="#000000" stroke-width="2.8" fill="none"/>
<path d="M -460,180 L -440,180" stroke="#000000" stroke-width="2.8" fill="none"/>
<path d="M 80,120 L 380,120" stroke="#000000" stroke-width="2.8" fill="none"/>
<path d="M -440,-220 L -420,-220 L -420,-180 L -380,-180" stroke="#000000" stroke-width="2.8" fill="none"/>
<path d="M -120,-220 L -100,-220 L -100,-200 L -80,-200 L -66,-200" stroke="#000000" stroke-width="2.8" fill="none"/>
<path d="M 220,60 L 320,60 L 320,0" stroke="#000000" stroke-width="2.8" fill="none"/>
<path d="M 420,-160 L 440,-160" stroke="#000000" stroke-width="2.8" fill="none"/>
<path d="M -400,-160 L -380,-160" stroke="#000000" stroke-width="2.8" fill="none"/>
<path d="M 120,-160 L 140,-160" stroke="#000000" stroke-width="2.8" fill="none"/>
<path d="M 700,-160 L 720,-160" stroke="#000000" stroke-width="2.8" fill="none"/>
<path d="M 320,-180 L 320,0 L -580,0 L -580,-200 L -540,-200 L -526,-200" stroke="#000000" stroke-width="2.8" fill="none"/>
<path d="M 520,-360 L -580,-360 L -580,-240 L -540,-240 L -526,-240" stroke="#000000" stroke-width="2.8" fill="none"/>
<path d="M 0,100 L -100,100 L -100,-160 L -80,-160 L -66,-160" stroke="#000000" stroke-width="2.8" fill="none"/>
<path d="M 240,-200 L 240,-160" stroke="#000000" stroke-width="2.8" fill="none"/>
<path d="M 660,-280 L 660,-180" stroke="#000000" stroke-width="2.8" fill="none"/>
<path d="M 820,-200 L 820,-160" stroke="#000000" stroke-width="2.8" fill="none"/>
<path d="M -280,-200 L -280,-160" stroke="#000000" stroke-width="2.8" fill="none"/>
<path d="M 540,-200 L 540,-160" stroke="#000000" stroke-width="2.8" fill="none"/>
<g>
<circle cx="320.0" cy="0.0" r="4.0" stroke="#000000" stroke-width="2.8" fill="#000000" />
<circle cx="-280.0" cy="-200.0" r="4.0" stroke="#000000" stroke-width="2.8" fill="#000000" />
<circle cx="240.0" cy="-200.0" r="4.0" stroke="#000000" stroke-width="2.8" fill="#000000" />
<circle cx="540.0" cy="-200.0" r="4.0" stroke="#000000" stroke-width="2.8" fill="#000000" />
<circle cx="820.0" cy="-200.0" r="4.0" stroke="#000000" stroke-width="2.8" fill="#000000" />
<circle cx="900.0" cy="-200.0" r="4.0" stroke="#000000" stroke-width="2.8" fill="#000000" />
<circle cx="320.0" cy="-180.0" r="4.0" stroke="#000000" stroke-width="2.8" fill="#000000" />
<circle cx="600.0" cy="-180.0" r="4.0" stroke="#000000" stroke-width="2.8" fill="#000000" />
<circle cx="660.0" cy="-180.0" r="4.0" stroke="#000000" stroke-width="2.8" fill="#000000" />
<circle cx="660.0" cy="-280.0" r="4.0" stroke="#000000" stroke-width="2.8" fill="#000000" />
</g>
<g>
<path d="M -491,125 L -461,125 L -461,155 L -491,155 Z" stroke="#000000" stroke-width="2.8" fill="none"/>
<circle cx="-476.0" cy="140.0" r="9.0" stroke="#000000" stroke-width="2.8" fill="none" />
<text text-anchor="end" x="-505.0" y="149.0" fill="#000000" style="font-size:24px"><tspan style="font-style:italic;">ck</tspan></text>
<circle cx="-460.0" cy="140.0" r="2.0" stroke="#000000" stroke-width="2.8" fill="#000000" />
</g>
<g>
<path d="M -491,165 L -461,165 L -461,195 L -491,195 Z" stroke="#000000" stroke-width="2.8" fill="none"/>
<circle cx="-476.0" cy="180.0" r="9.0" stroke="#000000" stroke-width="2.8" fill="none" />
<text text-anchor="end" x="-505.0" y="189.0" fill="#000000" style="font-size:24px"><tspan style="font-style:italic;">rst</tspan></text>
<circle cx="-460.0" cy="180.0" r="2.0" stroke="#000000" stroke-width="2.8" fill="#000000" />
</g>
<g>
<path d="M -440,140 L -426,148 L -426,132 Z" stroke="#000000" stroke-width="2.8" fill="none"/>
<text text-anchor="start" x="-421.0" y="146.75" fill="#000000" style="font-size:18px">ck</text>
<circle cx="-440.0" cy="140.0" r="2.0" stroke="#000000" stroke-width="2.8" fill="#000000" />
</g>
<g>
<path d="M -440,180 L -426,188 L -426,172 Z" stroke="#000000" stroke-width="2.8" fill="none"/>
<text text-anchor="start" x="-421.0" y="186.75" fill="#000000" style="font-size:18px">rst</text>
<circle cx="-440.0" cy="180.0" r="2.0" stroke="#000000" stroke-width="2.8" fill="#000000" />
</g>
<g>
<circle cx="-204.0" cy="140.0" r="9.0" stroke="#000000" stroke-width="2.8" fill="none" />
<circle cx="-204.0" cy="140.0" r="15.0" stroke="#000000" stroke-width="2.8" fill="none" />
<text text-anchor="start" x="-175.0" y="149.0" fill="#000000" style="font-size:24px"><tspan style="font-style:italic;">o</tspan></text>
<circle cx="-220.0" cy="140.0" r="2.0" stroke="#000000" stroke-width="2.8" fill="#000000" />
</g>
<g>
<text text-anchor="end" x="-282.0" y="137.0" fill="#000000" style="font-size:12px">0</text>
<text text-anchor="end" x="-282.0" y="157.0" fill="#000000" style="font-size:12px">1</text>
<text text-anchor="end" x="-282.0" y="177.0" fill="#000000" style="font-size:12px">2</text>
<text text-anchor="end" x="-282.0" y="197.0" fill="#000000" style="font-size:12px">3</text>
<text text-anchor="start" x="-258.0" y="137.0" fill="#000000" style="font-size:12px">0-3</text>
<path d="M -272,138 L -268,138 L -268,202 L -272,202 Z" stroke="#000000" stroke-width="2.8" fill="#000000" fill-opacity="1.0"/>
<circle cx="-280.0" cy="140.0" r="2.0" stroke="#000000" stroke-width="2.8" fill="#000000" />
<circle cx="-280.0" cy="160.0" r="2.0" stroke="#000000" stroke-width="2.8" fill="#000000" />
<circle cx="-280.0" cy="180.0" r="2.0" stroke="#000000" stroke-width="2.8" fill="#000000" />
<circle cx="-280.0" cy="200.0" r="2.0" stroke="#000000" stroke-width="2.8" fill="#000000" />
<circle cx="-260.0" cy="140.0" r="2.0" stroke="#000000" stroke-width="2.8" fill="#000000" />
</g>
<g>
<path d="M -300,140 L -314,132 L -314,148 Z" stroke="#000000" stroke-width="2.8" fill="none"/>
<text text-anchor="end" x="-319.0" y="146.75" fill="#000000" style="font-size:18px">o0</text>
<circle cx="-300.0" cy="140.0" r="2.0" stroke="#000000" stroke-width="2.8" fill="#000000" />
</g>
<g>
<path d="M -300,160 L -314,152 L -314,168 Z" stroke="#000000" stroke-width="2.8" fill="none"/>
<text text-anchor="end" x="-319.0" y="166.75" fill="#000000" style="font-size:18px">o1</text>
<circle cx="-300.0" cy="160.0" r="2.0" stroke="#000000" stroke-width="2.8" fill="#000000" />
</g>
<g>
<path d="M -300,180 L -314,172 L -314,188 Z" stroke="#000000" stroke-width="2.8" fill="none"/>
<text text-anchor="end" x="-319.0" y="186.75" fill="#000000" style="font-size:18px">o2</text>
<circle cx="-300.0" cy="180.0" r="2.0" stroke="#000000" stroke-width="2.8" fill="#000000" />
</g>
<g>
<path d="M -300,200 L -314,192 L -314,208 Z" stroke="#000000" stroke-width="2.8" fill="none"/>
<text text-anchor="end" x="-319.0" y="206.75" fill="#000000" style="font-size:18px">o3</text>
<circle cx="-300.0" cy="200.0" r="2.0" stroke="#000000" stroke-width="2.8" fill="#000000" />
</g>
<g>
<path d="M -510,-190 L -530,-190 C -520,-206 -520,-234 -530,-250 L -510,-250 C -490,-250 -470,-240 -460,-220 C -470,-200 -490,-190 -510,-190 Z" stroke="#000000" stroke-width="2.8" fill="none"/>
<path d="M -540,-190 C -530,-200 -530,-240 -540,-250" stroke="#000000" stroke-width="2.8" fill="none"/>
<circle cx="-450.0" cy="-220.0" r="9.0" stroke="#000000" stroke-width="2.8" fill="none" />
<circle cx="-540.0" cy="-240.0" r="2.0" stroke="#000000" stroke-width="2.8" fill="#000000" />
<circle cx="-540.0" cy="-200.0" r="2.0" stroke="#000000" stroke-width="2.8" fill="#000000" />
<circle cx="-440.0" cy="-220.0" r="2.0" stroke="#000000" stroke-width="2.8" fill="#000000" />
</g>
<g>
<path d="M -379,-210 L -321,-210 L -321,-130 L -379,-130 Z" stroke="#000000" stroke-width="2.8" fill="none"/>
<text text-anchor="start" x="-376.0" y="-193.25" fill="#000000" style="font-size:18px">Set</text>
<text text-anchor="start" x="-376.0" y="-173.25" fill="#000000" style="font-size:18px">D</text>
<path d="M -379,-153 L -372,-160 L -379,-167" stroke="#000000" stroke-width="1.4" fill="none"/>
<text text-anchor="start" x="-369.0" y="-153.25" fill="#000000" style="font-size:18px">C</text>
<text text-anchor="start" x="-376.0" y="-133.25" fill="#000000" style="font-size:18px">Clr</text>
<text text-anchor="end" x="-324.0" y="-193.25" fill="#000000" style="font-size:18px">Q</text>
<text text-anchor="end" x="-324.0" y="-173.25" fill="#000000" style="font-size:18px"><tspan style="text-decoration:overline;">Q</tspan></text>
<text text-anchor="middle" x="-350.0" y="-112.5" fill="#000000" style="font-size:18px">D-AS</text>
<circle cx="-380.0" cy="-200.0" r="2.0" stroke="#000000" stroke-width="2.8" fill="#000000" />
<circle cx="-380.0" cy="-180.0" r="2.0" stroke="#000000" stroke-width="2.8" fill="#000000" />
<circle cx="-380.0" cy="-160.0" r="2.0" stroke="#000000" stroke-width="2.8" fill="#000000" />
<circle cx="-380.0" cy="-140.0" r="2.0" stroke="#000000" stroke-width="2.8" fill="#000000" />
<circle cx="-320.0" cy="-200.0" r="2.0" stroke="#000000" stroke-width="2.8" fill="#000000" />
<circle cx="-320.0" cy="-180.0" r="2.0" stroke="#000000" stroke-width="2.8" fill="#000000" />
</g>
<g>
<path d="M 441,-210 L 499,-210 L 499,-130 L 441,-130 Z" stroke="#000000" stroke-width="2.8" fill="none"/>
<text text-anchor="start" x="444.0" y="-193.25" fill="#000000" style="font-size:18px">Set</text>
<text text-anchor="start" x="444.0" y="-173.25" fill="#000000" style="font-size:18px">D</text>
<path d="M 441,-153 L 448,-160 L 441,-167" stroke="#000000" stroke-width="1.4" fill="none"/>
<text text-anchor="start" x="451.0" y="-153.25" fill="#000000" style="font-size:18px">C</text>
<text text-anchor="start" x="444.0" y="-133.25" fill="#000000" style="font-size:18px">Clr</text>
<text text-anchor="end" x="496.0" y="-193.25" fill="#000000" style="font-size:18px">Q</text>
<text text-anchor="end" x="496.0" y="-173.25" fill="#000000" style="font-size:18px"><tspan style="text-decoration:overline;">Q</tspan></text>
<text text-anchor="middle" x="470.0" y="-112.5" fill="#000000" style="font-size:18px">D-AS</text>
<circle cx="440.0" cy="-200.0" r="2.0" stroke="#000000" stroke-width="2.8" fill="#000000" />
<circle cx="440.0" cy="-180.0" r="2.0" stroke="#000000" stroke-width="2.8" fill="#000000" />
<circle cx="440.0" cy="-160.0" r="2.0" stroke="#000000" stroke-width="2.8" fill="#000000" />
<circle cx="440.0" cy="-140.0" r="2.0" stroke="#000000" stroke-width="2.8" fill="#000000" />
<circle cx="500.0" cy="-200.0" r="2.0" stroke="#000000" stroke-width="2.8" fill="#000000" />
<circle cx="500.0" cy="-180.0" r="2.0" stroke="#000000" stroke-width="2.8" fill="#000000" />
</g>
<g>
<path d="M 141,-210 L 199,-210 L 199,-130 L 141,-130 Z" stroke="#000000" stroke-width="2.8" fill="none"/>
<text text-anchor="start" x="144.0" y="-193.25" fill="#000000" style="font-size:18px">Set</text>
<text text-anchor="start" x="144.0" y="-173.25" fill="#000000" style="font-size:18px">D</text>
<path d="M 141,-153 L 148,-160 L 141,-167" stroke="#000000" stroke-width="1.4" fill="none"/>
<text text-anchor="start" x="151.0" y="-153.25" fill="#000000" style="font-size:18px">C</text>
<text text-anchor="start" x="144.0" y="-133.25" fill="#000000" style="font-size:18px">Clr</text>
<text text-anchor="end" x="196.0" y="-193.25" fill="#000000" style="font-size:18px">Q</text>
<text text-anchor="end" x="196.0" y="-173.25" fill="#000000" style="font-size:18px"><tspan style="text-decoration:overline;">Q</tspan></text>
<text text-anchor="middle" x="170.0" y="-112.5" fill="#000000" style="font-size:18px">D-AS</text>
<circle cx="140.0" cy="-200.0" r="2.0" stroke="#000000" stroke-width="2.8" fill="#000000" />
<circle cx="140.0" cy="-180.0" r="2.0" stroke="#000000" stroke-width="2.8" fill="#000000" />
<circle cx="140.0" cy="-160.0" r="2.0" stroke="#000000" stroke-width="2.8" fill="#000000" />
<circle cx="140.0" cy="-140.0" r="2.0" stroke="#000000" stroke-width="2.8" fill="#000000" />
<circle cx="200.0" cy="-200.0" r="2.0" stroke="#000000" stroke-width="2.8" fill="#000000" />
<circle cx="200.0" cy="-180.0" r="2.0" stroke="#000000" stroke-width="2.8" fill="#000000" />
</g>
<g>
<path d="M 721,-210 L 779,-210 L 779,-130 L 721,-130 Z" stroke="#000000" stroke-width="2.8" fill="none"/>
<text text-anchor="start" x="724.0" y="-193.25" fill="#000000" style="font-size:18px">Set</text>
<text text-anchor="start" x="724.0" y="-173.25" fill="#000000" style="font-size:18px">D</text>
<path d="M 721,-153 L 728,-160 L 721,-167" stroke="#000000" stroke-width="1.4" fill="none"/>
<text text-anchor="start" x="731.0" y="-153.25" fill="#000000" style="font-size:18px">C</text>
<text text-anchor="start" x="724.0" y="-133.25" fill="#000000" style="font-size:18px">Clr</text>
<text text-anchor="end" x="776.0" y="-193.25" fill="#000000" style="font-size:18px">Q</text>
<text text-anchor="end" x="776.0" y="-173.25" fill="#000000" style="font-size:18px"><tspan style="text-decoration:overline;">Q</tspan></text>
<text text-anchor="middle" x="750.0" y="-112.5" fill="#000000" style="font-size:18px">D-AS</text>
<circle cx="720.0" cy="-200.0" r="2.0" stroke="#000000" stroke-width="2.8" fill="#000000" />
<circle cx="720.0" cy="-180.0" r="2.0" stroke="#000000" stroke-width="2.8" fill="#000000" />
<circle cx="720.0" cy="-160.0" r="2.0" stroke="#000000" stroke-width="2.8" fill="#000000" />
<circle cx="720.0" cy="-140.0" r="2.0" stroke="#000000" stroke-width="2.8" fill="#000000" />
<circle cx="780.0" cy="-200.0" r="2.0" stroke="#000000" stroke-width="2.8" fill="#000000" />
<circle cx="780.0" cy="-180.0" r="2.0" stroke="#000000" stroke-width="2.8" fill="#000000" />
</g>
<g>
<path d="M -50,-150 L -70,-150 C -60,-166 -60,-194 -70,-210 L -50,-210 C -30,-210 -10,-200 0,-180 C -10,-160 -30,-150 -50,-150 Z" stroke="#000000" stroke-width="2.8" fill="none"/>
<path d="M -80,-150 C -70,-160 -70,-200 -80,-210" stroke="#000000" stroke-width="2.8" fill="none"/>
<circle cx="-80.0" cy="-200.0" r="2.0" stroke="#000000" stroke-width="2.8" fill="#000000" />
<circle cx="-80.0" cy="-160.0" r="2.0" stroke="#000000" stroke-width="2.8" fill="#000000" />
<circle cx="0.0" cy="-180.0" r="2.0" stroke="#000000" stroke-width="2.8" fill="#000000" />
</g>
<g>
<text text-anchor="end" x="-403.0" y="-191.0" fill="#000000" style="font-size:24px">0</text>
<circle cx="-400.0" cy="-200.0" r="2.0" stroke="#000000" stroke-width="2.8" fill="#000000" />
</g>
<g>
<text text-anchor="end" x="117.0" y="-191.0" fill="#000000" style="font-size:24px">0</text>
<circle cx="120.0" cy="-200.0" r="2.0" stroke="#000000" stroke-width="2.8" fill="#000000" />
</g>
<g>
<path d="M 570,-390 L 590,-390 C 580,-374 580,-346 590,-330 L 570,-330 C 550,-330 530,-340 520,-360 C 530,-380 550,-390 570,-390 Z" stroke="#000000" stroke-width="2.8" fill="none"/>
<path d="M 600,-390 C 590,-380 590,-340 600,-330" stroke="#000000" stroke-width="2.8" fill="none"/>
<circle cx="600.0" cy="-340.0" r="2.0" stroke="#000000" stroke-width="2.8" fill="#000000" />
<circle cx="600.0" cy="-380.0" r="2.0" stroke="#000000" stroke-width="2.8" fill="#000000" />
<circle cx="520.0" cy="-360.0" r="2.0" stroke="#000000" stroke-width="2.8" fill="#000000" />
</g>
<g>
<path d="M -190,-190 L -210,-190 C -200,-206 -200,-234 -210,-250 L -190,-250 C -170,-250 -150,-240 -140,-220 C -150,-200 -170,-190 -190,-190 Z" stroke="#000000" stroke-width="2.8" fill="none"/>
<path d="M -220,-190 C -210,-200 -210,-240 -220,-250" stroke="#000000" stroke-width="2.8" fill="none"/>
<circle cx="-130.0" cy="-220.0" r="9.0" stroke="#000000" stroke-width="2.8" fill="none" />
<circle cx="-220.0" cy="-240.0" r="2.0" stroke="#000000" stroke-width="2.8" fill="#000000" />
<circle cx="-220.0" cy="-200.0" r="2.0" stroke="#000000" stroke-width="2.8" fill="#000000" />
<circle cx="-120.0" cy="-220.0" r="2.0" stroke="#000000" stroke-width="2.8" fill="#000000" />
</g>
<g>
<path d="M 450,90 L 480,90 C 470,106 470,134 480,150 L 460,150 C 430,150 410,140 400,120 C 410,100 430,90 450,90 Z" stroke="#000000" stroke-width="2.8" fill="none"/>
<circle cx="390.0" cy="120.0" r="9.0" stroke="#000000" stroke-width="2.8" fill="none" />
<circle cx="480.0" cy="140.0" r="2.0" stroke="#000000" stroke-width="2.8" fill="#000000" />
<circle cx="480.0" cy="100.0" r="2.0" stroke="#000000" stroke-width="2.8" fill="#000000" />
<circle cx="380.0" cy="120.0" r="2.0" stroke="#000000" stroke-width="2.8" fill="#000000" />
</g>
<g>
<path d="M 219,82 L 181,60 L 219,38 Z" stroke="#000000" stroke-width="2.8" fill="none"/>
<circle cx="170.0" cy="60.0" r="9.0" stroke="#000000" stroke-width="2.8" fill="none" />
<circle cx="220.0" cy="60.0" r="2.0" stroke="#000000" stroke-width="2.8" fill="#000000" />
<circle cx="160.0" cy="60.0" r="2.0" stroke="#000000" stroke-width="2.8" fill="#000000" />
</g>
<g>
<path d="M 30,70 L 79,70 L 79,130 L 30,130 C 20,130 0,120 1,100 C 1,80 20,70 30,70 Z" stroke="#000000" stroke-width="2.8" fill="none"/>
<circle cx="80.0" cy="120.0" r="2.0" stroke="#000000" stroke-width="2.8" fill="#000000" />
<circle cx="80.0" cy="80.0" r="2.0" stroke="#000000" stroke-width="2.8" fill="#000000" />
<circle cx="0.0" cy="100.0" r="2.0" stroke="#000000" stroke-width="2.8" fill="#000000" />
</g>
<g>
<path d="M -280,-160 L -288,-146 L -272,-146 Z" stroke="#000000" stroke-width="2.8" fill="none"/>
<text text-anchor="end" x="-280.0" y="-134.25" fill="#000000" style="font-size:18px" transform="rotate(-90,-280.0,-141.0)" >o0</text>
<circle cx="-280.0" cy="-160.0" r="2.0" stroke="#000000" stroke-width="2.8" fill="#000000" />
</g>
<g>
<path d="M 240,-160 L 232,-146 L 248,-146 Z" stroke="#000000" stroke-width="2.8" fill="none"/>
<text text-anchor="end" x="240.0" y="-134.25" fill="#000000" style="font-size:18px" transform="rotate(-90,240.0,-141.0)" >o1</text>
<circle cx="240.0" cy="-160.0" r="2.0" stroke="#000000" stroke-width="2.8" fill="#000000" />
</g>
<g>
<path d="M 540,-160 L 532,-146 L 548,-146 Z" stroke="#000000" stroke-width="2.8" fill="none"/>
<text text-anchor="end" x="540.0" y="-134.25" fill="#000000" style="font-size:18px" transform="rotate(-90,540.0,-141.0)" >o2</text>
<circle cx="540.0" cy="-160.0" r="2.0" stroke="#000000" stroke-width="2.8" fill="#000000" />
</g>
<g>
<path d="M 820,-160 L 812,-146 L 828,-146 Z" stroke="#000000" stroke-width="2.8" fill="none"/>
<text text-anchor="end" x="820.0" y="-134.25" fill="#000000" style="font-size:18px" transform="rotate(-90,820.0,-141.0)" >o3</text>
<circle cx="820.0" cy="-160.0" r="2.0" stroke="#000000" stroke-width="2.8" fill="#000000" />
</g>
<g>
<path d="M -400,-160 L -414,-168 L -414,-152 Z" stroke="#000000" stroke-width="2.8" fill="none"/>
<text text-anchor="end" x="-419.0" y="-153.25" fill="#000000" style="font-size:18px">ck</text>
<circle cx="-400.0" cy="-160.0" r="2.0" stroke="#000000" stroke-width="2.8" fill="#000000" />
</g>
<g>
<path d="M -400,-140 L -414,-148 L -414,-132 Z" stroke="#000000" stroke-width="2.8" fill="none"/>
<text text-anchor="end" x="-419.0" y="-133.25" fill="#000000" style="font-size:18px">rst</text>
<circle cx="-400.0" cy="-140.0" r="2.0" stroke="#000000" stroke-width="2.8" fill="#000000" />
</g>
<g>
<path d="M 120,-160 L 106,-168 L 106,-152 Z" stroke="#000000" stroke-width="2.8" fill="none"/>
<text text-anchor="end" x="101.0" y="-153.25" fill="#000000" style="font-size:18px">ck</text>
<circle cx="120.0" cy="-160.0" r="2.0" stroke="#000000" stroke-width="2.8" fill="#000000" />
</g>
<g>
<path d="M 120,-140 L 106,-148 L 106,-132 Z" stroke="#000000" stroke-width="2.8" fill="none"/>
<text text-anchor="end" x="101.0" y="-133.25" fill="#000000" style="font-size:18px">rst</text>
<circle cx="120.0" cy="-140.0" r="2.0" stroke="#000000" stroke-width="2.8" fill="#000000" />
</g>
<g>
<text text-anchor="end" x="417.0" y="-191.0" fill="#000000" style="font-size:24px">0</text>
<circle cx="420.0" cy="-200.0" r="2.0" stroke="#000000" stroke-width="2.8" fill="#000000" />
</g>
<g>
<path d="M 420,-160 L 406,-168 L 406,-152 Z" stroke="#000000" stroke-width="2.8" fill="none"/>
<text text-anchor="end" x="401.0" y="-153.25" fill="#000000" style="font-size:18px">ck</text>
<circle cx="420.0" cy="-160.0" r="2.0" stroke="#000000" stroke-width="2.8" fill="#000000" />
</g>
<g>
<path d="M 420,-140 L 406,-148 L 406,-132 Z" stroke="#000000" stroke-width="2.8" fill="none"/>
<text text-anchor="end" x="401.0" y="-133.25" fill="#000000" style="font-size:18px">rst</text>
<circle cx="420.0" cy="-140.0" r="2.0" stroke="#000000" stroke-width="2.8" fill="#000000" />
</g>
<g>
<text text-anchor="end" x="697.0" y="-191.0" fill="#000000" style="font-size:24px">0</text>
<circle cx="700.0" cy="-200.0" r="2.0" stroke="#000000" stroke-width="2.8" fill="#000000" />
</g>
<g>
<path d="M 700,-160 L 686,-168 L 686,-152 Z" stroke="#000000" stroke-width="2.8" fill="none"/>
<text text-anchor="end" x="681.0" y="-153.25" fill="#000000" style="font-size:18px">ck</text>
<circle cx="700.0" cy="-160.0" r="2.0" stroke="#000000" stroke-width="2.8" fill="#000000" />
</g>
<g>
<path d="M 700,-140 L 686,-148 L 686,-132 Z" stroke="#000000" stroke-width="2.8" fill="none"/>
<text text-anchor="end" x="681.0" y="-133.25" fill="#000000" style="font-size:18px">rst</text>
<circle cx="700.0" cy="-140.0" r="2.0" stroke="#000000" stroke-width="2.8" fill="#000000" />
</g>
</g>
</svg>