<?xml version="1.0" encoding="UTF-8" standalone="no"?>
<!-- Created with Digital by H.Neemann -->
<!-- created: Sat Apr 25 09:57:16 CEST 2020 -->

<svg
   xmlns:svg="http://www.w3.org/2000/svg"
   xmlns="http://www.w3.org/2000/svg"
   width="291.45mm"
   height="102.45mm"
   viewBox="-582 -432 1943 683">
<g stroke-linecap="square">
<path d="M -280,140 L -270,140 L -260,140" stroke="#000000" stroke-width="2.8" fill="none"/>
<path d="M -280,160 L -270,160" stroke="#000000" stroke-width="2.8" fill="none"/>
<path d="M -280,180 L -270,180" stroke="#000000" stroke-width="2.8" fill="none"/>
<path d="M -280,200 L -270,200" stroke="#000000" stroke-width="2.8" fill="none"/>
<path d="M -280,220 L -270,220" stroke="#000000" stroke-width="2.8" fill="none"/>
<path d="M -280,240 L -270,240" stroke="#000000" stroke-width="2.8" fill="none"/>
<path d="M 556,0 L 560,0 L 620,0 L 620,-80" stroke="#000000" stroke-width="2.8" fill="none"/>
<path d="M 20,-200 L 60,-200 L 100,-200 L 114,-200" stroke="#000000" stroke-width="2.8" fill="none"/>
<path d="M 480,-200 L 520,-200 L 540,-200 L 540,-180 L 620,-180 L 700,-180" stroke="#000000" stroke-width="2.8" fill="none"/>
<path d="M 760,-200 L 800,-200 L 880,-200 L 880,-360 L 600,-360 L 586,-360" stroke="#000000" stroke-width="2.8" fill="none"/>
<path d="M -400,-200 L -380,-200" stroke="#000000" stroke-width="2.8" fill="none"/>
<path d="M -60,-200 L -40,-200" stroke="#000000" stroke-width="2.8" fill="none"/>
<path d="M 400,-200 L 420,-200" stroke="#000000" stroke-width="2.8" fill="none"/>
<path d="M 680,-200 L 700,-200" stroke="#000000" stroke-width="2.8" fill="none"/>
<path d="M 960,-200 L 980,-200" stroke="#000000" stroke-width="2.8" fill="none"/>
<path d="M 1200,-200 L 1220,-200" stroke="#000000" stroke-width="2.8" fill="none"/>
<path d="M 1280,-200 L 1300,-200 L 1320,-200" stroke="#000000" stroke-width="2.8" fill="none"/>
<path d="M -320,-200 L -280,-200 L -240,-200 L -220,-200 L -206,-200" stroke="#000000" stroke-width="2.8" fill="none"/>
<path d="M 1040,-200 L 1060,-200 L 1080,-200 L 1120,-200 L 1140,-200 L 1140,-180 L 1220,-180" stroke="#000000" stroke-width="2.8" fill="none"/>
<path d="M -300,200 L -280,200" stroke="#000000" stroke-width="2.8" fill="none"/>
<path d="M 400,-140 L 420,-140" stroke="#000000" stroke-width="2.8" fill="none"/>
<path d="M -400,-140 L -380,-140" stroke="#000000" stroke-width="2.8" fill="none"/>
<path d="M -60,-140 L -40,-140" stroke="#000000" stroke-width="2.8" fill="none"/>
<path d="M 680,-140 L 700,-140" stroke="#000000" stroke-width="2.8" fill="none"/>
<path d="M 960,-140 L 980,-140" stroke="#000000" stroke-width="2.8" fill="none"/>
<path d="M 1200,-140 L 1220,-140" stroke="#000000" stroke-width="2.8" fill="none"/>
<path d="M -260,140 L -220,140" stroke="#000000" stroke-width="2.8" fill="none"/>
<path d="M -300,140 L -280,140" stroke="#000000" stroke-width="2.8" fill="none"/>
<path d="M -460,140 L -440,140" stroke="#000000" stroke-width="2.8" fill="none"/>
<path d="M 380,80 L 680,80" stroke="#000000" stroke-width="2.8" fill="none"/>
<path d="M -440,-220 L -420,-220 L -420,-180 L -380,-180" stroke="#000000" stroke-width="2.8" fill="none"/>
<path d="M 200,-220 L 220,-220 L 220,-200 L 240,-200 L 254,-200" stroke="#000000" stroke-width="2.8" fill="none"/>
<path d="M -140,-220 L -120,-220 L -120,-180 L -40,-180" stroke="#000000" stroke-width="2.8" fill="none"/>
<path d="M -300,220 L -280,220" stroke="#000000" stroke-width="2.8" fill="none"/>
<path d="M 960,-160 L 980,-160" stroke="#000000" stroke-width="2.8" fill="none"/>
<path d="M 400,-160 L 420,-160" stroke="#000000" stroke-width="2.8" fill="none"/>
<path d="M -400,-160 L -380,-160" stroke="#000000" stroke-width="2.8" fill="none"/>
<path d="M -60,-160 L -40,-160" stroke="#000000" stroke-width="2.8" fill="none"/>
<path d="M 680,-160 L 700,-160" stroke="#000000" stroke-width="2.8" fill="none"/>
<path d="M 220,-60 L 220,-160 L 240,-160 L 254,-160" stroke="#000000" stroke-width="2.8" fill="none"/>
<path d="M 1200,-160 L 1220,-160" stroke="#000000" stroke-width="2.8" fill="none"/>
<path d="M -300,160 L -280,160" stroke="#000000" stroke-width="2.8" fill="none"/>
<path d="M 766,-420 L 780,-420 L 1300,-420 L 1300,-200 L 1300,100 L 780,100 L 776,100" stroke="#000000" stroke-width="2.8" fill="none"/>
<path d="M 380,40 L 420,40 L 420,20 L 460,20" stroke="#000000" stroke-width="2.8" fill="none"/>
<path d="M 556,40 L 560,40 L 880,40 L 880,-180" stroke="#000000" stroke-width="2.8" fill="none"/>
<path d="M -300,240 L -280,240" stroke="#000000" stroke-width="2.8" fill="none"/>
<path d="M 320,-180 L 420,-180" stroke="#000000" stroke-width="2.8" fill="none"/>
<path d="M 880,-200 L 880,-180 L 980,-180" stroke="#000000" stroke-width="2.8" fill="none"/>
<path d="M -300,180 L -280,180" stroke="#000000" stroke-width="2.8" fill="none"/>
<path d="M -460,180 L -440,180" stroke="#000000" stroke-width="2.8" fill="none"/>
<path d="M 766,-380 L 780,-380 L 1120,-380 L 1120,-200" stroke="#000000" stroke-width="2.8" fill="none"/>
<path d="M 240,0 L 240,60 L 300,60" stroke="#000000" stroke-width="2.8" fill="none"/>
<path d="M -240,-200 L -240,60 L 200,60 L 200,0" stroke="#000000" stroke-width="2.8" fill="none"/>
<path d="M 776,60 L 780,60 L 1080,60 L 1080,-200" stroke="#000000" stroke-width="2.8" fill="none"/>
<path d="M 800,-200 L 800,-160" stroke="#000000" stroke-width="2.8" fill="none"/>
<path d="M -526,-200 L -540,-200 L -580,-200 L -580,-80 L 620,-80 L 620,-180 L 620,-280" stroke="#000000" stroke-width="2.8" fill="none"/>
<path d="M 700,-400 L -580,-400 L -580,-240 L -540,-240 L -526,-240" stroke="#000000" stroke-width="2.8" fill="none"/>
<path d="M 1060,-200 L 1060,-160" stroke="#000000" stroke-width="2.8" fill="none"/>
<path d="M 520,-200 L 520,-160" stroke="#000000" stroke-width="2.8" fill="none"/>
<path d="M 520,-340 L -240,-340 L -240,-240 L -220,-240 L -206,-240" stroke="#000000" stroke-width="2.8" fill="none"/>
<path d="M 586,-320 L 600,-320 L 620,-320 L 620,-280 L 80,-280 L 80,-240 L 100,-240 L 114,-240" stroke="#000000" stroke-width="2.8" fill="none"/>
<path d="M -280,-200 L -280,-160" stroke="#000000" stroke-width="2.8" fill="none"/>
<path d="M 60,-200 L 60,-160" stroke="#000000" stroke-width="2.8" fill="none"/>
<g>
<circle cx="60.0" cy="-200.0" r="4.0" stroke="#000000" stroke-width="2.8" fill="#000000" />
<circle cx="520.0" cy="-200.0" r="4.0" stroke="#000000" stroke-width="2.8" fill="#000000" />
<circle cx="800.0" cy="-200.0" r="4.0" stroke="#000000" stroke-width="2.8" fill="#000000" />
<circle cx="1300.0" cy="-200.0" r="4.0" stroke="#000000" stroke-width="2.8" fill="#000000" />
<circle cx="-280.0" cy="-200.0" r="4.0" stroke="#000000" stroke-width="2.8" fill="#000000" />
<circle cx="1060.0" cy="-200.0" r="4.0" stroke="#000000" stroke-width="2.8" fill="#000000" />
<circle cx="1080.0" cy="-200.0" r="4.0" stroke="#000000" stroke-width="2.8" fill="#000000" />
<circle cx="1120.0" cy="-200.0" r="4.0" stroke="#000000" stroke-width="2.8" fill="#000000" />
<circle cx="880.0" cy="-200.0" r="4.0" stroke="#000000" stroke-width="2.8" fill="#000000" />
<circle cx="-240.0" cy="-200.0" r="4.0" stroke="#000000" stroke-width="2.8" fill="#000000" />
<circle cx="620.0" cy="-80.0" r="4.0" stroke="#000000" stroke-width="2.8" fill="#000000" />
<circle cx="620.0" cy="-280.0" r="4.0" stroke="#000000" stroke-width="2.8" fill="#000000" />
<circle cx="620.0" cy="-180.0" r="4.0" stroke="#000000" stroke-width="2.8" fill="#000000" />
<circle cx="880.0" cy="-180.0" r="4.0" stroke="#000000" stroke-width="2.8" fill="#000000" />
</g>
<g>
<path d="M -491,125 L -461,125 L -461,155 L -491,155 Z" stroke="#000000" stroke-width="2.8" fill="none"/>
<circle cx="-476.0" cy="140.0" r="9.0" stroke="#000000" stroke-width="2.8" fill="none" />
<text text-anchor="end" x="-505.0" y="149.0" fill="#000000" style="font-size:24px"><tspan style="font-style:italic;">ck</tspan></text>
<circle cx="-460.0" cy="140.0" r="2.0" stroke="#000000" stroke-width="2.8" fill="#000000" />
</g>
<g>
<path d="M -491,165 L -461,165 L -461,195 L -491,195 Z" stroke="#000000" stroke-width="2.8" fill="none"/>
<circle cx="-476.0" cy="180.0" r="9.0" stroke="#000000" stroke-width="2.8" fill="none" />
<text text-anchor="end" x="-505.0" y="189.0" fill="#000000" style="font-size:24px"><tspan style="font-style:italic;">rst</tspan></text>
<circle cx="-460.0" cy="180.0" r="2.0" stroke="#000000" stroke-width="2.8" fill="#000000" />
</g>
<g>
<path d="M -440,140 L -426,148 L -426,132 Z" stroke="#000000" stroke-width="2.8" fill="none"/>
<text text-anchor="start" x="-421.0" y="146.75" fill="#000000" style="font-size:18px">ck</text>
<circle cx="-440.0" cy="140.0" r="2.0" stroke="#000000" stroke-width="2.8" fill="#000000" />
</g>
<g>
<path d="M -440,180 L -426,188 L -426,172 Z" stroke="#000000" stroke-width="2.8" fill="none"/>
<text text-anchor="start" x="-421.0" y="186.75" fill="#000000" style="font-size:18px">rst</text>
<circle cx="-440.0" cy="180.0" r="2.0" stroke="#000000" stroke-width="2.8" fill="#000000" />
</g>
<g>
<circle cx="-204.0" cy="140.0" r="9.0" stroke="#000000" stroke-width="2.8" fill="none" />
<circle cx="-204.0" cy="140.0" r="15.0" stroke="#000000" stroke-width="2.8" fill="none" />
<text text-anchor="start" x="-175.0" y="149.0" fill="#000000" style="font-size:24px"><tspan style="font-style:italic;">o</tspan></text>
<circle cx="-220.0" cy="140.0" r="2.0" stroke="#000000" stroke-width="2.8" fill="#000000" />
</g>
<g>
<text text-anchor="end" x="-282.0" y="137.0" fill="#000000" style="font-size:12px">0</text>
<text text-anchor="end" x="-282.0" y="157.0" fill="#000000" style="font-size:12px">1</text>
<text text-anchor="end" x="-282.0" y="177.0" fill="#000000" style="font-size:12px">2</text>
<text text-anchor="end" x="-282.0" y="197.0" fill="#000000" style="font-size:12px">3</text>
<text text-anchor="end" x="-282.0" y="217.0" fill="#000000" style="font-size:12px">4</text>
<text text-anchor="end" x="-282.0" y="237.0" fill="#000000" style="font-size:12px">5</text>
<text text-anchor="start" x="-258.0" y="137.0" fill="#000000" style="font-size:12px">0-5</text>
<path d="M -272,138 L -268,138 L -268,242 L -272,242 Z" stroke="#000000" stroke-width="2.8" fill="#000000" fill-opacity="1.0"/>
<circle cx="-280.0" cy="140.0" r="2.0" stroke="#000000" stroke-width="2.8" fill="#000000" />
<circle cx="-280.0" cy="160.0" r="2.0" stroke="#000000" stroke-width="2.8" fill="#000000" />
<circle cx="-280.0" cy="180.0" r="2.0" stroke="#000000" stroke-width="2.8" fill="#000000" />
<circle cx="-280.0" cy="200.0" r="2.0" stroke="#000000" stroke-width="2.8" fill="#000000" />
<circle cx="-280.0" cy="220.0" r="2.0" stroke="#000000" stroke-width="2.8" fill="#000000" />
<circle cx="-280.0" cy="240.0" r="2.0" stroke="#000000" stroke-width="2.8" fill="#000000" />
<circle cx="-260.0" cy="140.0" r="2.0" stroke="#000000" stroke-width="2.8" fill="#000000" />
</g>
<g>
<path d="M -300,140 L -314,132 L -314,148 Z" stroke="#000000" stroke-width="2.8" fill="none"/>
<text text-anchor="end" x="-319.0" y="146.75" fill="#000000" style="font-size:18px">o0</text>
<circle cx="-300.0" cy="140.0" r="2.0" stroke="#000000" stroke-width="2.8" fill="#000000" />
</g>
<g>
<path d="M -300,160 L -314,152 L -314,168 Z" stroke="#000000" stroke-width="2.8" fill="none"/>
<text text-anchor="end" x="-319.0" y="166.75" fill="#000000" style="font-size:18px">o1</text>
<circle cx="-300.0" cy="160.0" r="2.0" stroke="#000000" stroke-width="2.8" fill="#000000" />
</g>
<g>
<path d="M -300,180 L -314,172 L -314,188 Z" stroke="#000000" stroke-width="2.8" fill="none"/>
<text text-anchor="end" x="-319.0" y="186.75" fill="#000000" style="font-size:18px">o2</text>
<circle cx="-300.0" cy="180.0" r="2.0" stroke="#000000" stroke-width="2.8" fill="#000000" />
</g>
<g>
<path d="M -300,200 L -314,192 L -314,208 Z" stroke="#000000" stroke-width="2.8" fill="none"/>
<text text-anchor="end" x="-319.0" y="206.75" fill="#000000" style="font-size:18px">o3</text>
<circle cx="-300.0" cy="200.0" r="2.0" stroke="#000000" stroke-width="2.8" fill="#000000" />
</g>
<g>
<path d="M -510,-190 L -530,-190 C -520,-206 -520,-234 -530,-250 L -510,-250 C -490,-250 -470,-240 -460,-220 C -470,-200 -490,-190 -510,-190 Z" stroke="#000000" stroke-width="2.8" fill="none"/>
<path d="M -540,-190 C -530,-200 -530,-240 -540,-250" stroke="#000000" stroke-width="2.8" fill="none"/>
<circle cx="-450.0" cy="-220.0" r="9.0" stroke="#000000" stroke-width="2.8" fill="none" />
<circle cx="-540.0" cy="-240.0" r="2.0" stroke="#000000" stroke-width="2.8" fill="#000000" />
<circle cx="-540.0" cy="-200.0" r="2.0" stroke="#000000" stroke-width="2.8" fill="#000000" />
<circle cx="-440.0" cy="-220.0" r="2.0" stroke="#000000" stroke-width="2.8" fill="#000000" />
</g>
<g>
<path d="M -379,-210 L -321,-210 L -321,-130 L -379,-130 Z" stroke="#000000" stroke-width="2.8" fill="none"/>
<text text-anchor="start" x="-376.0" y="-193.25" fill="#000000" style="font-size:18px">Set</text>
<text text-anchor="start" x="-376.0" y="-173.25" fill="#000000" style="font-size:18px">D</text>
<path d="M -379,-153 L -372,-160 L -379,-167" stroke="#000000" stroke-width="1.4" fill="none"/>
<text text-anchor="start" x="-369.0" y="-153.25" fill="#000000" style="font-size:18px">C</text>
<text text-anchor="start" x="-376.0" y="-133.25" fill="#000000" style="font-size:18px">Clr</text>
<text text-anchor="end" x="-324.0" y="-193.25" fill="#000000" style="font-size:18px">Q</text>
<text text-anchor="end" x="-324.0" y="-173.25" fill="#000000" style="font-size:18px"><tspan style="text-decoration:overline;">Q</tspan></text>
<text text-anchor="middle" x="-350.0" y="-112.5" fill="#000000" style="font-size:18px">D-AS</text>
<circle cx="-380.0" cy="-200.0" r="2.0" stroke="#000000" stroke-width="2.8" fill="#000000" />
<circle cx="-380.0" cy="-180.0" r="2.0" stroke="#000000" stroke-width="2.8" fill="#000000" />
<circle cx="-380.0" cy="-160.0" r="2.0" stroke="#000000" stroke-width="2.8" fill="#000000" />
<circle cx="-380.0" cy="-140.0" r="2.0" stroke="#000000" stroke-width="2.8" fill="#000000" />
<circle cx="-320.0" cy="-200.0" r="2.0" stroke="#000000" stroke-width="2.8" fill="#000000" />
<circle cx="-320.0" cy="-180.0" r="2.0" stroke="#000000" stroke-width="2.8" fill="#000000" />
</g>
<g>
<path d="M 421,-210 L 479,-210 L 479,-130 L 421,-130 Z" stroke="#000000" stroke-width="2.8" fill="none"/>
<text text-anchor="start" x="424.0" y="-193.25" fill="#000000" style="font-size:18px">Set</text>
<text text-anchor="start" x="424.0" y="-173.25" fill="#000000" style="font-size:18px">D</text>
<path d="M 421,-153 L 428,-160 L 421,-167" stroke="#000000" stroke-width="1.4" fill="none"/>
<text text-anchor="start" x="431.0" y="-153.25" fill="#000000" style="font-size:18px">C</text>
<text text-anchor="start" x="424.0" y="-133.25" fill="#000000" style="font-size:18px">Clr</text>
<text text-anchor="end" x="476.0" y="-193.25" fill="#000000" style="font-size:18px">Q</text>
<text text-anchor="end" x="476.0" y="-173.25" fill="#000000" style="font-size:18px"><tspan style="text-decoration:overline;">Q</tspan></text>
<text text-anchor="middle" x="450.0" y="-112.5" fill="#000000" style="font-size:18px">D-AS</text>
<circle cx="420.0" cy="-200.0" r="2.0" stroke="#000000" stroke-width="2.8" fill="#000000" />
<circle cx="420.0" cy="-180.0" r="2.0" stroke="#000000" stroke-width="2.8" fill="#000000" />
<circle cx="420.0" cy="-160.0" r="2.0" stroke="#000000" stroke-width="2.8" fill="#000000" />
<circle cx="420.0" cy="-140.0" r="2.0" stroke="#000000" stroke-width="2.8" fill="#000000" />
<circle cx="480.0" cy="-200.0" r="2.0" stroke="#000000" stroke-width="2.8" fill="#000000" />
<circle cx="480.0" cy="-180.0" r="2.0" stroke="#000000" stroke-width="2.8" fill="#000000" />
</g>
<g>
<path d="M -39,-210 L 19,-210 L 19,-130 L -39,-130 Z" stroke="#000000" stroke-width="2.8" fill="none"/>
<text text-anchor="start" x="-36.0" y="-193.25" fill="#000000" style="font-size:18px">Set</text>
<text text-anchor="start" x="-36.0" y="-173.25" fill="#000000" style="font-size:18px">D</text>
<path d="M -39,-153 L -32,-160 L -39,-167" stroke="#000000" stroke-width="1.4" fill="none"/>
<text text-anchor="start" x="-29.0" y="-153.25" fill="#000000" style="font-size:18px">C</text>
<text text-anchor="start" x="-36.0" y="-133.25" fill="#000000" style="font-size:18px">Clr</text>
<text text-anchor="end" x="16.0" y="-193.25" fill="#000000" style="font-size:18px">Q</text>
<text text-anchor="end" x="16.0" y="-173.25" fill="#000000" style="font-size:18px"><tspan style="text-decoration:overline;">Q</tspan></text>
<text text-anchor="middle" x="-10.0" y="-112.5" fill="#000000" style="font-size:18px">D-AS</text>
<circle cx="-40.0" cy="-200.0" r="2.0" stroke="#000000" stroke-width="2.8" fill="#000000" />
<circle cx="-40.0" cy="-180.0" r="2.0" stroke="#000000" stroke-width="2.8" fill="#000000" />
<circle cx="-40.0" cy="-160.0" r="2.0" stroke="#000000" stroke-width="2.8" fill="#000000" />
<circle cx="-40.0" cy="-140.0" r="2.0" stroke="#000000" stroke-width="2.8" fill="#000000" />
<circle cx="20.0" cy="-200.0" r="2.0" stroke="#000000" stroke-width="2.8" fill="#000000" />
<circle cx="20.0" cy="-180.0" r="2.0" stroke="#000000" stroke-width="2.8" fill="#000000" />
</g>
<g>
<path d="M 701,-210 L 759,-210 L 759,-130 L 701,-130 Z" stroke="#000000" stroke-width="2.8" fill="none"/>
<text text-anchor="start" x="704.0" y="-193.25" fill="#000000" style="font-size:18px">Set</text>
<text text-anchor="start" x="704.0" y="-173.25" fill="#000000" style="font-size:18px">D</text>
<path d="M 701,-153 L 708,-160 L 701,-167" stroke="#000000" stroke-width="1.4" fill="none"/>
<text text-anchor="start" x="711.0" y="-153.25" fill="#000000" style="font-size:18px">C</text>
<text text-anchor="start" x="704.0" y="-133.25" fill="#000000" style="font-size:18px">Clr</text>
<text text-anchor="end" x="756.0" y="-193.25" fill="#000000" style="font-size:18px">Q</text>
<text text-anchor="end" x="756.0" y="-173.25" fill="#000000" style="font-size:18px"><tspan style="text-decoration:overline;">Q</tspan></text>
<text text-anchor="middle" x="730.0" y="-112.5" fill="#000000" style="font-size:18px">D-AS</text>
<circle cx="700.0" cy="-200.0" r="2.0" stroke="#000000" stroke-width="2.8" fill="#000000" />
<circle cx="700.0" cy="-180.0" r="2.0" stroke="#000000" stroke-width="2.8" fill="#000000" />
<circle cx="700.0" cy="-160.0" r="2.0" stroke="#000000" stroke-width="2.8" fill="#000000" />
<circle cx="700.0" cy="-140.0" r="2.0" stroke="#000000" stroke-width="2.8" fill="#000000" />
<circle cx="760.0" cy="-200.0" r="2.0" stroke="#000000" stroke-width="2.8" fill="#000000" />
<circle cx="760.0" cy="-180.0" r="2.0" stroke="#000000" stroke-width="2.8" fill="#000000" />
</g>
<g>
<path d="M -190,-190 L -210,-190 C -200,-206 -200,-234 -210,-250 L -190,-250 C -170,-250 -150,-240 -140,-220 C -150,-200 -170,-190 -190,-190 Z" stroke="#000000" stroke-width="2.8" fill="none"/>
<path d="M -220,-190 C -210,-200 -210,-240 -220,-250" stroke="#000000" stroke-width="2.8" fill="none"/>
<circle cx="-220.0" cy="-240.0" r="2.0" stroke="#000000" stroke-width="2.8" fill="#000000" />
<circle cx="-220.0" cy="-200.0" r="2.0" stroke="#000000" stroke-width="2.8" fill="#000000" />
<circle cx="-140.0" cy="-220.0" r="2.0" stroke="#000000" stroke-width="2.8" fill="#000000" />
</g>
<g>
<text text-anchor="end" x="-403.0" y="-191.0" fill="#000000" style="font-size:24px">0</text>
<circle cx="-400.0" cy="-200.0" r="2.0" stroke="#000000" stroke-width="2.8" fill="#000000" />
</g>
<g>
<text text-anchor="end" x="-63.0" y="-191.0" fill="#000000" style="font-size:24px">0</text>
<circle cx="-60.0" cy="-200.0" r="2.0" stroke="#000000" stroke-width="2.8" fill="#000000" />
</g>
<g>
<path d="M 750,-430 L 770,-430 C 760,-414 760,-386 770,-370 L 750,-370 C 730,-370 710,-380 700,-400 C 710,-420 730,-430 750,-430 Z" stroke="#000000" stroke-width="2.8" fill="none"/>
<path d="M 780,-430 C 770,-420 770,-380 780,-370" stroke="#000000" stroke-width="2.8" fill="none"/>
<circle cx="780.0" cy="-380.0" r="2.0" stroke="#000000" stroke-width="2.8" fill="#000000" />
<circle cx="780.0" cy="-420.0" r="2.0" stroke="#000000" stroke-width="2.8" fill="#000000" />
<circle cx="700.0" cy="-400.0" r="2.0" stroke="#000000" stroke-width="2.8" fill="#000000" />
</g>
<g>
<path d="M 750,50 L 780,50 C 770,66 770,94 780,110 L 760,110 C 730,110 710,100 700,80 C 710,60 730,50 750,50 Z" stroke="#000000" stroke-width="2.8" fill="none"/>
<circle cx="690.0" cy="80.0" r="9.0" stroke="#000000" stroke-width="2.8" fill="none" />
<circle cx="780.0" cy="100.0" r="2.0" stroke="#000000" stroke-width="2.8" fill="#000000" />
<circle cx="780.0" cy="60.0" r="2.0" stroke="#000000" stroke-width="2.8" fill="#000000" />
<circle cx="680.0" cy="80.0" r="2.0" stroke="#000000" stroke-width="2.8" fill="#000000" />
</g>
<g>
<path d="M 330,30 L 379,30 L 379,90 L 330,90 C 320,90 300,80 301,60 C 301,40 320,30 330,30 Z" stroke="#000000" stroke-width="2.8" fill="none"/>
<circle cx="380.0" cy="80.0" r="2.0" stroke="#000000" stroke-width="2.8" fill="#000000" />
<circle cx="380.0" cy="40.0" r="2.0" stroke="#000000" stroke-width="2.8" fill="#000000" />
<circle cx="300.0" cy="60.0" r="2.0" stroke="#000000" stroke-width="2.8" fill="#000000" />
</g>
<g>
<path d="M -280,-160 L -288,-146 L -272,-146 Z" stroke="#000000" stroke-width="2.8" fill="none"/>
<text text-anchor="end" x="-280.0" y="-134.25" fill="#000000" style="font-size:18px" transform="rotate(-90,-280.0,-141.0)" >o0</text>
<circle cx="-280.0" cy="-160.0" r="2.0" stroke="#000000" stroke-width="2.8" fill="#000000" />
</g>
<g>
<path d="M 60,-160 L 52,-146 L 68,-146 Z" stroke="#000000" stroke-width="2.8" fill="none"/>
<text text-anchor="end" x="60.0" y="-134.25" fill="#000000" style="font-size:18px" transform="rotate(-90,60.0,-141.0)" >o1</text>
<circle cx="60.0" cy="-160.0" r="2.0" stroke="#000000" stroke-width="2.8" fill="#000000" />
</g>
<g>
<path d="M 520,-160 L 512,-146 L 528,-146 Z" stroke="#000000" stroke-width="2.8" fill="none"/>
<text text-anchor="end" x="520.0" y="-134.25" fill="#000000" style="font-size:18px" transform="rotate(-90,520.0,-141.0)" >o2</text>
<circle cx="520.0" cy="-160.0" r="2.0" stroke="#000000" stroke-width="2.8" fill="#000000" />
</g>
<g>
<path d="M 800,-160 L 792,-146 L 808,-146 Z" stroke="#000000" stroke-width="2.8" fill="none"/>
<text text-anchor="end" x="800.0" y="-134.25" fill="#000000" style="font-size:18px" transform="rotate(-90,800.0,-141.0)" >o3</text>
<circle cx="800.0" cy="-160.0" r="2.0" stroke="#000000" stroke-width="2.8" fill="#000000" />
</g>
<g>
<path d="M -400,-160 L -414,-168 L -414,-152 Z" stroke="#000000" stroke-width="2.8" fill="none"/>
<text text-anchor="end" x="-419.0" y="-153.25" fill="#000000" style="font-size:18px">ck</text>
<circle cx="-400.0" cy="-160.0" r="2.0" stroke="#000000" stroke-width="2.8" fill="#000000" />
</g>
<g>
<path d="M -400,-140 L -414,-148 L -414,-132 Z" stroke="#000000" stroke-width="2.8" fill="none"/>
<text text-anchor="end" x="-419.0" y="-133.25" fill="#000000" style="font-size:18px">rst</text>
<circle cx="-400.0" cy="-140.0" r="2.0" stroke="#000000" stroke-width="2.8" fill="#000000" />
</g>
<g>
<path d="M -60,-160 L -74,-168 L -74,-152 Z" stroke="#000000" stroke-width="2.8" fill="none"/>
<text text-anchor="end" x="-79.0" y="-153.25" fill="#000000" style="font-size:18px">ck</text>
<circle cx="-60.0" cy="-160.0" r="2.0" stroke="#000000" stroke-width="2.8" fill="#000000" />
</g>
<g>
<path d="M -60,-140 L -74,-148 L -74,-132 Z" stroke="#000000" stroke-width="2.8" fill="none"/>
<text text-anchor="end" x="-79.0" y="-133.25" fill="#000000" style="font-size:18px">rst</text>
<circle cx="-60.0" cy="-140.0" r="2.0" stroke="#000000" stroke-width="2.8" fill="#000000" />
</g>
<g>
<text text-anchor="end" x="397.0" y="-191.0" fill="#000000" style="font-size:24px">0</text>
<circle cx="400.0" cy="-200.0" r="2.0" stroke="#000000" stroke-width="2.8" fill="#000000" />
</g>
<g>
<path d="M 400,-160 L 386,-168 L 386,-152 Z" stroke="#000000" stroke-width="2.8" fill="none"/>
<text text-anchor="end" x="381.0" y="-153.25" fill="#000000" style="font-size:18px">ck</text>
<circle cx="400.0" cy="-160.0" r="2.0" stroke="#000000" stroke-width="2.8" fill="#000000" />
</g>
<g>
<path d="M 400,-140 L 386,-148 L 386,-132 Z" stroke="#000000" stroke-width="2.8" fill="none"/>
<text text-anchor="end" x="381.0" y="-133.25" fill="#000000" style="font-size:18px">rst</text>
<circle cx="400.0" cy="-140.0" r="2.0" stroke="#000000" stroke-width="2.8" fill="#000000" />
</g>
<g>
<text text-anchor="end" x="677.0" y="-191.0" fill="#000000" style="font-size:24px">0</text>
<circle cx="680.0" cy="-200.0" r="2.0" stroke="#000000" stroke-width="2.8" fill="#000000" />
</g>
<g>
<path d="M 680,-160 L 666,-168 L 666,-152 Z" stroke="#000000" stroke-width="2.8" fill="none"/>
<text text-anchor="end" x="661.0" y="-153.25" fill="#000000" style="font-size:18px">ck</text>
<circle cx="680.0" cy="-160.0" r="2.0" stroke="#000000" stroke-width="2.8" fill="#000000" />
</g>
<g>
<path d="M 680,-140 L 666,-148 L 666,-132 Z" stroke="#000000" stroke-width="2.8" fill="none"/>
<text text-anchor="end" x="661.0" y="-133.25" fill="#000000" style="font-size:18px">rst</text>
<circle cx="680.0" cy="-140.0" r="2.0" stroke="#000000" stroke-width="2.8" fill="#000000" />
</g>
<g>
<path d="M -300,220 L -314,212 L -314,228 Z" stroke="#000000" stroke-width="2.8" fill="none"/>
<text text-anchor="end" x="-319.0" y="226.75" fill="#000000" style="font-size:18px">o4</text>
<circle cx="-300.0" cy="220.0" r="2.0" stroke="#000000" stroke-width="2.8" fill="#000000" />
</g>
<g>
<path d="M 981,-210 L 1039,-210 L 1039,-130 L 981,-130 Z" stroke="#000000" stroke-width="2.8" fill="none"/>
<text text-anchor="start" x="984.0" y="-193.25" fill="#000000" style="font-size:18px">Set</text>
<text text-anchor="start" x="984.0" y="-173.25" fill="#000000" style="font-size:18px">D</text>
<path d="M 981,-153 L 988,-160 L 981,-167" stroke="#000000" stroke-width="1.4" fill="none"/>
<text text-anchor="start" x="991.0" y="-153.25" fill="#000000" style="font-size:18px">C</text>
<text text-anchor="start" x="984.0" y="-133.25" fill="#000000" style="font-size:18px">Clr</text>
<text text-anchor="end" x="1036.0" y="-193.25" fill="#000000" style="font-size:18px">Q</text>
<text text-anchor="end" x="1036.0" y="-173.25" fill="#000000" style="font-size:18px"><tspan style="text-decoration:overline;">Q</tspan></text>
<text text-anchor="middle" x="1010.0" y="-112.5" fill="#000000" style="font-size:18px">D-AS</text>
<circle cx="980.0" cy="-200.0" r="2.0" stroke="#000000" stroke-width="2.8" fill="#000000" />
<circle cx="980.0" cy="-180.0" r="2.0" stroke="#000000" stroke-width="2.8" fill="#000000" />
<circle cx="980.0" cy="-160.0" r="2.0" stroke="#000000" stroke-width="2.8" fill="#000000" />
<circle cx="980.0" cy="-140.0" r="2.0" stroke="#000000" stroke-width="2.8" fill="#000000" />
<circle cx="1040.0" cy="-200.0" r="2.0" stroke="#000000" stroke-width="2.8" fill="#000000" />
<circle cx="1040.0" cy="-180.0" r="2.0" stroke="#000000" stroke-width="2.8" fill="#000000" />
</g>
<g>
<path d="M 1060,-160 L 1052,-146 L 1068,-146 Z" stroke="#000000" stroke-width="2.8" fill="none"/>
<text text-anchor="end" x="1060.0" y="-134.25" fill="#000000" style="font-size:18px" transform="rotate(-90,1060.0,-141.0)" >o4</text>
<circle cx="1060.0" cy="-160.0" r="2.0" stroke="#000000" stroke-width="2.8" fill="#000000" />
</g>
<g>
<text text-anchor="end" x="957.0" y="-191.0" fill="#000000" style="font-size:24px">0</text>
<circle cx="960.0" cy="-200.0" r="2.0" stroke="#000000" stroke-width="2.8" fill="#000000" />
</g>
<g>
<path d="M 960,-160 L 946,-168 L 946,-152 Z" stroke="#000000" stroke-width="2.8" fill="none"/>
<text text-anchor="end" x="941.0" y="-153.25" fill="#000000" style="font-size:18px">ck</text>
<circle cx="960.0" cy="-160.0" r="2.0" stroke="#000000" stroke-width="2.8" fill="#000000" />
</g>
<g>
<path d="M 960,-140 L 946,-148 L 946,-132 Z" stroke="#000000" stroke-width="2.8" fill="none"/>
<text text-anchor="end" x="941.0" y="-133.25" fill="#000000" style="font-size:18px">rst</text>
<circle cx="960.0" cy="-140.0" r="2.0" stroke="#000000" stroke-width="2.8" fill="#000000" />
</g>
<g>
<path d="M 270,-150 L 250,-150 C 260,-166 260,-194 250,-210 L 270,-210 C 290,-210 310,-200 320,-180 C 310,-160 290,-150 270,-150 Z" stroke="#000000" stroke-width="2.8" fill="none"/>
<path d="M 240,-150 C 250,-160 250,-200 240,-210" stroke="#000000" stroke-width="2.8" fill="none"/>
<circle cx="240.0" cy="-200.0" r="2.0" stroke="#000000" stroke-width="2.8" fill="#000000" />
<circle cx="240.0" cy="-160.0" r="2.0" stroke="#000000" stroke-width="2.8" fill="#000000" />
<circle cx="320.0" cy="-180.0" r="2.0" stroke="#000000" stroke-width="2.8" fill="#000000" />
</g>
<g>
<path d="M 130,-190 L 110,-190 C 120,-206 120,-234 110,-250 L 130,-250 C 150,-250 170,-240 180,-220 C 170,-200 150,-190 130,-190 Z" stroke="#000000" stroke-width="2.8" fill="none"/>
<path d="M 100,-190 C 110,-200 110,-240 100,-250" stroke="#000000" stroke-width="2.8" fill="none"/>
<circle cx="190.0" cy="-220.0" r="9.0" stroke="#000000" stroke-width="2.8" fill="none" />
<circle cx="100.0" cy="-240.0" r="2.0" stroke="#000000" stroke-width="2.8" fill="#000000" />
<circle cx="100.0" cy="-200.0" r="2.0" stroke="#000000" stroke-width="2.8" fill="#000000" />
<circle cx="200.0" cy="-220.0" r="2.0" stroke="#000000" stroke-width="2.8" fill="#000000" />
</g>
<g>
<path d="M 570,-370 L 590,-370 C 580,-354 580,-326 590,-310 L 570,-310 C 550,-310 530,-320 520,-340 C 530,-360 550,-370 570,-370 Z" stroke="#000000" stroke-width="2.8" fill="none"/>
<path d="M 600,-370 C 590,-360 590,-320 600,-310" stroke="#000000" stroke-width="2.8" fill="none"/>
<circle cx="600.0" cy="-320.0" r="2.0" stroke="#000000" stroke-width="2.8" fill="#000000" />
<circle cx="600.0" cy="-360.0" r="2.0" stroke="#000000" stroke-width="2.8" fill="#000000" />
<circle cx="520.0" cy="-340.0" r="2.0" stroke="#000000" stroke-width="2.8" fill="#000000" />
</g>
<g>
<path d="M 250,-30 L 250,-1 L 190,-1 L 190,-30 C 190,-40 200,-60 220,-59 C 240,-59 250,-40 250,-30 Z" stroke="#000000" stroke-width="2.8" fill="none"/>
<circle cx="200.0" cy="0.0" r="2.0" stroke="#000000" stroke-width="2.8" fill="#000000" />
<circle cx="240.0" cy="0.0" r="2.0" stroke="#000000" stroke-width="2.8" fill="#000000" />
<circle cx="220.0" cy="-60.0" r="2.0" stroke="#000000" stroke-width="2.8" fill="#000000" />
</g>
<g>
<path d="M -300,240 L -314,232 L -314,248 Z" stroke="#000000" stroke-width="2.8" fill="none"/>
<text text-anchor="end" x="-319.0" y="246.75" fill="#000000" style="font-size:18px">o5</text>
<circle cx="-300.0" cy="240.0" r="2.0" stroke="#000000" stroke-width="2.8" fill="#000000" />
</g>
<g>
<path d="M 1320,-200 L 1334,-192 L 1334,-208 Z" stroke="#000000" stroke-width="2.8" fill="none"/>
<text text-anchor="start" x="1339.0" y="-193.25" fill="#000000" style="font-size:18px">o5</text>
<circle cx="1320.0" cy="-200.0" r="2.0" stroke="#000000" stroke-width="2.8" fill="#000000" />
</g>
<g>
<path d="M 1221,-210 L 1279,-210 L 1279,-130 L 1221,-130 Z" stroke="#000000" stroke-width="2.8" fill="none"/>
<text text-anchor="start" x="1224.0" y="-193.25" fill="#000000" style="font-size:18px">Set</text>
<text text-anchor="start" x="1224.0" y="-173.25" fill="#000000" style="font-size:18px">D</text>
<path d="M 1221,-153 L 1228,-160 L 1221,-167" stroke="#000000" stroke-width="1.4" fill="none"/>
<text text-anchor="start" x="1231.0" y="-153.25" fill="#000000" style="font-size:18px">C</text>
<text text-anchor="start" x="1224.0" y="-133.25" fill="#000000" style="font-size:18px">Clr</text>
<text text-anchor="end" x="1276.0" y="-193.25" fill="#000000" style="font-size:18px">Q</text>
<text text-anchor="end" x="1276.0" y="-173.25" fill="#000000" style="font-size:18px"><tspan style="text-decoration:overline;">Q</tspan></text>
<text text-anchor="middle" x="1250.0" y="-112.5" fill="#000000" style="font-size:18px">D-AS</text>
<circle cx="1220.0" cy="-200.0" r="2.0" stroke="#000000" stroke-width="2.8" fill="#000000" />
<circle cx="1220.0" cy="-180.0" r="2.0" stroke="#000000" stroke-width="2.8" fill="#000000" />
<circle cx="1220.0" cy="-160.0" r="2.0" stroke="#000000" stroke-width="2.8" fill="#000000" />
<circle cx="1220.0" cy="-140.0" r="2.0" stroke="#000000" stroke-width="2.8" fill="#000000" />
<circle cx="1280.0" cy="-200.0" r="2.0" stroke="#000000" stroke-width="2.8" fill="#000000" />
<circle cx="1280.0" cy="-180.0" r="2.0" stroke="#000000" stroke-width="2.8" fill="#000000" />
</g>
<g>
<text text-anchor="end" x="1197.0" y="-191.0" fill="#000000" style="font-size:24px">0</text>
<circle cx="1200.0" cy="-200.0" r="2.0" stroke="#000000" stroke-width="2.8" fill="#000000" />
</g>
<g>
<path d="M 1200,-160 L 1186,-168 L 1186,-152 Z" stroke="#000000" stroke-width="2.8" fill="none"/>
<text text-anchor="end" x="1181.0" y="-153.25" fill="#000000" style="font-size:18px">ck</text>
<circle cx="1200.0" cy="-160.0" r="2.0" stroke="#000000" stroke-width="2.8" fill="#000000" />
</g>
<g>
<path d="M 1200,-140 L 1186,-148 L 1186,-132 Z" stroke="#000000" stroke-width="2.8" fill="none"/>
<text text-anchor="end" x="1181.0" y="-133.25" fill="#000000" style="font-size:18px">rst</text>
<circle cx="1200.0" cy="-140.0" r="2.0" stroke="#000000" stroke-width="2.8" fill="#000000" />
</g>
<g>
<path d="M 530,-10 L 560,-10 C 550,6 550,34 560,50 L 540,50 C 510,50 490,40 480,20 C 490,0 510,-10 530,-10 Z" stroke="#000000" stroke-width="2.8" fill="none"/>
<circle cx="470.0" cy="20.0" r="9.0" stroke="#000000" stroke-width="2.8" fill="none" />
<circle cx="560.0" cy="40.0" r="2.0" stroke="#000000" stroke-width="2.8" fill="#000000" />
<circle cx="560.0" cy="0.0" r="2.0" stroke="#000000" stroke-width="2.8" fill="#000000" />
<circle cx="460.0" cy="20.0" r="2.0" stroke="#000000" stroke-width="2.8" fill="#000000" />
</g>
</g>
</svg>