<?xml version="1.0" encoding="UTF-8" standalone="no"?>
<!-- Created with Digital by H.Neemann -->
<!-- created: Sat Apr 25 09:40:42 CEST 2020 -->

<svg
   xmlns:svg="http://www.w3.org/2000/svg"
   xmlns="http://www.w3.org/2000/svg"
   width="172.2mm"
   height="79.35mm"
   viewBox="-562 -332 1148 529">
<g stroke-linecap="square">
<path d="M -280,140 L -270,140 L -260,140" stroke="#000000" stroke-width="2.8" fill="none"/>
<path d="M -280,160 L -270,160" stroke="#000000" stroke-width="2.8" fill="none"/>
<path d="M -280,180 L -270,180" stroke="#000000" stroke-width="2.8" fill="none"/>
<path d="M -300,160 L -280,160" stroke="#000000" stroke-width="2.8" fill="none"/>
<path d="M 440,-100 L 460,-100" stroke="#000000" stroke-width="2.8" fill="none"/>
<path d="M -380,-100 L -360,-100" stroke="#000000" stroke-width="2.8" fill="none"/>
<path d="M 140,-100 L 160,-100" stroke="#000000" stroke-width="2.8" fill="none"/>
<path d="M 520,-140 L 540,-140 L 580,-140 L 580,-320 L 280,-320 L 266,-320" stroke="#000000" stroke-width="2.8" fill="none"/>
<path d="M -300,-140 L -280,-140 L -200,-140 L -186,-140" stroke="#000000" stroke-width="2.8" fill="none"/>
<path d="M 220,-140 L 240,-140 L 340,-140 L 340,-120 L 460,-120" stroke="#000000" stroke-width="2.8" fill="none"/>
<path d="M -380,-140 L -360,-140" stroke="#000000" stroke-width="2.8" fill="none"/>
<path d="M 140,-140 L 160,-140" stroke="#000000" stroke-width="2.8" fill="none"/>
<path d="M 440,-140 L 460,-140" stroke="#000000" stroke-width="2.8" fill="none"/>
<path d="M -260,140 L -220,140" stroke="#000000" stroke-width="2.8" fill="none"/>
<path d="M -300,140 L -280,140" stroke="#000000" stroke-width="2.8" fill="none"/>
<path d="M -460,140 L -440,140" stroke="#000000" stroke-width="2.8" fill="none"/>
<path d="M -380,-80 L -360,-80" stroke="#000000" stroke-width="2.8" fill="none"/>
<path d="M 140,-80 L 160,-80" stroke="#000000" stroke-width="2.8" fill="none"/>
<path d="M 440,-80 L 460,-80" stroke="#000000" stroke-width="2.8" fill="none"/>
<path d="M 256,-20 L 260,-20 L 340,-20 L 340,60 L -560,60 L -560,-140 L -520,-140 L -506,-140" stroke="#000000" stroke-width="2.8" fill="none"/>
<path d="M -300,180 L -280,180" stroke="#000000" stroke-width="2.8" fill="none"/>
<path d="M -460,180 L -440,180" stroke="#000000" stroke-width="2.8" fill="none"/>
<path d="M 256,20 L 260,20 L 580,20 L 580,-140" stroke="#000000" stroke-width="2.8" fill="none"/>
<path d="M 266,-280 L 280,-280 L 340,-280 L 340,-220 L -240,-220 L -240,-180 L -200,-180 L -186,-180" stroke="#000000" stroke-width="2.8" fill="none"/>
<path d="M 20,-120 L 160,-120" stroke="#000000" stroke-width="2.8" fill="none"/>
<path d="M -420,-160 L -400,-160 L -400,-120 L -360,-120" stroke="#000000" stroke-width="2.8" fill="none"/>
<path d="M -100,-160 L -80,-160 L -80,-140 L -60,-140 L -46,-140" stroke="#000000" stroke-width="2.8" fill="none"/>
<path d="M 240,-140 L 240,-120" stroke="#000000" stroke-width="2.8" fill="none"/>
<path d="M 340,-120 L 340,-20" stroke="#000000" stroke-width="2.8" fill="none"/>
<path d="M 340,-220 L 340,-140" stroke="#000000" stroke-width="2.8" fill="none"/>
<path d="M -280,-140 L -280,-120" stroke="#000000" stroke-width="2.8" fill="none"/>
<path d="M 540,-140 L 540,-120" stroke="#000000" stroke-width="2.8" fill="none"/>
<path d="M 160,0 L -80,0 L -80,-100 L -60,-100 L -46,-100" stroke="#000000" stroke-width="2.8" fill="none"/>
<path d="M 200,-300 L -560,-300 L -560,-180 L -520,-180 L -506,-180" stroke="#000000" stroke-width="2.8" fill="none"/>
<g>
<circle cx="540.0" cy="-140.0" r="4.0" stroke="#000000" stroke-width="2.8" fill="#000000" />
<circle cx="-280.0" cy="-140.0" r="4.0" stroke="#000000" stroke-width="2.8" fill="#000000" />
<circle cx="240.0" cy="-140.0" r="4.0" stroke="#000000" stroke-width="2.8" fill="#000000" />
<circle cx="340.0" cy="-140.0" r="4.0" stroke="#000000" stroke-width="2.8" fill="#000000" />
<circle cx="580.0" cy="-140.0" r="4.0" stroke="#000000" stroke-width="2.8" fill="#000000" />
<circle cx="340.0" cy="-20.0" r="4.0" stroke="#000000" stroke-width="2.8" fill="#000000" />
<circle cx="340.0" cy="-120.0" r="4.0" stroke="#000000" stroke-width="2.8" fill="#000000" />
<circle cx="340.0" cy="-220.0" r="4.0" stroke="#000000" stroke-width="2.8" fill="#000000" />
</g>
<g>
<path d="M -490,-130 L -510,-130 C -500,-146 -500,-174 -510,-190 L -490,-190 C -470,-190 -450,-180 -440,-160 C -450,-140 -470,-130 -490,-130 Z" stroke="#000000" stroke-width="2.8" fill="none"/>
<path d="M -520,-130 C -510,-140 -510,-180 -520,-190" stroke="#000000" stroke-width="2.8" fill="none"/>
<circle cx="-430.0" cy="-160.0" r="9.0" stroke="#000000" stroke-width="2.8" fill="none" />
<circle cx="-520.0" cy="-180.0" r="2.0" stroke="#000000" stroke-width="2.8" fill="#000000" />
<circle cx="-520.0" cy="-140.0" r="2.0" stroke="#000000" stroke-width="2.8" fill="#000000" />
<circle cx="-420.0" cy="-160.0" r="2.0" stroke="#000000" stroke-width="2.8" fill="#000000" />
</g>
<g>
<path d="M -359,-150 L -301,-150 L -301,-70 L -359,-70 Z" stroke="#000000" stroke-width="2.8" fill="none"/>
<text text-anchor="start" x="-356.0" y="-133.25" fill="#000000" style="font-size:18px">Set</text>
<text text-anchor="start" x="-356.0" y="-113.25" fill="#000000" style="font-size:18px">D</text>
<path d="M -359,-93 L -352,-100 L -359,-107" stroke="#000000" stroke-width="1.4" fill="none"/>
<text text-anchor="start" x="-349.0" y="-93.25" fill="#000000" style="font-size:18px">C</text>
<text text-anchor="start" x="-356.0" y="-73.25" fill="#000000" style="font-size:18px">Clr</text>
<text text-anchor="end" x="-304.0" y="-133.25" fill="#000000" style="font-size:18px">Q</text>
<text text-anchor="end" x="-304.0" y="-113.25" fill="#000000" style="font-size:18px"><tspan style="text-decoration:overline;">Q</tspan></text>
<text text-anchor="middle" x="-330.0" y="-52.5" fill="#000000" style="font-size:18px">D-AS</text>
<circle cx="-360.0" cy="-140.0" r="2.0" stroke="#000000" stroke-width="2.8" fill="#000000" />
<circle cx="-360.0" cy="-120.0" r="2.0" stroke="#000000" stroke-width="2.8" fill="#000000" />
<circle cx="-360.0" cy="-100.0" r="2.0" stroke="#000000" stroke-width="2.8" fill="#000000" />
<circle cx="-360.0" cy="-80.0" r="2.0" stroke="#000000" stroke-width="2.8" fill="#000000" />
<circle cx="-300.0" cy="-140.0" r="2.0" stroke="#000000" stroke-width="2.8" fill="#000000" />
<circle cx="-300.0" cy="-120.0" r="2.0" stroke="#000000" stroke-width="2.8" fill="#000000" />
</g>
<g>
<path d="M 461,-150 L 519,-150 L 519,-70 L 461,-70 Z" stroke="#000000" stroke-width="2.8" fill="none"/>
<text text-anchor="start" x="464.0" y="-133.25" fill="#000000" style="font-size:18px">Set</text>
<text text-anchor="start" x="464.0" y="-113.25" fill="#000000" style="font-size:18px">D</text>
<path d="M 461,-93 L 468,-100 L 461,-107" stroke="#000000" stroke-width="1.4" fill="none"/>
<text text-anchor="start" x="471.0" y="-93.25" fill="#000000" style="font-size:18px">C</text>
<text text-anchor="start" x="464.0" y="-73.25" fill="#000000" style="font-size:18px">Clr</text>
<text text-anchor="end" x="516.0" y="-133.25" fill="#000000" style="font-size:18px">Q</text>
<text text-anchor="end" x="516.0" y="-113.25" fill="#000000" style="font-size:18px"><tspan style="text-decoration:overline;">Q</tspan></text>
<text text-anchor="middle" x="490.0" y="-52.5" fill="#000000" style="font-size:18px">D-AS</text>
<circle cx="460.0" cy="-140.0" r="2.0" stroke="#000000" stroke-width="2.8" fill="#000000" />
<circle cx="460.0" cy="-120.0" r="2.0" stroke="#000000" stroke-width="2.8" fill="#000000" />
<circle cx="460.0" cy="-100.0" r="2.0" stroke="#000000" stroke-width="2.8" fill="#000000" />
<circle cx="460.0" cy="-80.0" r="2.0" stroke="#000000" stroke-width="2.8" fill="#000000" />
<circle cx="520.0" cy="-140.0" r="2.0" stroke="#000000" stroke-width="2.8" fill="#000000" />
<circle cx="520.0" cy="-120.0" r="2.0" stroke="#000000" stroke-width="2.8" fill="#000000" />
</g>
<g>
<path d="M 161,-150 L 219,-150 L 219,-70 L 161,-70 Z" stroke="#000000" stroke-width="2.8" fill="none"/>
<text text-anchor="start" x="164.0" y="-133.25" fill="#000000" style="font-size:18px">Set</text>
<text text-anchor="start" x="164.0" y="-113.25" fill="#000000" style="font-size:18px">D</text>
<path d="M 161,-93 L 168,-100 L 161,-107" stroke="#000000" stroke-width="1.4" fill="none"/>
<text text-anchor="start" x="171.0" y="-93.25" fill="#000000" style="font-size:18px">C</text>
<text text-anchor="start" x="164.0" y="-73.25" fill="#000000" style="font-size:18px">Clr</text>
<text text-anchor="end" x="216.0" y="-133.25" fill="#000000" style="font-size:18px">Q</text>
<text text-anchor="end" x="216.0" y="-113.25" fill="#000000" style="font-size:18px"><tspan style="text-decoration:overline;">Q</tspan></text>
<text text-anchor="middle" x="190.0" y="-52.5" fill="#000000" style="font-size:18px">D-AS</text>
<circle cx="160.0" cy="-140.0" r="2.0" stroke="#000000" stroke-width="2.8" fill="#000000" />
<circle cx="160.0" cy="-120.0" r="2.0" stroke="#000000" stroke-width="2.8" fill="#000000" />
<circle cx="160.0" cy="-100.0" r="2.0" stroke="#000000" stroke-width="2.8" fill="#000000" />
<circle cx="160.0" cy="-80.0" r="2.0" stroke="#000000" stroke-width="2.8" fill="#000000" />
<circle cx="220.0" cy="-140.0" r="2.0" stroke="#000000" stroke-width="2.8" fill="#000000" />
<circle cx="220.0" cy="-120.0" r="2.0" stroke="#000000" stroke-width="2.8" fill="#000000" />
</g>
<g>
<path d="M -491,125 L -461,125 L -461,155 L -491,155 Z" stroke="#000000" stroke-width="2.8" fill="none"/>
<circle cx="-476.0" cy="140.0" r="9.0" stroke="#000000" stroke-width="2.8" fill="none" />
<text text-anchor="end" x="-505.0" y="149.0" fill="#000000" style="font-size:24px"><tspan style="font-style:italic;">ck</tspan></text>
<circle cx="-460.0" cy="140.0" r="2.0" stroke="#000000" stroke-width="2.8" fill="#000000" />
</g>
<g>
<path d="M -491,165 L -461,165 L -461,195 L -491,195 Z" stroke="#000000" stroke-width="2.8" fill="none"/>
<circle cx="-476.0" cy="180.0" r="9.0" stroke="#000000" stroke-width="2.8" fill="none" />
<text text-anchor="end" x="-505.0" y="189.0" fill="#000000" style="font-size:24px"><tspan style="font-style:italic;">rst</tspan></text>
<circle cx="-460.0" cy="180.0" r="2.0" stroke="#000000" stroke-width="2.8" fill="#000000" />
</g>
<g>
<path d="M -30,-90 L -50,-90 C -40,-106 -40,-134 -50,-150 L -30,-150 C -10,-150 10,-140 20,-120 C 10,-100 -10,-90 -30,-90 Z" stroke="#000000" stroke-width="2.8" fill="none"/>
<path d="M -60,-90 C -50,-100 -50,-140 -60,-150" stroke="#000000" stroke-width="2.8" fill="none"/>
<circle cx="-60.0" cy="-140.0" r="2.0" stroke="#000000" stroke-width="2.8" fill="#000000" />
<circle cx="-60.0" cy="-100.0" r="2.0" stroke="#000000" stroke-width="2.8" fill="#000000" />
<circle cx="20.0" cy="-120.0" r="2.0" stroke="#000000" stroke-width="2.8" fill="#000000" />
</g>
<g>
<text text-anchor="end" x="-383.0" y="-131.0" fill="#000000" style="font-size:24px">0</text>
<circle cx="-380.0" cy="-140.0" r="2.0" stroke="#000000" stroke-width="2.8" fill="#000000" />
</g>
<g>
<text text-anchor="end" x="137.0" y="-131.0" fill="#000000" style="font-size:24px">0</text>
<circle cx="140.0" cy="-140.0" r="2.0" stroke="#000000" stroke-width="2.8" fill="#000000" />
</g>
<g>
<text text-anchor="end" x="437.0" y="-131.0" fill="#000000" style="font-size:24px">0</text>
<circle cx="440.0" cy="-140.0" r="2.0" stroke="#000000" stroke-width="2.8" fill="#000000" />
</g>
<g>
<path d="M 250,-330 L 270,-330 C 260,-314 260,-286 270,-270 L 250,-270 C 230,-270 210,-280 200,-300 C 210,-320 230,-330 250,-330 Z" stroke="#000000" stroke-width="2.8" fill="none"/>
<path d="M 280,-330 C 270,-320 270,-280 280,-270" stroke="#000000" stroke-width="2.8" fill="none"/>
<circle cx="280.0" cy="-280.0" r="2.0" stroke="#000000" stroke-width="2.8" fill="#000000" />
<circle cx="280.0" cy="-320.0" r="2.0" stroke="#000000" stroke-width="2.8" fill="#000000" />
<circle cx="200.0" cy="-300.0" r="2.0" stroke="#000000" stroke-width="2.8" fill="#000000" />
</g>
<g>
<path d="M -170,-130 L -190,-130 C -180,-146 -180,-174 -190,-190 L -170,-190 C -150,-190 -130,-180 -120,-160 C -130,-140 -150,-130 -170,-130 Z" stroke="#000000" stroke-width="2.8" fill="none"/>
<path d="M -200,-130 C -190,-140 -190,-180 -200,-190" stroke="#000000" stroke-width="2.8" fill="none"/>
<circle cx="-110.0" cy="-160.0" r="9.0" stroke="#000000" stroke-width="2.8" fill="none" />
<circle cx="-200.0" cy="-180.0" r="2.0" stroke="#000000" stroke-width="2.8" fill="#000000" />
<circle cx="-200.0" cy="-140.0" r="2.0" stroke="#000000" stroke-width="2.8" fill="#000000" />
<circle cx="-100.0" cy="-160.0" r="2.0" stroke="#000000" stroke-width="2.8" fill="#000000" />
</g>
<g>
<path d="M 230,-30 L 260,-30 C 250,-14 250,14 260,30 L 240,30 C 210,30 190,20 180,0 C 190,-20 210,-30 230,-30 Z" stroke="#000000" stroke-width="2.8" fill="none"/>
<circle cx="170.0" cy="0.0" r="9.0" stroke="#000000" stroke-width="2.8" fill="none" />
<circle cx="260.0" cy="20.0" r="2.0" stroke="#000000" stroke-width="2.8" fill="#000000" />
<circle cx="260.0" cy="-20.0" r="2.0" stroke="#000000" stroke-width="2.8" fill="#000000" />
<circle cx="160.0" cy="0.0" r="2.0" stroke="#000000" stroke-width="2.8" fill="#000000" />
</g>
<g>
<path d="M -440,140 L -426,148 L -426,132 Z" stroke="#000000" stroke-width="2.8" fill="none"/>
<text text-anchor="start" x="-421.0" y="146.75" fill="#000000" style="font-size:18px">ck</text>
<circle cx="-440.0" cy="140.0" r="2.0" stroke="#000000" stroke-width="2.8" fill="#000000" />
</g>
<g>
<path d="M -440,180 L -426,188 L -426,172 Z" stroke="#000000" stroke-width="2.8" fill="none"/>
<text text-anchor="start" x="-421.0" y="186.75" fill="#000000" style="font-size:18px">rst</text>
<circle cx="-440.0" cy="180.0" r="2.0" stroke="#000000" stroke-width="2.8" fill="#000000" />
</g>
<g>
<path d="M 440,-100 L 426,-108 L 426,-92 Z" stroke="#000000" stroke-width="2.8" fill="none"/>
<text text-anchor="end" x="421.0" y="-93.25" fill="#000000" style="font-size:18px">ck</text>
<circle cx="440.0" cy="-100.0" r="2.0" stroke="#000000" stroke-width="2.8" fill="#000000" />
</g>
<g>
<path d="M 440,-80 L 426,-88 L 426,-72 Z" stroke="#000000" stroke-width="2.8" fill="none"/>
<text text-anchor="end" x="421.0" y="-73.25" fill="#000000" style="font-size:18px">rst</text>
<circle cx="440.0" cy="-80.0" r="2.0" stroke="#000000" stroke-width="2.8" fill="#000000" />
</g>
<g>
<path d="M -380,-100 L -394,-108 L -394,-92 Z" stroke="#000000" stroke-width="2.8" fill="none"/>
<text text-anchor="end" x="-399.0" y="-93.25" fill="#000000" style="font-size:18px">ck</text>
<circle cx="-380.0" cy="-100.0" r="2.0" stroke="#000000" stroke-width="2.8" fill="#000000" />
</g>
<g>
<path d="M -380,-80 L -394,-88 L -394,-72 Z" stroke="#000000" stroke-width="2.8" fill="none"/>
<text text-anchor="end" x="-399.0" y="-73.25" fill="#000000" style="font-size:18px">rst</text>
<circle cx="-380.0" cy="-80.0" r="2.0" stroke="#000000" stroke-width="2.8" fill="#000000" />
</g>
<g>
<path d="M 140,-100 L 126,-108 L 126,-92 Z" stroke="#000000" stroke-width="2.8" fill="none"/>
<text text-anchor="end" x="121.0" y="-93.25" fill="#000000" style="font-size:18px">ck</text>
<circle cx="140.0" cy="-100.0" r="2.0" stroke="#000000" stroke-width="2.8" fill="#000000" />
</g>
<g>
<path d="M 140,-80 L 126,-88 L 126,-72 Z" stroke="#000000" stroke-width="2.8" fill="none"/>
<text text-anchor="end" x="121.0" y="-73.25" fill="#000000" style="font-size:18px">rst</text>
<circle cx="140.0" cy="-80.0" r="2.0" stroke="#000000" stroke-width="2.8" fill="#000000" />
</g>
<g>
<circle cx="-204.0" cy="140.0" r="9.0" stroke="#000000" stroke-width="2.8" fill="none" />
<circle cx="-204.0" cy="140.0" r="15.0" stroke="#000000" stroke-width="2.8" fill="none" />
<text text-anchor="start" x="-175.0" y="149.0" fill="#000000" style="font-size:24px"><tspan style="font-style:italic;">o</tspan></text>
<circle cx="-220.0" cy="140.0" r="2.0" stroke="#000000" stroke-width="2.8" fill="#000000" />
</g>
<g>
<text text-anchor="end" x="-282.0" y="137.0" fill="#000000" style="font-size:12px">0</text>
<text text-anchor="end" x="-282.0" y="157.0" fill="#000000" style="font-size:12px">1</text>
<text text-anchor="end" x="-282.0" y="177.0" fill="#000000" style="font-size:12px">2</text>
<text text-anchor="start" x="-258.0" y="137.0" fill="#000000" style="font-size:12px">0-2</text>
<path d="M -272,138 L -268,138 L -268,182 L -272,182 Z" stroke="#000000" stroke-width="2.8" fill="#000000" fill-opacity="1.0"/>
<circle cx="-280.0" cy="140.0" r="2.0" stroke="#000000" stroke-width="2.8" fill="#000000" />
<circle cx="-280.0" cy="160.0" r="2.0" stroke="#000000" stroke-width="2.8" fill="#000000" />
<circle cx="-280.0" cy="180.0" r="2.0" stroke="#000000" stroke-width="2.8" fill="#000000" />
<circle cx="-260.0" cy="140.0" r="2.0" stroke="#000000" stroke-width="2.8" fill="#000000" />
</g>
<g>
<path d="M -300,140 L -314,132 L -314,148 Z" stroke="#000000" stroke-width="2.8" fill="none"/>
<text text-anchor="end" x="-319.0" y="146.75" fill="#000000" style="font-size:18px">o0</text>
<circle cx="-300.0" cy="140.0" r="2.0" stroke="#000000" stroke-width="2.8" fill="#000000" />
</g>
<g>
<path d="M -300,160 L -314,152 L -314,168 Z" stroke="#000000" stroke-width="2.8" fill="none"/>
<text text-anchor="end" x="-319.0" y="166.75" fill="#000000" style="font-size:18px">o1</text>
<circle cx="-300.0" cy="160.0" r="2.0" stroke="#000000" stroke-width="2.8" fill="#000000" />
</g>
<g>
<path d="M -300,180 L -314,172 L -314,188 Z" stroke="#000000" stroke-width="2.8" fill="none"/>
<text text-anchor="end" x="-319.0" y="186.75" fill="#000000" style="font-size:18px">o2</text>
<circle cx="-300.0" cy="180.0" r="2.0" stroke="#000000" stroke-width="2.8" fill="#000000" />
</g>
<g>
<path d="M -280,-120 L -288,-106 L -272,-106 Z" stroke="#000000" stroke-width="2.8" fill="none"/>
<text text-anchor="end" x="-280.0" y="-94.25" fill="#000000" style="font-size:18px" transform="rotate(-90,-280.0,-101.0)" >o0</text>
<circle cx="-280.0" cy="-120.0" r="2.0" stroke="#000000" stroke-width="2.8" fill="#000000" />
</g>
<g>
<path d="M 240,-120 L 232,-106 L 248,-106 Z" stroke="#000000" stroke-width="2.8" fill="none"/>
<text text-anchor="end" x="240.0" y="-94.25" fill="#000000" style="font-size:18px" transform="rotate(-90,240.0,-101.0)" >o1</text>
<circle cx="240.0" cy="-120.0" r="2.0" stroke="#000000" stroke-width="2.8" fill="#000000" />
</g>
<g>
<path d="M 540,-120 L 532,-106 L 548,-106 Z" stroke="#000000" stroke-width="2.8" fill="none"/>
<text text-anchor="end" x="540.0" y="-94.25" fill="#000000" style="font-size:18px" transform="rotate(-90,540.0,-101.0)" >o2</text>
<circle cx="540.0" cy="-120.0" r="2.0" stroke="#000000" stroke-width="2.8" fill="#000000" />
</g>
</g>
</svg>