<?xml version="1.0" encoding="UTF-8" standalone="no"?>
<!-- Created with Digital by H.Neemann -->
<!-- created: Sat Apr 25 11:09:32 CEST 2020 -->

<svg
   xmlns:svg="http://www.w3.org/2000/svg"
   xmlns="http://www.w3.org/2000/svg"
   width="333.45mm"
   height="123.45mm"
   viewBox="-582 -472 2223 823">
<g stroke-linecap="square">
<path d="M -280,220 L -270,220 L -260,220" stroke="#000000" stroke-width="2.8" fill="none"/>
<path d="M -280,240 L -270,240" stroke="#000000" stroke-width="2.8" fill="none"/>
<path d="M -280,260 L -270,260" stroke="#000000" stroke-width="2.8" fill="none"/>
<path d="M -280,280 L -270,280" stroke="#000000" stroke-width="2.8" fill="none"/>
<path d="M -280,300 L -270,300" stroke="#000000" stroke-width="2.8" fill="none"/>
<path d="M -280,320 L -270,320" stroke="#000000" stroke-width="2.8" fill="none"/>
<path d="M -280,340 L -270,340" stroke="#000000" stroke-width="2.8" fill="none"/>
<path d="M -300,320 L -280,320" stroke="#000000" stroke-width="2.8" fill="none"/>
<path d="M -300,260 L -280,260" stroke="#000000" stroke-width="2.8" fill="none"/>
<path d="M -460,260 L -440,260" stroke="#000000" stroke-width="2.8" fill="none"/>
<path d="M 340,-200 L 380,-200 L 420,-200 L 434,-200" stroke="#000000" stroke-width="2.8" fill="none"/>
<path d="M 800,-200 L 840,-200 L 920,-200 L 920,-280" stroke="#000000" stroke-width="2.8" fill="none"/>
<path d="M -400,-200 L -380,-200" stroke="#000000" stroke-width="2.8" fill="none"/>
<path d="M -60,-200 L -40,-200" stroke="#000000" stroke-width="2.8" fill="none"/>
<path d="M 260,-200 L 280,-200" stroke="#000000" stroke-width="2.8" fill="none"/>
<path d="M 720,-200 L 740,-200" stroke="#000000" stroke-width="2.8" fill="none"/>
<path d="M 1000,-200 L 1020,-200" stroke="#000000" stroke-width="2.8" fill="none"/>
<path d="M 1240,-200 L 1260,-200" stroke="#000000" stroke-width="2.8" fill="none"/>
<path d="M 1480,-200 L 1500,-200" stroke="#000000" stroke-width="2.8" fill="none"/>
<path d="M 1560,-200 L 1580,-200 L 1600,-200" stroke="#000000" stroke-width="2.8" fill="none"/>
<path d="M -320,-200 L -280,-200 L -260,-200 L -220,-200 L -206,-200" stroke="#000000" stroke-width="2.8" fill="none"/>
<path d="M 1080,-200 L 1100,-200 L 1180,-200 L 1180,-320 L 1100,-320 L 1086,-320" stroke="#000000" stroke-width="2.8" fill="none"/>
<path d="M 20,-200 L 60,-200 L 100,-200 L 120,-200 L 134,-200" stroke="#000000" stroke-width="2.8" fill="none"/>
<path d="M 1320,-200 L 1340,-200 L 1360,-200 L 1440,-200 L 1440,-180 L 1500,-180" stroke="#000000" stroke-width="2.8" fill="none"/>
<path d="M 260,-140 L 280,-140" stroke="#000000" stroke-width="2.8" fill="none"/>
<path d="M -400,-140 L -380,-140" stroke="#000000" stroke-width="2.8" fill="none"/>
<path d="M -60,-140 L -40,-140" stroke="#000000" stroke-width="2.8" fill="none"/>
<path d="M 720,-140 L 740,-140" stroke="#000000" stroke-width="2.8" fill="none"/>
<path d="M 1000,-140 L 1020,-140" stroke="#000000" stroke-width="2.8" fill="none"/>
<path d="M 1240,-140 L 1260,-140" stroke="#000000" stroke-width="2.8" fill="none"/>
<path d="M 1480,-140 L 1500,-140" stroke="#000000" stroke-width="2.8" fill="none"/>
<path d="M 1306,-460 L 1320,-460 L 1580,-460 L 1580,-360 L 1100,-360 L 1086,-360" stroke="#000000" stroke-width="2.8" fill="none"/>
<path d="M 826,-400 L 840,-400 L 1360,-400 L 1360,-420 L 1320,-420 L 1306,-420" stroke="#000000" stroke-width="2.8" fill="none"/>
<path d="M 520,20 L 520,80 L 580,80" stroke="#000000" stroke-width="2.8" fill="none"/>
<path d="M 1136,80 L 1140,80 L 1360,80 L 1360,-200 L 1360,-400" stroke="#000000" stroke-width="2.8" fill="none"/>
<path d="M 360,80 L 480,80 L 480,20" stroke="#000000" stroke-width="2.8" fill="none"/>
<path d="M -300,340 L -280,340" stroke="#000000" stroke-width="2.8" fill="none"/>
<path d="M 836,20 L 840,20 L 920,20 L 920,-100 L -580,-100 L -580,-200 L -540,-200 L -526,-200" stroke="#000000" stroke-width="2.8" fill="none"/>
<path d="M -300,280 L -280,280" stroke="#000000" stroke-width="2.8" fill="none"/>
<path d="M -440,-220 L -420,-220 L -420,-180 L -380,-180" stroke="#000000" stroke-width="2.8" fill="none"/>
<path d="M -140,-220 L -120,-220 L -120,-180 L -40,-180" stroke="#000000" stroke-width="2.8" fill="none"/>
<path d="M 520,-220 L 540,-220 L 540,-200 L 560,-200 L 574,-200" stroke="#000000" stroke-width="2.8" fill="none"/>
<path d="M 200,-220 L 220,-220 L 220,-180 L 280,-180" stroke="#000000" stroke-width="2.8" fill="none"/>
<path d="M -260,220 L -220,220" stroke="#000000" stroke-width="2.8" fill="none"/>
<path d="M -300,220 L -280,220" stroke="#000000" stroke-width="2.8" fill="none"/>
<path d="M -460,220 L -440,220" stroke="#000000" stroke-width="2.8" fill="none"/>
<path d="M 1000,-160 L 1020,-160" stroke="#000000" stroke-width="2.8" fill="none"/>
<path d="M 260,-160 L 280,-160" stroke="#000000" stroke-width="2.8" fill="none"/>
<path d="M -400,-160 L -380,-160" stroke="#000000" stroke-width="2.8" fill="none"/>
<path d="M -60,-160 L -40,-160" stroke="#000000" stroke-width="2.8" fill="none"/>
<path d="M 720,-160 L 740,-160" stroke="#000000" stroke-width="2.8" fill="none"/>
<path d="M 1240,-160 L 1260,-160" stroke="#000000" stroke-width="2.8" fill="none"/>
<path d="M 1480,-160 L 1500,-160" stroke="#000000" stroke-width="2.8" fill="none"/>
<path d="M 500,-40 L 500,-160 L 560,-160 L 574,-160" stroke="#000000" stroke-width="2.8" fill="none"/>
<path d="M 660,100 L 1040,100" stroke="#000000" stroke-width="2.8" fill="none"/>
<path d="M -260,-200 L -260,100 L 280,100" stroke="#000000" stroke-width="2.8" fill="none"/>
<path d="M 826,-360 L 840,-360 L 920,-360 L 920,-280 L 400,-280 L 400,-240 L 420,-240 L 434,-240" stroke="#000000" stroke-width="2.8" fill="none"/>
<path d="M -300,300 L -280,300" stroke="#000000" stroke-width="2.8" fill="none"/>
<path d="M -300,240 L -280,240" stroke="#000000" stroke-width="2.8" fill="none"/>
<path d="M 920,-200 L 920,-180 L 1020,-180" stroke="#000000" stroke-width="2.8" fill="none"/>
<path d="M 1180,-200 L 1180,-180 L 1260,-180" stroke="#000000" stroke-width="2.8" fill="none"/>
<path d="M 640,-180 L 740,-180" stroke="#000000" stroke-width="2.8" fill="none"/>
<path d="M 1136,120 L 1140,120 L 1580,120 L 1580,-200 L 1580,-360" stroke="#000000" stroke-width="2.8" fill="none"/>
<path d="M 660,60 L 700,60 L 700,40 L 740,40" stroke="#000000" stroke-width="2.8" fill="none"/>
<path d="M 836,60 L 840,60 L 1180,60 L 1180,-180" stroke="#000000" stroke-width="2.8" fill="none"/>
<path d="M 100,-200 L 100,60 L 280,60" stroke="#000000" stroke-width="2.8" fill="none"/>
<path d="M -526,-240 L -540,-240 L -580,-240 L -580,-440 L 1240,-440" stroke="#000000" stroke-width="2.8" fill="none"/>
<path d="M 1020,-340 L 100,-340 L 100,-240 L 120,-240 L 134,-240" stroke="#000000" stroke-width="2.8" fill="none"/>
<path d="M 840,-200 L 840,-160" stroke="#000000" stroke-width="2.8" fill="none"/>
<path d="M 1100,-200 L 1100,-160" stroke="#000000" stroke-width="2.8" fill="none"/>
<path d="M -206,-240 L -220,-240 L -240,-240 L -240,-380 L 760,-380" stroke="#000000" stroke-width="2.8" fill="none"/>
<path d="M -280,-200 L -280,-160" stroke="#000000" stroke-width="2.8" fill="none"/>
<path d="M 920,-180 L 920,-100" stroke="#000000" stroke-width="2.8" fill="none"/>
<path d="M 380,-200 L 380,-160" stroke="#000000" stroke-width="2.8" fill="none"/>
<path d="M 1340,-200 L 1340,-180" stroke="#000000" stroke-width="2.8" fill="none"/>
<path d="M 60,-200 L 60,-160" stroke="#000000" stroke-width="2.8" fill="none"/>
<g>
<circle cx="380.0" cy="-200.0" r="4.0" stroke="#000000" stroke-width="2.8" fill="#000000" />
<circle cx="840.0" cy="-200.0" r="4.0" stroke="#000000" stroke-width="2.8" fill="#000000" />
<circle cx="1580.0" cy="-200.0" r="4.0" stroke="#000000" stroke-width="2.8" fill="#000000" />
<circle cx="-280.0" cy="-200.0" r="4.0" stroke="#000000" stroke-width="2.8" fill="#000000" />
<circle cx="1100.0" cy="-200.0" r="4.0" stroke="#000000" stroke-width="2.8" fill="#000000" />
<circle cx="60.0" cy="-200.0" r="4.0" stroke="#000000" stroke-width="2.8" fill="#000000" />
<circle cx="1340.0" cy="-200.0" r="4.0" stroke="#000000" stroke-width="2.8" fill="#000000" />
<circle cx="-260.0" cy="-200.0" r="4.0" stroke="#000000" stroke-width="2.8" fill="#000000" />
<circle cx="100.0" cy="-200.0" r="4.0" stroke="#000000" stroke-width="2.8" fill="#000000" />
<circle cx="1360.0" cy="-200.0" r="4.0" stroke="#000000" stroke-width="2.8" fill="#000000" />
<circle cx="1180.0" cy="-200.0" r="4.0" stroke="#000000" stroke-width="2.8" fill="#000000" />
<circle cx="920.0" cy="-200.0" r="4.0" stroke="#000000" stroke-width="2.8" fill="#000000" />
<circle cx="1360.0" cy="-400.0" r="4.0" stroke="#000000" stroke-width="2.8" fill="#000000" />
<circle cx="920.0" cy="-280.0" r="4.0" stroke="#000000" stroke-width="2.8" fill="#000000" />
<circle cx="920.0" cy="-100.0" r="4.0" stroke="#000000" stroke-width="2.8" fill="#000000" />
<circle cx="1580.0" cy="-360.0" r="4.0" stroke="#000000" stroke-width="2.8" fill="#000000" />
<circle cx="920.0" cy="-180.0" r="4.0" stroke="#000000" stroke-width="2.8" fill="#000000" />
<circle cx="1180.0" cy="-180.0" r="4.0" stroke="#000000" stroke-width="2.8" fill="#000000" />
</g>
<g>
<path d="M -491,205 L -461,205 L -461,235 L -491,235 Z" stroke="#000000" stroke-width="2.8" fill="none"/>
<circle cx="-476.0" cy="220.0" r="9.0" stroke="#000000" stroke-width="2.8" fill="none" />
<text text-anchor="end" x="-505.0" y="229.0" fill="#000000" style="font-size:24px"><tspan style="font-style:italic;">ck</tspan></text>
<circle cx="-460.0" cy="220.0" r="2.0" stroke="#000000" stroke-width="2.8" fill="#000000" />
</g>
<g>
<path d="M -491,245 L -461,245 L -461,275 L -491,275 Z" stroke="#000000" stroke-width="2.8" fill="none"/>
<circle cx="-476.0" cy="260.0" r="9.0" stroke="#000000" stroke-width="2.8" fill="none" />
<text text-anchor="end" x="-505.0" y="269.0" fill="#000000" style="font-size:24px"><tspan style="font-style:italic;">rst</tspan></text>
<circle cx="-460.0" cy="260.0" r="2.0" stroke="#000000" stroke-width="2.8" fill="#000000" />
</g>
<g>
<path d="M -440,220 L -426,228 L -426,212 Z" stroke="#000000" stroke-width="2.8" fill="none"/>
<text text-anchor="start" x="-421.0" y="226.75" fill="#000000" style="font-size:18px">ck</text>
<circle cx="-440.0" cy="220.0" r="2.0" stroke="#000000" stroke-width="2.8" fill="#000000" />
</g>
<g>
<path d="M -440,260 L -426,268 L -426,252 Z" stroke="#000000" stroke-width="2.8" fill="none"/>
<text text-anchor="start" x="-421.0" y="266.75" fill="#000000" style="font-size:18px">rst</text>
<circle cx="-440.0" cy="260.0" r="2.0" stroke="#000000" stroke-width="2.8" fill="#000000" />
</g>
<g>
<circle cx="-204.0" cy="220.0" r="9.0" stroke="#000000" stroke-width="2.8" fill="none" />
<circle cx="-204.0" cy="220.0" r="15.0" stroke="#000000" stroke-width="2.8" fill="none" />
<text text-anchor="start" x="-175.0" y="229.0" fill="#000000" style="font-size:24px"><tspan style="font-style:italic;">o</tspan></text>
<circle cx="-220.0" cy="220.0" r="2.0" stroke="#000000" stroke-width="2.8" fill="#000000" />
</g>
<g>
<text text-anchor="end" x="-282.0" y="217.0" fill="#000000" style="font-size:12px">0</text>
<text text-anchor="end" x="-282.0" y="237.0" fill="#000000" style="font-size:12px">1</text>
<text text-anchor="end" x="-282.0" y="257.0" fill="#000000" style="font-size:12px">2</text>
<text text-anchor="end" x="-282.0" y="277.0" fill="#000000" style="font-size:12px">3</text>
<text text-anchor="end" x="-282.0" y="297.0" fill="#000000" style="font-size:12px">4</text>
<text text-anchor="end" x="-282.0" y="317.0" fill="#000000" style="font-size:12px">5</text>
<text text-anchor="end" x="-282.0" y="337.0" fill="#000000" style="font-size:12px">6</text>
<text text-anchor="start" x="-258.0" y="217.0" fill="#000000" style="font-size:12px">0-6</text>
<path d="M -272,218 L -268,218 L -268,342 L -272,342 Z" stroke="#000000" stroke-width="2.8" fill="#000000" fill-opacity="1.0"/>
<circle cx="-280.0" cy="220.0" r="2.0" stroke="#000000" stroke-width="2.8" fill="#000000" />
<circle cx="-280.0" cy="240.0" r="2.0" stroke="#000000" stroke-width="2.8" fill="#000000" />
<circle cx="-280.0" cy="260.0" r="2.0" stroke="#000000" stroke-width="2.8" fill="#000000" />
<circle cx="-280.0" cy="280.0" r="2.0" stroke="#000000" stroke-width="2.8" fill="#000000" />
<circle cx="-280.0" cy="300.0" r="2.0" stroke="#000000" stroke-width="2.8" fill="#000000" />
<circle cx="-280.0" cy="320.0" r="2.0" stroke="#000000" stroke-width="2.8" fill="#000000" />
<circle cx="-280.0" cy="340.0" r="2.0" stroke="#000000" stroke-width="2.8" fill="#000000" />
<circle cx="-260.0" cy="220.0" r="2.0" stroke="#000000" stroke-width="2.8" fill="#000000" />
</g>
<g>
<path d="M -300,220 L -314,212 L -314,228 Z" stroke="#000000" stroke-width="2.8" fill="none"/>
<text text-anchor="end" x="-319.0" y="226.75" fill="#000000" style="font-size:18px">o0</text>
<circle cx="-300.0" cy="220.0" r="2.0" stroke="#000000" stroke-width="2.8" fill="#000000" />
</g>
<g>
<path d="M -300,240 L -314,232 L -314,248 Z" stroke="#000000" stroke-width="2.8" fill="none"/>
<text text-anchor="end" x="-319.0" y="246.75" fill="#000000" style="font-size:18px">o1</text>
<circle cx="-300.0" cy="240.0" r="2.0" stroke="#000000" stroke-width="2.8" fill="#000000" />
</g>
<g>
<path d="M -300,260 L -314,252 L -314,268 Z" stroke="#000000" stroke-width="2.8" fill="none"/>
<text text-anchor="end" x="-319.0" y="266.75" fill="#000000" style="font-size:18px">o2</text>
<circle cx="-300.0" cy="260.0" r="2.0" stroke="#000000" stroke-width="2.8" fill="#000000" />
</g>
<g>
<path d="M -300,280 L -314,272 L -314,288 Z" stroke="#000000" stroke-width="2.8" fill="none"/>
<text text-anchor="end" x="-319.0" y="286.75" fill="#000000" style="font-size:18px">o3</text>
<circle cx="-300.0" cy="280.0" r="2.0" stroke="#000000" stroke-width="2.8" fill="#000000" />
</g>
<g>
<path d="M -510,-190 L -530,-190 C -520,-206 -520,-234 -530,-250 L -510,-250 C -490,-250 -470,-240 -460,-220 C -470,-200 -490,-190 -510,-190 Z" stroke="#000000" stroke-width="2.8" fill="none"/>
<path d="M -540,-190 C -530,-200 -530,-240 -540,-250" stroke="#000000" stroke-width="2.8" fill="none"/>
<circle cx="-450.0" cy="-220.0" r="9.0" stroke="#000000" stroke-width="2.8" fill="none" />
<circle cx="-540.0" cy="-240.0" r="2.0" stroke="#000000" stroke-width="2.8" fill="#000000" />
<circle cx="-540.0" cy="-200.0" r="2.0" stroke="#000000" stroke-width="2.8" fill="#000000" />
<circle cx="-440.0" cy="-220.0" r="2.0" stroke="#000000" stroke-width="2.8" fill="#000000" />
</g>
<g>
<path d="M -379,-210 L -321,-210 L -321,-130 L -379,-130 Z" stroke="#000000" stroke-width="2.8" fill="none"/>
<text text-anchor="start" x="-376.0" y="-193.25" fill="#000000" style="font-size:18px">Set</text>
<text text-anchor="start" x="-376.0" y="-173.25" fill="#000000" style="font-size:18px">D</text>
<path d="M -379,-153 L -372,-160 L -379,-167" stroke="#000000" stroke-width="1.4" fill="none"/>
<text text-anchor="start" x="-369.0" y="-153.25" fill="#000000" style="font-size:18px">C</text>
<text text-anchor="start" x="-376.0" y="-133.25" fill="#000000" style="font-size:18px">Clr</text>
<text text-anchor="end" x="-324.0" y="-193.25" fill="#000000" style="font-size:18px">Q</text>
<text text-anchor="end" x="-324.0" y="-173.25" fill="#000000" style="font-size:18px"><tspan style="text-decoration:overline;">Q</tspan></text>
<text text-anchor="middle" x="-350.0" y="-112.5" fill="#000000" style="font-size:18px">D-AS</text>
<circle cx="-380.0" cy="-200.0" r="2.0" stroke="#000000" stroke-width="2.8" fill="#000000" />
<circle cx="-380.0" cy="-180.0" r="2.0" stroke="#000000" stroke-width="2.8" fill="#000000" />
<circle cx="-380.0" cy="-160.0" r="2.0" stroke="#000000" stroke-width="2.8" fill="#000000" />
<circle cx="-380.0" cy="-140.0" r="2.0" stroke="#000000" stroke-width="2.8" fill="#000000" />
<circle cx="-320.0" cy="-200.0" r="2.0" stroke="#000000" stroke-width="2.8" fill="#000000" />
<circle cx="-320.0" cy="-180.0" r="2.0" stroke="#000000" stroke-width="2.8" fill="#000000" />
</g>
<g>
<path d="M 281,-210 L 339,-210 L 339,-130 L 281,-130 Z" stroke="#000000" stroke-width="2.8" fill="none"/>
<text text-anchor="start" x="284.0" y="-193.25" fill="#000000" style="font-size:18px">Set</text>
<text text-anchor="start" x="284.0" y="-173.25" fill="#000000" style="font-size:18px">D</text>
<path d="M 281,-153 L 288,-160 L 281,-167" stroke="#000000" stroke-width="1.4" fill="none"/>
<text text-anchor="start" x="291.0" y="-153.25" fill="#000000" style="font-size:18px">C</text>
<text text-anchor="start" x="284.0" y="-133.25" fill="#000000" style="font-size:18px">Clr</text>
<text text-anchor="end" x="336.0" y="-193.25" fill="#000000" style="font-size:18px">Q</text>
<text text-anchor="end" x="336.0" y="-173.25" fill="#000000" style="font-size:18px"><tspan style="text-decoration:overline;">Q</tspan></text>
<text text-anchor="middle" x="310.0" y="-112.5" fill="#000000" style="font-size:18px">D-AS</text>
<circle cx="280.0" cy="-200.0" r="2.0" stroke="#000000" stroke-width="2.8" fill="#000000" />
<circle cx="280.0" cy="-180.0" r="2.0" stroke="#000000" stroke-width="2.8" fill="#000000" />
<circle cx="280.0" cy="-160.0" r="2.0" stroke="#000000" stroke-width="2.8" fill="#000000" />
<circle cx="280.0" cy="-140.0" r="2.0" stroke="#000000" stroke-width="2.8" fill="#000000" />
<circle cx="340.0" cy="-200.0" r="2.0" stroke="#000000" stroke-width="2.8" fill="#000000" />
<circle cx="340.0" cy="-180.0" r="2.0" stroke="#000000" stroke-width="2.8" fill="#000000" />
</g>
<g>
<path d="M -39,-210 L 19,-210 L 19,-130 L -39,-130 Z" stroke="#000000" stroke-width="2.8" fill="none"/>
<text text-anchor="start" x="-36.0" y="-193.25" fill="#000000" style="font-size:18px">Set</text>
<text text-anchor="start" x="-36.0" y="-173.25" fill="#000000" style="font-size:18px">D</text>
<path d="M -39,-153 L -32,-160 L -39,-167" stroke="#000000" stroke-width="1.4" fill="none"/>
<text text-anchor="start" x="-29.0" y="-153.25" fill="#000000" style="font-size:18px">C</text>
<text text-anchor="start" x="-36.0" y="-133.25" fill="#000000" style="font-size:18px">Clr</text>
<text text-anchor="end" x="16.0" y="-193.25" fill="#000000" style="font-size:18px">Q</text>
<text text-anchor="end" x="16.0" y="-173.25" fill="#000000" style="font-size:18px"><tspan style="text-decoration:overline;">Q</tspan></text>
<text text-anchor="middle" x="-10.0" y="-112.5" fill="#000000" style="font-size:18px">D-AS</text>
<circle cx="-40.0" cy="-200.0" r="2.0" stroke="#000000" stroke-width="2.8" fill="#000000" />
<circle cx="-40.0" cy="-180.0" r="2.0" stroke="#000000" stroke-width="2.8" fill="#000000" />
<circle cx="-40.0" cy="-160.0" r="2.0" stroke="#000000" stroke-width="2.8" fill="#000000" />
<circle cx="-40.0" cy="-140.0" r="2.0" stroke="#000000" stroke-width="2.8" fill="#000000" />
<circle cx="20.0" cy="-200.0" r="2.0" stroke="#000000" stroke-width="2.8" fill="#000000" />
<circle cx="20.0" cy="-180.0" r="2.0" stroke="#000000" stroke-width="2.8" fill="#000000" />
</g>
<g>
<path d="M 741,-210 L 799,-210 L 799,-130 L 741,-130 Z" stroke="#000000" stroke-width="2.8" fill="none"/>
<text text-anchor="start" x="744.0" y="-193.25" fill="#000000" style="font-size:18px">Set</text>
<text text-anchor="start" x="744.0" y="-173.25" fill="#000000" style="font-size:18px">D</text>
<path d="M 741,-153 L 748,-160 L 741,-167" stroke="#000000" stroke-width="1.4" fill="none"/>
<text text-anchor="start" x="751.0" y="-153.25" fill="#000000" style="font-size:18px">C</text>
<text text-anchor="start" x="744.0" y="-133.25" fill="#000000" style="font-size:18px">Clr</text>
<text text-anchor="end" x="796.0" y="-193.25" fill="#000000" style="font-size:18px">Q</text>
<text text-anchor="end" x="796.0" y="-173.25" fill="#000000" style="font-size:18px"><tspan style="text-decoration:overline;">Q</tspan></text>
<text text-anchor="middle" x="770.0" y="-112.5" fill="#000000" style="font-size:18px">D-AS</text>
<circle cx="740.0" cy="-200.0" r="2.0" stroke="#000000" stroke-width="2.8" fill="#000000" />
<circle cx="740.0" cy="-180.0" r="2.0" stroke="#000000" stroke-width="2.8" fill="#000000" />
<circle cx="740.0" cy="-160.0" r="2.0" stroke="#000000" stroke-width="2.8" fill="#000000" />
<circle cx="740.0" cy="-140.0" r="2.0" stroke="#000000" stroke-width="2.8" fill="#000000" />
<circle cx="800.0" cy="-200.0" r="2.0" stroke="#000000" stroke-width="2.8" fill="#000000" />
<circle cx="800.0" cy="-180.0" r="2.0" stroke="#000000" stroke-width="2.8" fill="#000000" />
</g>
<g>
<path d="M -190,-190 L -210,-190 C -200,-206 -200,-234 -210,-250 L -190,-250 C -170,-250 -150,-240 -140,-220 C -150,-200 -170,-190 -190,-190 Z" stroke="#000000" stroke-width="2.8" fill="none"/>
<path d="M -220,-190 C -210,-200 -210,-240 -220,-250" stroke="#000000" stroke-width="2.8" fill="none"/>
<circle cx="-220.0" cy="-240.0" r="2.0" stroke="#000000" stroke-width="2.8" fill="#000000" />
<circle cx="-220.0" cy="-200.0" r="2.0" stroke="#000000" stroke-width="2.8" fill="#000000" />
<circle cx="-140.0" cy="-220.0" r="2.0" stroke="#000000" stroke-width="2.8" fill="#000000" />
</g>
<g>
<text text-anchor="end" x="-403.0" y="-191.0" fill="#000000" style="font-size:24px">0</text>
<circle cx="-400.0" cy="-200.0" r="2.0" stroke="#000000" stroke-width="2.8" fill="#000000" />
</g>
<g>
<text text-anchor="end" x="-63.0" y="-191.0" fill="#000000" style="font-size:24px">0</text>
<circle cx="-60.0" cy="-200.0" r="2.0" stroke="#000000" stroke-width="2.8" fill="#000000" />
</g>
<g>
<path d="M 1290,-470 L 1310,-470 C 1300,-454 1300,-426 1310,-410 L 1290,-410 C 1270,-410 1250,-420 1240,-440 C 1250,-460 1270,-470 1290,-470 Z" stroke="#000000" stroke-width="2.8" fill="none"/>
<path d="M 1320,-470 C 1310,-460 1310,-420 1320,-410" stroke="#000000" stroke-width="2.8" fill="none"/>
<circle cx="1320.0" cy="-420.0" r="2.0" stroke="#000000" stroke-width="2.8" fill="#000000" />
<circle cx="1320.0" cy="-460.0" r="2.0" stroke="#000000" stroke-width="2.8" fill="#000000" />
<circle cx="1240.0" cy="-440.0" r="2.0" stroke="#000000" stroke-width="2.8" fill="#000000" />
</g>
<g>
<path d="M 1110,70 L 1140,70 C 1130,86 1130,114 1140,130 L 1120,130 C 1090,130 1070,120 1060,100 C 1070,80 1090,70 1110,70 Z" stroke="#000000" stroke-width="2.8" fill="none"/>
<circle cx="1050.0" cy="100.0" r="9.0" stroke="#000000" stroke-width="2.8" fill="none" />
<circle cx="1140.0" cy="120.0" r="2.0" stroke="#000000" stroke-width="2.8" fill="#000000" />
<circle cx="1140.0" cy="80.0" r="2.0" stroke="#000000" stroke-width="2.8" fill="#000000" />
<circle cx="1040.0" cy="100.0" r="2.0" stroke="#000000" stroke-width="2.8" fill="#000000" />
</g>
<g>
<path d="M 610,50 L 659,50 L 659,110 L 610,110 C 600,110 580,100 581,80 C 581,60 600,50 610,50 Z" stroke="#000000" stroke-width="2.8" fill="none"/>
<circle cx="660.0" cy="100.0" r="2.0" stroke="#000000" stroke-width="2.8" fill="#000000" />
<circle cx="660.0" cy="60.0" r="2.0" stroke="#000000" stroke-width="2.8" fill="#000000" />
<circle cx="580.0" cy="80.0" r="2.0" stroke="#000000" stroke-width="2.8" fill="#000000" />
</g>
<g>
<path d="M -280,-160 L -288,-146 L -272,-146 Z" stroke="#000000" stroke-width="2.8" fill="none"/>
<text text-anchor="end" x="-280.0" y="-134.25" fill="#000000" style="font-size:18px" transform="rotate(-90,-280.0,-141.0)" >o0</text>
<circle cx="-280.0" cy="-160.0" r="2.0" stroke="#000000" stroke-width="2.8" fill="#000000" />
</g>
<g>
<path d="M 60,-160 L 52,-146 L 68,-146 Z" stroke="#000000" stroke-width="2.8" fill="none"/>
<text text-anchor="end" x="60.0" y="-134.25" fill="#000000" style="font-size:18px" transform="rotate(-90,60.0,-141.0)" >o1</text>
<circle cx="60.0" cy="-160.0" r="2.0" stroke="#000000" stroke-width="2.8" fill="#000000" />
</g>
<g>
<path d="M 380,-160 L 372,-146 L 388,-146 Z" stroke="#000000" stroke-width="2.8" fill="none"/>
<text text-anchor="end" x="380.0" y="-134.25" fill="#000000" style="font-size:18px" transform="rotate(-90,380.0,-141.0)" >o2</text>
<circle cx="380.0" cy="-160.0" r="2.0" stroke="#000000" stroke-width="2.8" fill="#000000" />
</g>
<g>
<path d="M 840,-160 L 832,-146 L 848,-146 Z" stroke="#000000" stroke-width="2.8" fill="none"/>
<text text-anchor="end" x="840.0" y="-134.25" fill="#000000" style="font-size:18px" transform="rotate(-90,840.0,-141.0)" >o3</text>
<circle cx="840.0" cy="-160.0" r="2.0" stroke="#000000" stroke-width="2.8" fill="#000000" />
</g>
<g>
<path d="M -400,-160 L -414,-168 L -414,-152 Z" stroke="#000000" stroke-width="2.8" fill="none"/>
<text text-anchor="end" x="-419.0" y="-153.25" fill="#000000" style="font-size:18px">ck</text>
<circle cx="-400.0" cy="-160.0" r="2.0" stroke="#000000" stroke-width="2.8" fill="#000000" />
</g>
<g>
<path d="M -400,-140 L -414,-148 L -414,-132 Z" stroke="#000000" stroke-width="2.8" fill="none"/>
<text text-anchor="end" x="-419.0" y="-133.25" fill="#000000" style="font-size:18px">rst</text>
<circle cx="-400.0" cy="-140.0" r="2.0" stroke="#000000" stroke-width="2.8" fill="#000000" />
</g>
<g>
<path d="M -60,-160 L -74,-168 L -74,-152 Z" stroke="#000000" stroke-width="2.8" fill="none"/>
<text text-anchor="end" x="-79.0" y="-153.25" fill="#000000" style="font-size:18px">ck</text>
<circle cx="-60.0" cy="-160.0" r="2.0" stroke="#000000" stroke-width="2.8" fill="#000000" />
</g>
<g>
<path d="M -60,-140 L -74,-148 L -74,-132 Z" stroke="#000000" stroke-width="2.8" fill="none"/>
<text text-anchor="end" x="-79.0" y="-133.25" fill="#000000" style="font-size:18px">rst</text>
<circle cx="-60.0" cy="-140.0" r="2.0" stroke="#000000" stroke-width="2.8" fill="#000000" />
</g>
<g>
<text text-anchor="end" x="257.0" y="-191.0" fill="#000000" style="font-size:24px">0</text>
<circle cx="260.0" cy="-200.0" r="2.0" stroke="#000000" stroke-width="2.8" fill="#000000" />
</g>
<g>
<path d="M 260,-160 L 246,-168 L 246,-152 Z" stroke="#000000" stroke-width="2.8" fill="none"/>
<text text-anchor="end" x="241.0" y="-153.25" fill="#000000" style="font-size:18px">ck</text>
<circle cx="260.0" cy="-160.0" r="2.0" stroke="#000000" stroke-width="2.8" fill="#000000" />
</g>
<g>
<path d="M 260,-140 L 246,-148 L 246,-132 Z" stroke="#000000" stroke-width="2.8" fill="none"/>
<text text-anchor="end" x="241.0" y="-133.25" fill="#000000" style="font-size:18px">rst</text>
<circle cx="260.0" cy="-140.0" r="2.0" stroke="#000000" stroke-width="2.8" fill="#000000" />
</g>
<g>
<text text-anchor="end" x="717.0" y="-191.0" fill="#000000" style="font-size:24px">0</text>
<circle cx="720.0" cy="-200.0" r="2.0" stroke="#000000" stroke-width="2.8" fill="#000000" />
</g>
<g>
<path d="M 720,-160 L 706,-168 L 706,-152 Z" stroke="#000000" stroke-width="2.8" fill="none"/>
<text text-anchor="end" x="701.0" y="-153.25" fill="#000000" style="font-size:18px">ck</text>
<circle cx="720.0" cy="-160.0" r="2.0" stroke="#000000" stroke-width="2.8" fill="#000000" />
</g>
<g>
<path d="M 720,-140 L 706,-148 L 706,-132 Z" stroke="#000000" stroke-width="2.8" fill="none"/>
<text text-anchor="end" x="701.0" y="-133.25" fill="#000000" style="font-size:18px">rst</text>
<circle cx="720.0" cy="-140.0" r="2.0" stroke="#000000" stroke-width="2.8" fill="#000000" />
</g>
<g>
<path d="M -300,300 L -314,292 L -314,308 Z" stroke="#000000" stroke-width="2.8" fill="none"/>
<text text-anchor="end" x="-319.0" y="306.75" fill="#000000" style="font-size:18px">o4</text>
<circle cx="-300.0" cy="300.0" r="2.0" stroke="#000000" stroke-width="2.8" fill="#000000" />
</g>
<g>
<path d="M 1021,-210 L 1079,-210 L 1079,-130 L 1021,-130 Z" stroke="#000000" stroke-width="2.8" fill="none"/>
<text text-anchor="start" x="1024.0" y="-193.25" fill="#000000" style="font-size:18px">Set</text>
<text text-anchor="start" x="1024.0" y="-173.25" fill="#000000" style="font-size:18px">D</text>
<path d="M 1021,-153 L 1028,-160 L 1021,-167" stroke="#000000" stroke-width="1.4" fill="none"/>
<text text-anchor="start" x="1031.0" y="-153.25" fill="#000000" style="font-size:18px">C</text>
<text text-anchor="start" x="1024.0" y="-133.25" fill="#000000" style="font-size:18px">Clr</text>
<text text-anchor="end" x="1076.0" y="-193.25" fill="#000000" style="font-size:18px">Q</text>
<text text-anchor="end" x="1076.0" y="-173.25" fill="#000000" style="font-size:18px"><tspan style="text-decoration:overline;">Q</tspan></text>
<text text-anchor="middle" x="1050.0" y="-112.5" fill="#000000" style="font-size:18px">D-AS</text>
<circle cx="1020.0" cy="-200.0" r="2.0" stroke="#000000" stroke-width="2.8" fill="#000000" />
<circle cx="1020.0" cy="-180.0" r="2.0" stroke="#000000" stroke-width="2.8" fill="#000000" />
<circle cx="1020.0" cy="-160.0" r="2.0" stroke="#000000" stroke-width="2.8" fill="#000000" />
<circle cx="1020.0" cy="-140.0" r="2.0" stroke="#000000" stroke-width="2.8" fill="#000000" />
<circle cx="1080.0" cy="-200.0" r="2.0" stroke="#000000" stroke-width="2.8" fill="#000000" />
<circle cx="1080.0" cy="-180.0" r="2.0" stroke="#000000" stroke-width="2.8" fill="#000000" />
</g>
<g>
<path d="M 1100,-160 L 1092,-146 L 1108,-146 Z" stroke="#000000" stroke-width="2.8" fill="none"/>
<text text-anchor="end" x="1100.0" y="-134.25" fill="#000000" style="font-size:18px" transform="rotate(-90,1100.0,-141.0)" >o4</text>
<circle cx="1100.0" cy="-160.0" r="2.0" stroke="#000000" stroke-width="2.8" fill="#000000" />
</g>
<g>
<text text-anchor="end" x="997.0" y="-191.0" fill="#000000" style="font-size:24px">0</text>
<circle cx="1000.0" cy="-200.0" r="2.0" stroke="#000000" stroke-width="2.8" fill="#000000" />
</g>
<g>
<path d="M 1000,-160 L 986,-168 L 986,-152 Z" stroke="#000000" stroke-width="2.8" fill="none"/>
<text text-anchor="end" x="981.0" y="-153.25" fill="#000000" style="font-size:18px">ck</text>
<circle cx="1000.0" cy="-160.0" r="2.0" stroke="#000000" stroke-width="2.8" fill="#000000" />
</g>
<g>
<path d="M 1000,-140 L 986,-148 L 986,-132 Z" stroke="#000000" stroke-width="2.8" fill="none"/>
<text text-anchor="end" x="981.0" y="-133.25" fill="#000000" style="font-size:18px">rst</text>
<circle cx="1000.0" cy="-140.0" r="2.0" stroke="#000000" stroke-width="2.8" fill="#000000" />
</g>
<g>
<path d="M 150,-190 L 130,-190 C 140,-206 140,-234 130,-250 L 150,-250 C 170,-250 190,-240 200,-220 C 190,-200 170,-190 150,-190 Z" stroke="#000000" stroke-width="2.8" fill="none"/>
<path d="M 120,-190 C 130,-200 130,-240 120,-250" stroke="#000000" stroke-width="2.8" fill="none"/>
<circle cx="120.0" cy="-240.0" r="2.0" stroke="#000000" stroke-width="2.8" fill="#000000" />
<circle cx="120.0" cy="-200.0" r="2.0" stroke="#000000" stroke-width="2.8" fill="#000000" />
<circle cx="200.0" cy="-220.0" r="2.0" stroke="#000000" stroke-width="2.8" fill="#000000" />
</g>
<g>
<path d="M 810,-410 L 830,-410 C 820,-394 820,-366 830,-350 L 810,-350 C 790,-350 770,-360 760,-380 C 770,-400 790,-410 810,-410 Z" stroke="#000000" stroke-width="2.8" fill="none"/>
<path d="M 840,-410 C 830,-400 830,-360 840,-350" stroke="#000000" stroke-width="2.8" fill="none"/>
<circle cx="840.0" cy="-360.0" r="2.0" stroke="#000000" stroke-width="2.8" fill="#000000" />
<circle cx="840.0" cy="-400.0" r="2.0" stroke="#000000" stroke-width="2.8" fill="#000000" />
<circle cx="760.0" cy="-380.0" r="2.0" stroke="#000000" stroke-width="2.8" fill="#000000" />
</g>
<g>
<path d="M 530,-10 L 530,19 L 470,19 L 470,-10 C 470,-20 480,-40 500,-39 C 520,-39 530,-20 530,-10 Z" stroke="#000000" stroke-width="2.8" fill="none"/>
<circle cx="480.0" cy="20.0" r="2.0" stroke="#000000" stroke-width="2.8" fill="#000000" />
<circle cx="520.0" cy="20.0" r="2.0" stroke="#000000" stroke-width="2.8" fill="#000000" />
<circle cx="500.0" cy="-40.0" r="2.0" stroke="#000000" stroke-width="2.8" fill="#000000" />
</g>
<g>
<path d="M -300,320 L -314,312 L -314,328 Z" stroke="#000000" stroke-width="2.8" fill="none"/>
<text text-anchor="end" x="-319.0" y="326.75" fill="#000000" style="font-size:18px">o5</text>
<circle cx="-300.0" cy="320.0" r="2.0" stroke="#000000" stroke-width="2.8" fill="#000000" />
</g>
<g>
<path d="M 1340,-180 L 1332,-166 L 1348,-166 Z" stroke="#000000" stroke-width="2.8" fill="none"/>
<text text-anchor="end" x="1340.0" y="-154.25" fill="#000000" style="font-size:18px" transform="rotate(-90,1340.0,-161.0)" >o5</text>
<circle cx="1340.0" cy="-180.0" r="2.0" stroke="#000000" stroke-width="2.8" fill="#000000" />
</g>
<g>
<path d="M 1261,-210 L 1319,-210 L 1319,-130 L 1261,-130 Z" stroke="#000000" stroke-width="2.8" fill="none"/>
<text text-anchor="start" x="1264.0" y="-193.25" fill="#000000" style="font-size:18px">Set</text>
<text text-anchor="start" x="1264.0" y="-173.25" fill="#000000" style="font-size:18px">D</text>
<path d="M 1261,-153 L 1268,-160 L 1261,-167" stroke="#000000" stroke-width="1.4" fill="none"/>
<text text-anchor="start" x="1271.0" y="-153.25" fill="#000000" style="font-size:18px">C</text>
<text text-anchor="start" x="1264.0" y="-133.25" fill="#000000" style="font-size:18px">Clr</text>
<text text-anchor="end" x="1316.0" y="-193.25" fill="#000000" style="font-size:18px">Q</text>
<text text-anchor="end" x="1316.0" y="-173.25" fill="#000000" style="font-size:18px"><tspan style="text-decoration:overline;">Q</tspan></text>
<text text-anchor="middle" x="1290.0" y="-112.5" fill="#000000" style="font-size:18px">D-AS</text>
<circle cx="1260.0" cy="-200.0" r="2.0" stroke="#000000" stroke-width="2.8" fill="#000000" />
<circle cx="1260.0" cy="-180.0" r="2.0" stroke="#000000" stroke-width="2.8" fill="#000000" />
<circle cx="1260.0" cy="-160.0" r="2.0" stroke="#000000" stroke-width="2.8" fill="#000000" />
<circle cx="1260.0" cy="-140.0" r="2.0" stroke="#000000" stroke-width="2.8" fill="#000000" />
<circle cx="1320.0" cy="-200.0" r="2.0" stroke="#000000" stroke-width="2.8" fill="#000000" />
<circle cx="1320.0" cy="-180.0" r="2.0" stroke="#000000" stroke-width="2.8" fill="#000000" />
</g>
<g>
<text text-anchor="end" x="1237.0" y="-191.0" fill="#000000" style="font-size:24px">0</text>
<circle cx="1240.0" cy="-200.0" r="2.0" stroke="#000000" stroke-width="2.8" fill="#000000" />
</g>
<g>
<path d="M 1240,-160 L 1226,-168 L 1226,-152 Z" stroke="#000000" stroke-width="2.8" fill="none"/>
<text text-anchor="end" x="1221.0" y="-153.25" fill="#000000" style="font-size:18px">ck</text>
<circle cx="1240.0" cy="-160.0" r="2.0" stroke="#000000" stroke-width="2.8" fill="#000000" />
</g>
<g>
<path d="M 1240,-140 L 1226,-148 L 1226,-132 Z" stroke="#000000" stroke-width="2.8" fill="none"/>
<text text-anchor="end" x="1221.0" y="-133.25" fill="#000000" style="font-size:18px">rst</text>
<circle cx="1240.0" cy="-140.0" r="2.0" stroke="#000000" stroke-width="2.8" fill="#000000" />
</g>
<g>
<path d="M 810,10 L 840,10 C 830,26 830,54 840,70 L 820,70 C 790,70 770,60 760,40 C 770,20 790,10 810,10 Z" stroke="#000000" stroke-width="2.8" fill="none"/>
<circle cx="750.0" cy="40.0" r="9.0" stroke="#000000" stroke-width="2.8" fill="none" />
<circle cx="840.0" cy="60.0" r="2.0" stroke="#000000" stroke-width="2.8" fill="#000000" />
<circle cx="840.0" cy="20.0" r="2.0" stroke="#000000" stroke-width="2.8" fill="#000000" />
<circle cx="740.0" cy="40.0" r="2.0" stroke="#000000" stroke-width="2.8" fill="#000000" />
</g>
<g>
<path d="M -300,340 L -314,332 L -314,348 Z" stroke="#000000" stroke-width="2.8" fill="none"/>
<text text-anchor="end" x="-319.0" y="346.75" fill="#000000" style="font-size:18px">o6</text>
<circle cx="-300.0" cy="340.0" r="2.0" stroke="#000000" stroke-width="2.8" fill="#000000" />
</g>
<g>
<path d="M 1600,-200 L 1614,-192 L 1614,-208 Z" stroke="#000000" stroke-width="2.8" fill="none"/>
<text text-anchor="start" x="1619.0" y="-193.25" fill="#000000" style="font-size:18px">o6</text>
<circle cx="1600.0" cy="-200.0" r="2.0" stroke="#000000" stroke-width="2.8" fill="#000000" />
</g>
<g>
<path d="M 1501,-210 L 1559,-210 L 1559,-130 L 1501,-130 Z" stroke="#000000" stroke-width="2.8" fill="none"/>
<text text-anchor="start" x="1504.0" y="-193.25" fill="#000000" style="font-size:18px">Set</text>
<text text-anchor="start" x="1504.0" y="-173.25" fill="#000000" style="font-size:18px">D</text>
<path d="M 1501,-153 L 1508,-160 L 1501,-167" stroke="#000000" stroke-width="1.4" fill="none"/>
<text text-anchor="start" x="1511.0" y="-153.25" fill="#000000" style="font-size:18px">C</text>
<text text-anchor="start" x="1504.0" y="-133.25" fill="#000000" style="font-size:18px">Clr</text>
<text text-anchor="end" x="1556.0" y="-193.25" fill="#000000" style="font-size:18px">Q</text>
<text text-anchor="end" x="1556.0" y="-173.25" fill="#000000" style="font-size:18px"><tspan style="text-decoration:overline;">Q</tspan></text>
<text text-anchor="middle" x="1530.0" y="-112.5" fill="#000000" style="font-size:18px">D-AS</text>
<circle cx="1500.0" cy="-200.0" r="2.0" stroke="#000000" stroke-width="2.8" fill="#000000" />
<circle cx="1500.0" cy="-180.0" r="2.0" stroke="#000000" stroke-width="2.8" fill="#000000" />
<circle cx="1500.0" cy="-160.0" r="2.0" stroke="#000000" stroke-width="2.8" fill="#000000" />
<circle cx="1500.0" cy="-140.0" r="2.0" stroke="#000000" stroke-width="2.8" fill="#000000" />
<circle cx="1560.0" cy="-200.0" r="2.0" stroke="#000000" stroke-width="2.8" fill="#000000" />
<circle cx="1560.0" cy="-180.0" r="2.0" stroke="#000000" stroke-width="2.8" fill="#000000" />
</g>
<g>
<text text-anchor="end" x="1477.0" y="-191.0" fill="#000000" style="font-size:24px">0</text>
<circle cx="1480.0" cy="-200.0" r="2.0" stroke="#000000" stroke-width="2.8" fill="#000000" />
</g>
<g>
<path d="M 1480,-160 L 1466,-168 L 1466,-152 Z" stroke="#000000" stroke-width="2.8" fill="none"/>
<text text-anchor="end" x="1461.0" y="-153.25" fill="#000000" style="font-size:18px">ck</text>
<circle cx="1480.0" cy="-160.0" r="2.0" stroke="#000000" stroke-width="2.8" fill="#000000" />
</g>
<g>
<path d="M 1480,-140 L 1466,-148 L 1466,-132 Z" stroke="#000000" stroke-width="2.8" fill="none"/>
<text text-anchor="end" x="1461.0" y="-133.25" fill="#000000" style="font-size:18px">rst</text>
<circle cx="1480.0" cy="-140.0" r="2.0" stroke="#000000" stroke-width="2.8" fill="#000000" />
</g>
<g>
<path d="M 590,-150 L 570,-150 C 580,-166 580,-194 570,-210 L 590,-210 C 610,-210 630,-200 640,-180 C 630,-160 610,-150 590,-150 Z" stroke="#000000" stroke-width="2.8" fill="none"/>
<path d="M 560,-150 C 570,-160 570,-200 560,-210" stroke="#000000" stroke-width="2.8" fill="none"/>
<circle cx="560.0" cy="-200.0" r="2.0" stroke="#000000" stroke-width="2.8" fill="#000000" />
<circle cx="560.0" cy="-160.0" r="2.0" stroke="#000000" stroke-width="2.8" fill="#000000" />
<circle cx="640.0" cy="-180.0" r="2.0" stroke="#000000" stroke-width="2.8" fill="#000000" />
</g>
<g>
<path d="M 450,-190 L 430,-190 C 440,-206 440,-234 430,-250 L 450,-250 C 470,-250 490,-240 500,-220 C 490,-200 470,-190 450,-190 Z" stroke="#000000" stroke-width="2.8" fill="none"/>
<path d="M 420,-190 C 430,-200 430,-240 420,-250" stroke="#000000" stroke-width="2.8" fill="none"/>
<circle cx="510.0" cy="-220.0" r="9.0" stroke="#000000" stroke-width="2.8" fill="none" />
<circle cx="420.0" cy="-240.0" r="2.0" stroke="#000000" stroke-width="2.8" fill="#000000" />
<circle cx="420.0" cy="-200.0" r="2.0" stroke="#000000" stroke-width="2.8" fill="#000000" />
<circle cx="520.0" cy="-220.0" r="2.0" stroke="#000000" stroke-width="2.8" fill="#000000" />
</g>
<g>
<path d="M 1070,-370 L 1090,-370 C 1080,-354 1080,-326 1090,-310 L 1070,-310 C 1050,-310 1030,-320 1020,-340 C 1030,-360 1050,-370 1070,-370 Z" stroke="#000000" stroke-width="2.8" fill="none"/>
<path d="M 1100,-370 C 1090,-360 1090,-320 1100,-310" stroke="#000000" stroke-width="2.8" fill="none"/>
<circle cx="1100.0" cy="-320.0" r="2.0" stroke="#000000" stroke-width="2.8" fill="#000000" />
<circle cx="1100.0" cy="-360.0" r="2.0" stroke="#000000" stroke-width="2.8" fill="#000000" />
<circle cx="1020.0" cy="-340.0" r="2.0" stroke="#000000" stroke-width="2.8" fill="#000000" />
</g>
<g>
<path d="M 330,110 L 281,110 L 281,50 L 330,50 C 340,50 360,60 359,80 C 359,100 340,110 330,110 Z" stroke="#000000" stroke-width="2.8" fill="none"/>
<circle cx="280.0" cy="60.0" r="2.0" stroke="#000000" stroke-width="2.8" fill="#000000" />
<circle cx="280.0" cy="100.0" r="2.0" stroke="#000000" stroke-width="2.8" fill="#000000" />
<circle cx="360.0" cy="80.0" r="2.0" stroke="#000000" stroke-width="2.8" fill="#000000" />
</g>
</g>
</svg>