<?xml version="1.0" encoding="UTF-8" standalone="no"?>
<!-- Created with Digital by H.Neemann -->
<!-- created: Sat Apr 25 11:29:16 CEST 2020 -->

<svg
   xmlns:svg="http://www.w3.org/2000/svg"
   xmlns="http://www.w3.org/2000/svg"
   width="393.45mm"
   height="138.45mm"
   viewBox="-582 -532 2623 923">
<g stroke-linecap="square">
<path d="M -280,220 L -270,220 L -260,220" stroke="#000000" stroke-width="2.8" fill="none"/>
<path d="M -280,240 L -270,240" stroke="#000000" stroke-width="2.8" fill="none"/>
<path d="M -280,260 L -270,260" stroke="#000000" stroke-width="2.8" fill="none"/>
<path d="M -280,280 L -270,280" stroke="#000000" stroke-width="2.8" fill="none"/>
<path d="M -280,300 L -270,300" stroke="#000000" stroke-width="2.8" fill="none"/>
<path d="M -280,320 L -270,320" stroke="#000000" stroke-width="2.8" fill="none"/>
<path d="M -280,340 L -270,340" stroke="#000000" stroke-width="2.8" fill="none"/>
<path d="M -280,360 L -270,360" stroke="#000000" stroke-width="2.8" fill="none"/>
<path d="M -280,380 L -270,380" stroke="#000000" stroke-width="2.8" fill="none"/>
<path d="M -300,320 L -280,320" stroke="#000000" stroke-width="2.8" fill="none"/>
<path d="M 816,0 L 820,0 L 1120,0 L 1120,-180" stroke="#000000" stroke-width="2.8" fill="none"/>
<path d="M -300,260 L -280,260" stroke="#000000" stroke-width="2.8" fill="none"/>
<path d="M -460,260 L -440,260" stroke="#000000" stroke-width="2.8" fill="none"/>
<path d="M 340,-200 L 380,-200 L 420,-200 L 434,-200" stroke="#000000" stroke-width="2.8" fill="none"/>
<path d="M 780,-200 L 820,-200 L 860,-200 L 860,-360 L 800,-360 L 786,-360" stroke="#000000" stroke-width="2.8" fill="none"/>
<path d="M -400,-200 L -380,-200" stroke="#000000" stroke-width="2.8" fill="none"/>
<path d="M -60,-200 L -40,-200" stroke="#000000" stroke-width="2.8" fill="none"/>
<path d="M 260,-200 L 280,-200" stroke="#000000" stroke-width="2.8" fill="none"/>
<path d="M 700,-200 L 720,-200" stroke="#000000" stroke-width="2.8" fill="none"/>
<path d="M 940,-200 L 960,-200" stroke="#000000" stroke-width="2.8" fill="none"/>
<path d="M 1180,-200 L 1200,-200" stroke="#000000" stroke-width="2.8" fill="none"/>
<path d="M 1420,-200 L 1440,-200" stroke="#000000" stroke-width="2.8" fill="none"/>
<path d="M -320,-200 L -280,-200 L -240,-200 L -220,-200 L -206,-200" stroke="#000000" stroke-width="2.8" fill="none"/>
<path d="M 1660,-200 L 1680,-200" stroke="#000000" stroke-width="2.8" fill="none"/>
<path d="M 1880,-200 L 1900,-200" stroke="#000000" stroke-width="2.8" fill="none"/>
<path d="M 1960,-200 L 1980,-200 L 2000,-200" stroke="#000000" stroke-width="2.8" fill="none"/>
<path d="M 1020,-200 L 1040,-200 L 1120,-200 L 1120,-420 L 1020,-420 L 1006,-420" stroke="#000000" stroke-width="2.8" fill="none"/>
<path d="M 1260,-200 L 1280,-200 L 1380,-200 L 1380,-400 L 800,-400 L 786,-400" stroke="#000000" stroke-width="2.8" fill="none"/>
<path d="M 1500,-200 L 1540,-200 L 1620,-200 L 1620,-460 L 1020,-460 L 1006,-460" stroke="#000000" stroke-width="2.8" fill="none"/>
<path d="M 1740,-200 L 1780,-200 L 1820,-200 L 1840,-200 L 1840,-180 L 1900,-180" stroke="#000000" stroke-width="2.8" fill="none"/>
<path d="M 20,-200 L 60,-200 L 100,-200 L 120,-200 L 134,-200" stroke="#000000" stroke-width="2.8" fill="none"/>
<path d="M 1226,-520 L 1240,-520 L 1980,-520 L 1980,-280 L 400,-280 L 400,-240 L 420,-240 L 434,-240" stroke="#000000" stroke-width="2.8" fill="none"/>
<path d="M 260,-140 L 280,-140" stroke="#000000" stroke-width="2.8" fill="none"/>
<path d="M -400,-140 L -380,-140" stroke="#000000" stroke-width="2.8" fill="none"/>
<path d="M -60,-140 L -40,-140" stroke="#000000" stroke-width="2.8" fill="none"/>
<path d="M 700,-140 L 720,-140" stroke="#000000" stroke-width="2.8" fill="none"/>
<path d="M 940,-140 L 960,-140" stroke="#000000" stroke-width="2.8" fill="none"/>
<path d="M 1180,-140 L 1200,-140" stroke="#000000" stroke-width="2.8" fill="none"/>
<path d="M 1420,-140 L 1440,-140" stroke="#000000" stroke-width="2.8" fill="none"/>
<path d="M 1660,-140 L 1680,-140" stroke="#000000" stroke-width="2.8" fill="none"/>
<path d="M 1880,-140 L 1900,-140" stroke="#000000" stroke-width="2.8" fill="none"/>
<path d="M 860,80 L 1620,80" stroke="#000000" stroke-width="2.8" fill="none"/>
<path d="M 1276,20 L 1280,20 L 1380,20 L 1380,-180" stroke="#000000" stroke-width="2.8" fill="none"/>
<path d="M 640,20 L 660,20 L 660,-20 L 720,-20" stroke="#000000" stroke-width="2.8" fill="none"/>
<path d="M 100,-200 L 100,20 L 280,20" stroke="#000000" stroke-width="2.8" fill="none"/>
<path d="M -300,340 L -280,340" stroke="#000000" stroke-width="2.8" fill="none"/>
<path d="M -300,280 L -280,280" stroke="#000000" stroke-width="2.8" fill="none"/>
<path d="M 520,-220 L 540,-220 L 540,-200 L 560,-200 L 574,-200" stroke="#000000" stroke-width="2.8" fill="none"/>
<path d="M -440,-220 L -420,-220 L -420,-180 L -380,-180" stroke="#000000" stroke-width="2.8" fill="none"/>
<path d="M -140,-220 L -120,-220 L -120,-180 L -40,-180" stroke="#000000" stroke-width="2.8" fill="none"/>
<path d="M 200,-220 L 220,-220 L 220,-180 L 280,-180" stroke="#000000" stroke-width="2.8" fill="none"/>
<path d="M -260,220 L -220,220" stroke="#000000" stroke-width="2.8" fill="none"/>
<path d="M -300,220 L -280,220" stroke="#000000" stroke-width="2.8" fill="none"/>
<path d="M -460,220 L -440,220" stroke="#000000" stroke-width="2.8" fill="none"/>
<path d="M 940,-160 L 960,-160" stroke="#000000" stroke-width="2.8" fill="none"/>
<path d="M 260,-160 L 280,-160" stroke="#000000" stroke-width="2.8" fill="none"/>
<path d="M -400,-160 L -380,-160" stroke="#000000" stroke-width="2.8" fill="none"/>
<path d="M -60,-160 L -40,-160" stroke="#000000" stroke-width="2.8" fill="none"/>
<path d="M 700,-160 L 720,-160" stroke="#000000" stroke-width="2.8" fill="none"/>
<path d="M 1180,-160 L 1200,-160" stroke="#000000" stroke-width="2.8" fill="none"/>
<path d="M 1420,-160 L 1440,-160" stroke="#000000" stroke-width="2.8" fill="none"/>
<path d="M 1660,-160 L 1680,-160" stroke="#000000" stroke-width="2.8" fill="none"/>
<path d="M 1880,-160 L 1900,-160" stroke="#000000" stroke-width="2.8" fill="none"/>
<path d="M 500,-60 L 500,-160 L 560,-160 L 574,-160" stroke="#000000" stroke-width="2.8" fill="none"/>
<path d="M 1226,-480 L 1240,-480 L 1820,-480 L 1820,-200 L 1820,60 L 1720,60 L 1716,60" stroke="#000000" stroke-width="2.8" fill="none"/>
<path d="M 1716,100 L 1720,100 L 1980,100 L 1980,-200 L 1980,-280" stroke="#000000" stroke-width="2.8" fill="none"/>
<path d="M 816,-40 L 820,-40 L 860,-40 L 860,-80" stroke="#000000" stroke-width="2.8" fill="none"/>
<path d="M 860,40 L 1180,40" stroke="#000000" stroke-width="2.8" fill="none"/>
<path d="M 520,0 L 520,40 L 560,40" stroke="#000000" stroke-width="2.8" fill="none"/>
<path d="M 360,40 L 480,40 L 480,0" stroke="#000000" stroke-width="2.8" fill="none"/>
<path d="M -300,360 L -280,360" stroke="#000000" stroke-width="2.8" fill="none"/>
<path d="M -300,300 L -280,300" stroke="#000000" stroke-width="2.8" fill="none"/>
<path d="M -300,240 L -280,240" stroke="#000000" stroke-width="2.8" fill="none"/>
<path d="M 1120,-200 L 1120,-180 L 1200,-180" stroke="#000000" stroke-width="2.8" fill="none"/>
<path d="M 1380,-200 L 1380,-180 L 1440,-180" stroke="#000000" stroke-width="2.8" fill="none"/>
<path d="M 1620,-200 L 1620,-180 L 1680,-180" stroke="#000000" stroke-width="2.8" fill="none"/>
<path d="M 640,-180 L 720,-180" stroke="#000000" stroke-width="2.8" fill="none"/>
<path d="M 860,-200 L 860,-180 L 960,-180" stroke="#000000" stroke-width="2.8" fill="none"/>
<path d="M 1276,60 L 1280,60 L 1620,60 L 1620,-180" stroke="#000000" stroke-width="2.8" fill="none"/>
<path d="M 640,60 L 780,60" stroke="#000000" stroke-width="2.8" fill="none"/>
<path d="M -240,-200 L -240,60 L 280,60" stroke="#000000" stroke-width="2.8" fill="none"/>
<path d="M -300,380 L -280,380" stroke="#000000" stroke-width="2.8" fill="none"/>
<path d="M 1280,-200 L 1280,-180" stroke="#000000" stroke-width="2.8" fill="none"/>
<path d="M -526,-240 L -540,-240 L -580,-240 L -580,-500 L 1160,-500" stroke="#000000" stroke-width="2.8" fill="none"/>
<path d="M -526,-200 L -540,-200 L -580,-200 L -580,-80 L 860,-80 L 860,-180" stroke="#000000" stroke-width="2.8" fill="none"/>
<path d="M 1540,-200 L 1540,-180" stroke="#000000" stroke-width="2.8" fill="none"/>
<path d="M 1040,-200 L 1040,-160" stroke="#000000" stroke-width="2.8" fill="none"/>
<path d="M -280,-200 L -280,-160" stroke="#000000" stroke-width="2.8" fill="none"/>
<path d="M 134,-240 L 120,-240 L 100,-240 L 100,-380 L 720,-380" stroke="#000000" stroke-width="2.8" fill="none"/>
<path d="M -206,-240 L -220,-240 L -240,-240 L -240,-440 L 940,-440" stroke="#000000" stroke-width="2.8" fill="none"/>
<path d="M 820,-200 L 820,-160" stroke="#000000" stroke-width="2.8" fill="none"/>
<path d="M 1780,-200 L 1780,-180" stroke="#000000" stroke-width="2.8" fill="none"/>
<path d="M 380,-200 L 380,-160" stroke="#000000" stroke-width="2.8" fill="none"/>
<path d="M 60,-200 L 60,-160" stroke="#000000" stroke-width="2.8" fill="none"/>
<g>
<circle cx="380.0" cy="-200.0" r="4.0" stroke="#000000" stroke-width="2.8" fill="#000000" />
<circle cx="820.0" cy="-200.0" r="4.0" stroke="#000000" stroke-width="2.8" fill="#000000" />
<circle cx="-280.0" cy="-200.0" r="4.0" stroke="#000000" stroke-width="2.8" fill="#000000" />
<circle cx="1980.0" cy="-200.0" r="4.0" stroke="#000000" stroke-width="2.8" fill="#000000" />
<circle cx="1040.0" cy="-200.0" r="4.0" stroke="#000000" stroke-width="2.8" fill="#000000" />
<circle cx="1280.0" cy="-200.0" r="4.0" stroke="#000000" stroke-width="2.8" fill="#000000" />
<circle cx="1540.0" cy="-200.0" r="4.0" stroke="#000000" stroke-width="2.8" fill="#000000" />
<circle cx="1780.0" cy="-200.0" r="4.0" stroke="#000000" stroke-width="2.8" fill="#000000" />
<circle cx="60.0" cy="-200.0" r="4.0" stroke="#000000" stroke-width="2.8" fill="#000000" />
<circle cx="860.0" cy="-200.0" r="4.0" stroke="#000000" stroke-width="2.8" fill="#000000" />
<circle cx="1820.0" cy="-200.0" r="4.0" stroke="#000000" stroke-width="2.8" fill="#000000" />
<circle cx="1120.0" cy="-200.0" r="4.0" stroke="#000000" stroke-width="2.8" fill="#000000" />
<circle cx="-240.0" cy="-200.0" r="4.0" stroke="#000000" stroke-width="2.8" fill="#000000" />
<circle cx="1620.0" cy="-200.0" r="4.0" stroke="#000000" stroke-width="2.8" fill="#000000" />
<circle cx="1380.0" cy="-200.0" r="4.0" stroke="#000000" stroke-width="2.8" fill="#000000" />
<circle cx="100.0" cy="-200.0" r="4.0" stroke="#000000" stroke-width="2.8" fill="#000000" />
<circle cx="860.0" cy="-80.0" r="4.0" stroke="#000000" stroke-width="2.8" fill="#000000" />
<circle cx="1980.0" cy="-280.0" r="4.0" stroke="#000000" stroke-width="2.8" fill="#000000" />
<circle cx="1120.0" cy="-180.0" r="4.0" stroke="#000000" stroke-width="2.8" fill="#000000" />
<circle cx="1380.0" cy="-180.0" r="4.0" stroke="#000000" stroke-width="2.8" fill="#000000" />
<circle cx="1620.0" cy="-180.0" r="4.0" stroke="#000000" stroke-width="2.8" fill="#000000" />
<circle cx="860.0" cy="-180.0" r="4.0" stroke="#000000" stroke-width="2.8" fill="#000000" />
</g>
<g>
<path d="M -491,205 L -461,205 L -461,235 L -491,235 Z" stroke="#000000" stroke-width="2.8" fill="none"/>
<circle cx="-476.0" cy="220.0" r="9.0" stroke="#000000" stroke-width="2.8" fill="none" />
<text text-anchor="end" x="-505.0" y="229.0" fill="#000000" style="font-size:24px"><tspan style="font-style:italic;">ck</tspan></text>
<circle cx="-460.0" cy="220.0" r="2.0" stroke="#000000" stroke-width="2.8" fill="#000000" />
</g>
<g>
<path d="M -491,245 L -461,245 L -461,275 L -491,275 Z" stroke="#000000" stroke-width="2.8" fill="none"/>
<circle cx="-476.0" cy="260.0" r="9.0" stroke="#000000" stroke-width="2.8" fill="none" />
<text text-anchor="end" x="-505.0" y="269.0" fill="#000000" style="font-size:24px"><tspan style="font-style:italic;">rst</tspan></text>
<circle cx="-460.0" cy="260.0" r="2.0" stroke="#000000" stroke-width="2.8" fill="#000000" />
</g>
<g>
<path d="M -440,220 L -426,228 L -426,212 Z" stroke="#000000" stroke-width="2.8" fill="none"/>
<text text-anchor="start" x="-421.0" y="226.75" fill="#000000" style="font-size:18px">ck</text>
<circle cx="-440.0" cy="220.0" r="2.0" stroke="#000000" stroke-width="2.8" fill="#000000" />
</g>
<g>
<path d="M -440,260 L -426,268 L -426,252 Z" stroke="#000000" stroke-width="2.8" fill="none"/>
<text text-anchor="start" x="-421.0" y="266.75" fill="#000000" style="font-size:18px">rst</text>
<circle cx="-440.0" cy="260.0" r="2.0" stroke="#000000" stroke-width="2.8" fill="#000000" />
</g>
<g>
<circle cx="-204.0" cy="220.0" r="9.0" stroke="#000000" stroke-width="2.8" fill="none" />
<circle cx="-204.0" cy="220.0" r="15.0" stroke="#000000" stroke-width="2.8" fill="none" />
<text text-anchor="start" x="-175.0" y="229.0" fill="#000000" style="font-size:24px"><tspan style="font-style:italic;">o</tspan></text>
<circle cx="-220.0" cy="220.0" r="2.0" stroke="#000000" stroke-width="2.8" fill="#000000" />
</g>
<g>
<text text-anchor="end" x="-282.0" y="217.0" fill="#000000" style="font-size:12px">0</text>
<text text-anchor="end" x="-282.0" y="237.0" fill="#000000" style="font-size:12px">1</text>
<text text-anchor="end" x="-282.0" y="257.0" fill="#000000" style="font-size:12px">2</text>
<text text-anchor="end" x="-282.0" y="277.0" fill="#000000" style="font-size:12px">3</text>
<text text-anchor="end" x="-282.0" y="297.0" fill="#000000" style="font-size:12px">4</text>
<text text-anchor="end" x="-282.0" y="317.0" fill="#000000" style="font-size:12px">5</text>
<text text-anchor="end" x="-282.0" y="337.0" fill="#000000" style="font-size:12px">6</text>
<text text-anchor="end" x="-282.0" y="357.0" fill="#000000" style="font-size:12px">7</text>
<text text-anchor="end" x="-282.0" y="377.0" fill="#000000" style="font-size:12px">8</text>
<text text-anchor="start" x="-258.0" y="217.0" fill="#000000" style="font-size:12px">0-8</text>
<path d="M -272,218 L -268,218 L -268,382 L -272,382 Z" stroke="#000000" stroke-width="2.8" fill="#000000" fill-opacity="1.0"/>
<circle cx="-280.0" cy="220.0" r="2.0" stroke="#000000" stroke-width="2.8" fill="#000000" />
<circle cx="-280.0" cy="240.0" r="2.0" stroke="#000000" stroke-width="2.8" fill="#000000" />
<circle cx="-280.0" cy="260.0" r="2.0" stroke="#000000" stroke-width="2.8" fill="#000000" />
<circle cx="-280.0" cy="280.0" r="2.0" stroke="#000000" stroke-width="2.8" fill="#000000" />
<circle cx="-280.0" cy="300.0" r="2.0" stroke="#000000" stroke-width="2.8" fill="#000000" />
<circle cx="-280.0" cy="320.0" r="2.0" stroke="#000000" stroke-width="2.8" fill="#000000" />
<circle cx="-280.0" cy="340.0" r="2.0" stroke="#000000" stroke-width="2.8" fill="#000000" />
<circle cx="-280.0" cy="360.0" r="2.0" stroke="#000000" stroke-width="2.8" fill="#000000" />
<circle cx="-280.0" cy="380.0" r="2.0" stroke="#000000" stroke-width="2.8" fill="#000000" />
<circle cx="-260.0" cy="220.0" r="2.0" stroke="#000000" stroke-width="2.8" fill="#000000" />
</g>
<g>
<path d="M -300,220 L -314,212 L -314,228 Z" stroke="#000000" stroke-width="2.8" fill="none"/>
<text text-anchor="end" x="-319.0" y="226.75" fill="#000000" style="font-size:18px">o0</text>
<circle cx="-300.0" cy="220.0" r="2.0" stroke="#000000" stroke-width="2.8" fill="#000000" />
</g>
<g>
<path d="M -300,240 L -314,232 L -314,248 Z" stroke="#000000" stroke-width="2.8" fill="none"/>
<text text-anchor="end" x="-319.0" y="246.75" fill="#000000" style="font-size:18px">o1</text>
<circle cx="-300.0" cy="240.0" r="2.0" stroke="#000000" stroke-width="2.8" fill="#000000" />
</g>
<g>
<path d="M -300,260 L -314,252 L -314,268 Z" stroke="#000000" stroke-width="2.8" fill="none"/>
<text text-anchor="end" x="-319.0" y="266.75" fill="#000000" style="font-size:18px">o2</text>
<circle cx="-300.0" cy="260.0" r="2.0" stroke="#000000" stroke-width="2.8" fill="#000000" />
</g>
<g>
<path d="M -300,280 L -314,272 L -314,288 Z" stroke="#000000" stroke-width="2.8" fill="none"/>
<text text-anchor="end" x="-319.0" y="286.75" fill="#000000" style="font-size:18px">o3</text>
<circle cx="-300.0" cy="280.0" r="2.0" stroke="#000000" stroke-width="2.8" fill="#000000" />
</g>
<g>
<path d="M -510,-190 L -530,-190 C -520,-206 -520,-234 -530,-250 L -510,-250 C -490,-250 -470,-240 -460,-220 C -470,-200 -490,-190 -510,-190 Z" stroke="#000000" stroke-width="2.8" fill="none"/>
<path d="M -540,-190 C -530,-200 -530,-240 -540,-250" stroke="#000000" stroke-width="2.8" fill="none"/>
<circle cx="-450.0" cy="-220.0" r="9.0" stroke="#000000" stroke-width="2.8" fill="none" />
<circle cx="-540.0" cy="-240.0" r="2.0" stroke="#000000" stroke-width="2.8" fill="#000000" />
<circle cx="-540.0" cy="-200.0" r="2.0" stroke="#000000" stroke-width="2.8" fill="#000000" />
<circle cx="-440.0" cy="-220.0" r="2.0" stroke="#000000" stroke-width="2.8" fill="#000000" />
</g>
<g>
<path d="M -379,-210 L -321,-210 L -321,-130 L -379,-130 Z" stroke="#000000" stroke-width="2.8" fill="none"/>
<text text-anchor="start" x="-376.0" y="-193.25" fill="#000000" style="font-size:18px">Set</text>
<text text-anchor="start" x="-376.0" y="-173.25" fill="#000000" style="font-size:18px">D</text>
<path d="M -379,-153 L -372,-160 L -379,-167" stroke="#000000" stroke-width="1.4" fill="none"/>
<text text-anchor="start" x="-369.0" y="-153.25" fill="#000000" style="font-size:18px">C</text>
<text text-anchor="start" x="-376.0" y="-133.25" fill="#000000" style="font-size:18px">Clr</text>
<text text-anchor="end" x="-324.0" y="-193.25" fill="#000000" style="font-size:18px">Q</text>
<text text-anchor="end" x="-324.0" y="-173.25" fill="#000000" style="font-size:18px"><tspan style="text-decoration:overline;">Q</tspan></text>
<text text-anchor="middle" x="-350.0" y="-112.5" fill="#000000" style="font-size:18px">D-AS</text>
<circle cx="-380.0" cy="-200.0" r="2.0" stroke="#000000" stroke-width="2.8" fill="#000000" />
<circle cx="-380.0" cy="-180.0" r="2.0" stroke="#000000" stroke-width="2.8" fill="#000000" />
<circle cx="-380.0" cy="-160.0" r="2.0" stroke="#000000" stroke-width="2.8" fill="#000000" />
<circle cx="-380.0" cy="-140.0" r="2.0" stroke="#000000" stroke-width="2.8" fill="#000000" />
<circle cx="-320.0" cy="-200.0" r="2.0" stroke="#000000" stroke-width="2.8" fill="#000000" />
<circle cx="-320.0" cy="-180.0" r="2.0" stroke="#000000" stroke-width="2.8" fill="#000000" />
</g>
<g>
<path d="M 281,-210 L 339,-210 L 339,-130 L 281,-130 Z" stroke="#000000" stroke-width="2.8" fill="none"/>
<text text-anchor="start" x="284.0" y="-193.25" fill="#000000" style="font-size:18px">Set</text>
<text text-anchor="start" x="284.0" y="-173.25" fill="#000000" style="font-size:18px">D</text>
<path d="M 281,-153 L 288,-160 L 281,-167" stroke="#000000" stroke-width="1.4" fill="none"/>
<text text-anchor="start" x="291.0" y="-153.25" fill="#000000" style="font-size:18px">C</text>
<text text-anchor="start" x="284.0" y="-133.25" fill="#000000" style="font-size:18px">Clr</text>
<text text-anchor="end" x="336.0" y="-193.25" fill="#000000" style="font-size:18px">Q</text>
<text text-anchor="end" x="336.0" y="-173.25" fill="#000000" style="font-size:18px"><tspan style="text-decoration:overline;">Q</tspan></text>
<text text-anchor="middle" x="310.0" y="-112.5" fill="#000000" style="font-size:18px">D-AS</text>
<circle cx="280.0" cy="-200.0" r="2.0" stroke="#000000" stroke-width="2.8" fill="#000000" />
<circle cx="280.0" cy="-180.0" r="2.0" stroke="#000000" stroke-width="2.8" fill="#000000" />
<circle cx="280.0" cy="-160.0" r="2.0" stroke="#000000" stroke-width="2.8" fill="#000000" />
<circle cx="280.0" cy="-140.0" r="2.0" stroke="#000000" stroke-width="2.8" fill="#000000" />
<circle cx="340.0" cy="-200.0" r="2.0" stroke="#000000" stroke-width="2.8" fill="#000000" />
<circle cx="340.0" cy="-180.0" r="2.0" stroke="#000000" stroke-width="2.8" fill="#000000" />
</g>
<g>
<path d="M -39,-210 L 19,-210 L 19,-130 L -39,-130 Z" stroke="#000000" stroke-width="2.8" fill="none"/>
<text text-anchor="start" x="-36.0" y="-193.25" fill="#000000" style="font-size:18px">Set</text>
<text text-anchor="start" x="-36.0" y="-173.25" fill="#000000" style="font-size:18px">D</text>
<path d="M -39,-153 L -32,-160 L -39,-167" stroke="#000000" stroke-width="1.4" fill="none"/>
<text text-anchor="start" x="-29.0" y="-153.25" fill="#000000" style="font-size:18px">C</text>
<text text-anchor="start" x="-36.0" y="-133.25" fill="#000000" style="font-size:18px">Clr</text>
<text text-anchor="end" x="16.0" y="-193.25" fill="#000000" style="font-size:18px">Q</text>
<text text-anchor="end" x="16.0" y="-173.25" fill="#000000" style="font-size:18px"><tspan style="text-decoration:overline;">Q</tspan></text>
<text text-anchor="middle" x="-10.0" y="-112.5" fill="#000000" style="font-size:18px">D-AS</text>
<circle cx="-40.0" cy="-200.0" r="2.0" stroke="#000000" stroke-width="2.8" fill="#000000" />
<circle cx="-40.0" cy="-180.0" r="2.0" stroke="#000000" stroke-width="2.8" fill="#000000" />
<circle cx="-40.0" cy="-160.0" r="2.0" stroke="#000000" stroke-width="2.8" fill="#000000" />
<circle cx="-40.0" cy="-140.0" r="2.0" stroke="#000000" stroke-width="2.8" fill="#000000" />
<circle cx="20.0" cy="-200.0" r="2.0" stroke="#000000" stroke-width="2.8" fill="#000000" />
<circle cx="20.0" cy="-180.0" r="2.0" stroke="#000000" stroke-width="2.8" fill="#000000" />
</g>
<g>
<path d="M 721,-210 L 779,-210 L 779,-130 L 721,-130 Z" stroke="#000000" stroke-width="2.8" fill="none"/>
<text text-anchor="start" x="724.0" y="-193.25" fill="#000000" style="font-size:18px">Set</text>
<text text-anchor="start" x="724.0" y="-173.25" fill="#000000" style="font-size:18px">D</text>
<path d="M 721,-153 L 728,-160 L 721,-167" stroke="#000000" stroke-width="1.4" fill="none"/>
<text text-anchor="start" x="731.0" y="-153.25" fill="#000000" style="font-size:18px">C</text>
<text text-anchor="start" x="724.0" y="-133.25" fill="#000000" style="font-size:18px">Clr</text>
<text text-anchor="end" x="776.0" y="-193.25" fill="#000000" style="font-size:18px">Q</text>
<text text-anchor="end" x="776.0" y="-173.25" fill="#000000" style="font-size:18px"><tspan style="text-decoration:overline;">Q</tspan></text>
<text text-anchor="middle" x="750.0" y="-112.5" fill="#000000" style="font-size:18px">D-AS</text>
<circle cx="720.0" cy="-200.0" r="2.0" stroke="#000000" stroke-width="2.8" fill="#000000" />
<circle cx="720.0" cy="-180.0" r="2.0" stroke="#000000" stroke-width="2.8" fill="#000000" />
<circle cx="720.0" cy="-160.0" r="2.0" stroke="#000000" stroke-width="2.8" fill="#000000" />
<circle cx="720.0" cy="-140.0" r="2.0" stroke="#000000" stroke-width="2.8" fill="#000000" />
<circle cx="780.0" cy="-200.0" r="2.0" stroke="#000000" stroke-width="2.8" fill="#000000" />
<circle cx="780.0" cy="-180.0" r="2.0" stroke="#000000" stroke-width="2.8" fill="#000000" />
</g>
<g>
<path d="M -190,-190 L -210,-190 C -200,-206 -200,-234 -210,-250 L -190,-250 C -170,-250 -150,-240 -140,-220 C -150,-200 -170,-190 -190,-190 Z" stroke="#000000" stroke-width="2.8" fill="none"/>
<path d="M -220,-190 C -210,-200 -210,-240 -220,-250" stroke="#000000" stroke-width="2.8" fill="none"/>
<circle cx="-220.0" cy="-240.0" r="2.0" stroke="#000000" stroke-width="2.8" fill="#000000" />
<circle cx="-220.0" cy="-200.0" r="2.0" stroke="#000000" stroke-width="2.8" fill="#000000" />
<circle cx="-140.0" cy="-220.0" r="2.0" stroke="#000000" stroke-width="2.8" fill="#000000" />
</g>
<g>
<text text-anchor="end" x="-403.0" y="-191.0" fill="#000000" style="font-size:24px">0</text>
<circle cx="-400.0" cy="-200.0" r="2.0" stroke="#000000" stroke-width="2.8" fill="#000000" />
</g>
<g>
<text text-anchor="end" x="-63.0" y="-191.0" fill="#000000" style="font-size:24px">0</text>
<circle cx="-60.0" cy="-200.0" r="2.0" stroke="#000000" stroke-width="2.8" fill="#000000" />
</g>
<g>
<path d="M 1210,-530 L 1230,-530 C 1220,-514 1220,-486 1230,-470 L 1210,-470 C 1190,-470 1170,-480 1160,-500 C 1170,-520 1190,-530 1210,-530 Z" stroke="#000000" stroke-width="2.8" fill="none"/>
<path d="M 1240,-530 C 1230,-520 1230,-480 1240,-470" stroke="#000000" stroke-width="2.8" fill="none"/>
<circle cx="1240.0" cy="-480.0" r="2.0" stroke="#000000" stroke-width="2.8" fill="#000000" />
<circle cx="1240.0" cy="-520.0" r="2.0" stroke="#000000" stroke-width="2.8" fill="#000000" />
<circle cx="1160.0" cy="-500.0" r="2.0" stroke="#000000" stroke-width="2.8" fill="#000000" />
</g>
<g>
<path d="M 1690,50 L 1720,50 C 1710,66 1710,94 1720,110 L 1700,110 C 1670,110 1650,100 1640,80 C 1650,60 1670,50 1690,50 Z" stroke="#000000" stroke-width="2.8" fill="none"/>
<circle cx="1630.0" cy="80.0" r="9.0" stroke="#000000" stroke-width="2.8" fill="none" />
<circle cx="1720.0" cy="100.0" r="2.0" stroke="#000000" stroke-width="2.8" fill="#000000" />
<circle cx="1720.0" cy="60.0" r="2.0" stroke="#000000" stroke-width="2.8" fill="#000000" />
<circle cx="1620.0" cy="80.0" r="2.0" stroke="#000000" stroke-width="2.8" fill="#000000" />
</g>
<g>
<path d="M 810,30 L 859,30 L 859,90 L 810,90 C 800,90 780,80 781,60 C 781,40 800,30 810,30 Z" stroke="#000000" stroke-width="2.8" fill="none"/>
<circle cx="860.0" cy="80.0" r="2.0" stroke="#000000" stroke-width="2.8" fill="#000000" />
<circle cx="860.0" cy="40.0" r="2.0" stroke="#000000" stroke-width="2.8" fill="#000000" />
<circle cx="780.0" cy="60.0" r="2.0" stroke="#000000" stroke-width="2.8" fill="#000000" />
</g>
<g>
<path d="M -280,-160 L -288,-146 L -272,-146 Z" stroke="#000000" stroke-width="2.8" fill="none"/>
<text text-anchor="end" x="-280.0" y="-134.25" fill="#000000" style="font-size:18px" transform="rotate(-90,-280.0,-141.0)" >o0</text>
<circle cx="-280.0" cy="-160.0" r="2.0" stroke="#000000" stroke-width="2.8" fill="#000000" />
</g>
<g>
<path d="M 60,-160 L 52,-146 L 68,-146 Z" stroke="#000000" stroke-width="2.8" fill="none"/>
<text text-anchor="end" x="60.0" y="-134.25" fill="#000000" style="font-size:18px" transform="rotate(-90,60.0,-141.0)" >o1</text>
<circle cx="60.0" cy="-160.0" r="2.0" stroke="#000000" stroke-width="2.8" fill="#000000" />
</g>
<g>
<path d="M 380,-160 L 372,-146 L 388,-146 Z" stroke="#000000" stroke-width="2.8" fill="none"/>
<text text-anchor="end" x="380.0" y="-134.25" fill="#000000" style="font-size:18px" transform="rotate(-90,380.0,-141.0)" >o2</text>
<circle cx="380.0" cy="-160.0" r="2.0" stroke="#000000" stroke-width="2.8" fill="#000000" />
</g>
<g>
<path d="M 820,-160 L 812,-146 L 828,-146 Z" stroke="#000000" stroke-width="2.8" fill="none"/>
<text text-anchor="end" x="820.0" y="-134.25" fill="#000000" style="font-size:18px" transform="rotate(-90,820.0,-141.0)" >o3</text>
<circle cx="820.0" cy="-160.0" r="2.0" stroke="#000000" stroke-width="2.8" fill="#000000" />
</g>
<g>
<path d="M -400,-160 L -414,-168 L -414,-152 Z" stroke="#000000" stroke-width="2.8" fill="none"/>
<text text-anchor="end" x="-419.0" y="-153.25" fill="#000000" style="font-size:18px">ck</text>
<circle cx="-400.0" cy="-160.0" r="2.0" stroke="#000000" stroke-width="2.8" fill="#000000" />
</g>
<g>
<path d="M -400,-140 L -414,-148 L -414,-132 Z" stroke="#000000" stroke-width="2.8" fill="none"/>
<text text-anchor="end" x="-419.0" y="-133.25" fill="#000000" style="font-size:18px">rst</text>
<circle cx="-400.0" cy="-140.0" r="2.0" stroke="#000000" stroke-width="2.8" fill="#000000" />
</g>
<g>
<path d="M -60,-160 L -74,-168 L -74,-152 Z" stroke="#000000" stroke-width="2.8" fill="none"/>
<text text-anchor="end" x="-79.0" y="-153.25" fill="#000000" style="font-size:18px">ck</text>
<circle cx="-60.0" cy="-160.0" r="2.0" stroke="#000000" stroke-width="2.8" fill="#000000" />
</g>
<g>
<path d="M -60,-140 L -74,-148 L -74,-132 Z" stroke="#000000" stroke-width="2.8" fill="none"/>
<text text-anchor="end" x="-79.0" y="-133.25" fill="#000000" style="font-size:18px">rst</text>
<circle cx="-60.0" cy="-140.0" r="2.0" stroke="#000000" stroke-width="2.8" fill="#000000" />
</g>
<g>
<text text-anchor="end" x="257.0" y="-191.0" fill="#000000" style="font-size:24px">0</text>
<circle cx="260.0" cy="-200.0" r="2.0" stroke="#000000" stroke-width="2.8" fill="#000000" />
</g>
<g>
<path d="M 260,-160 L 246,-168 L 246,-152 Z" stroke="#000000" stroke-width="2.8" fill="none"/>
<text text-anchor="end" x="241.0" y="-153.25" fill="#000000" style="font-size:18px">ck</text>
<circle cx="260.0" cy="-160.0" r="2.0" stroke="#000000" stroke-width="2.8" fill="#000000" />
</g>
<g>
<path d="M 260,-140 L 246,-148 L 246,-132 Z" stroke="#000000" stroke-width="2.8" fill="none"/>
<text text-anchor="end" x="241.0" y="-133.25" fill="#000000" style="font-size:18px">rst</text>
<circle cx="260.0" cy="-140.0" r="2.0" stroke="#000000" stroke-width="2.8" fill="#000000" />
</g>
<g>
<text text-anchor="end" x="697.0" y="-191.0" fill="#000000" style="font-size:24px">0</text>
<circle cx="700.0" cy="-200.0" r="2.0" stroke="#000000" stroke-width="2.8" fill="#000000" />
</g>
<g>
<path d="M 700,-160 L 686,-168 L 686,-152 Z" stroke="#000000" stroke-width="2.8" fill="none"/>
<text text-anchor="end" x="681.0" y="-153.25" fill="#000000" style="font-size:18px">ck</text>
<circle cx="700.0" cy="-160.0" r="2.0" stroke="#000000" stroke-width="2.8" fill="#000000" />
</g>
<g>
<path d="M 700,-140 L 686,-148 L 686,-132 Z" stroke="#000000" stroke-width="2.8" fill="none"/>
<text text-anchor="end" x="681.0" y="-133.25" fill="#000000" style="font-size:18px">rst</text>
<circle cx="700.0" cy="-140.0" r="2.0" stroke="#000000" stroke-width="2.8" fill="#000000" />
</g>
<g>
<path d="M -300,300 L -314,292 L -314,308 Z" stroke="#000000" stroke-width="2.8" fill="none"/>
<text text-anchor="end" x="-319.0" y="306.75" fill="#000000" style="font-size:18px">o4</text>
<circle cx="-300.0" cy="300.0" r="2.0" stroke="#000000" stroke-width="2.8" fill="#000000" />
</g>
<g>
<path d="M 961,-210 L 1019,-210 L 1019,-130 L 961,-130 Z" stroke="#000000" stroke-width="2.8" fill="none"/>
<text text-anchor="start" x="964.0" y="-193.25" fill="#000000" style="font-size:18px">Set</text>
<text text-anchor="start" x="964.0" y="-173.25" fill="#000000" style="font-size:18px">D</text>
<path d="M 961,-153 L 968,-160 L 961,-167" stroke="#000000" stroke-width="1.4" fill="none"/>
<text text-anchor="start" x="971.0" y="-153.25" fill="#000000" style="font-size:18px">C</text>
<text text-anchor="start" x="964.0" y="-133.25" fill="#000000" style="font-size:18px">Clr</text>
<text text-anchor="end" x="1016.0" y="-193.25" fill="#000000" style="font-size:18px">Q</text>
<text text-anchor="end" x="1016.0" y="-173.25" fill="#000000" style="font-size:18px"><tspan style="text-decoration:overline;">Q</tspan></text>
<text text-anchor="middle" x="990.0" y="-112.5" fill="#000000" style="font-size:18px">D-AS</text>
<circle cx="960.0" cy="-200.0" r="2.0" stroke="#000000" stroke-width="2.8" fill="#000000" />
<circle cx="960.0" cy="-180.0" r="2.0" stroke="#000000" stroke-width="2.8" fill="#000000" />
<circle cx="960.0" cy="-160.0" r="2.0" stroke="#000000" stroke-width="2.8" fill="#000000" />
<circle cx="960.0" cy="-140.0" r="2.0" stroke="#000000" stroke-width="2.8" fill="#000000" />
<circle cx="1020.0" cy="-200.0" r="2.0" stroke="#000000" stroke-width="2.8" fill="#000000" />
<circle cx="1020.0" cy="-180.0" r="2.0" stroke="#000000" stroke-width="2.8" fill="#000000" />
</g>
<g>
<path d="M 1040,-160 L 1032,-146 L 1048,-146 Z" stroke="#000000" stroke-width="2.8" fill="none"/>
<text text-anchor="end" x="1040.0" y="-134.25" fill="#000000" style="font-size:18px" transform="rotate(-90,1040.0,-141.0)" >o4</text>
<circle cx="1040.0" cy="-160.0" r="2.0" stroke="#000000" stroke-width="2.8" fill="#000000" />
</g>
<g>
<text text-anchor="end" x="937.0" y="-191.0" fill="#000000" style="font-size:24px">0</text>
<circle cx="940.0" cy="-200.0" r="2.0" stroke="#000000" stroke-width="2.8" fill="#000000" />
</g>
<g>
<path d="M 940,-160 L 926,-168 L 926,-152 Z" stroke="#000000" stroke-width="2.8" fill="none"/>
<text text-anchor="end" x="921.0" y="-153.25" fill="#000000" style="font-size:18px">ck</text>
<circle cx="940.0" cy="-160.0" r="2.0" stroke="#000000" stroke-width="2.8" fill="#000000" />
</g>
<g>
<path d="M 940,-140 L 926,-148 L 926,-132 Z" stroke="#000000" stroke-width="2.8" fill="none"/>
<text text-anchor="end" x="921.0" y="-133.25" fill="#000000" style="font-size:18px">rst</text>
<circle cx="940.0" cy="-140.0" r="2.0" stroke="#000000" stroke-width="2.8" fill="#000000" />
</g>
<g>
<path d="M 150,-190 L 130,-190 C 140,-206 140,-234 130,-250 L 150,-250 C 170,-250 190,-240 200,-220 C 190,-200 170,-190 150,-190 Z" stroke="#000000" stroke-width="2.8" fill="none"/>
<path d="M 120,-190 C 130,-200 130,-240 120,-250" stroke="#000000" stroke-width="2.8" fill="none"/>
<circle cx="120.0" cy="-240.0" r="2.0" stroke="#000000" stroke-width="2.8" fill="#000000" />
<circle cx="120.0" cy="-200.0" r="2.0" stroke="#000000" stroke-width="2.8" fill="#000000" />
<circle cx="200.0" cy="-220.0" r="2.0" stroke="#000000" stroke-width="2.8" fill="#000000" />
</g>
<g>
<path d="M 990,-470 L 1010,-470 C 1000,-454 1000,-426 1010,-410 L 990,-410 C 970,-410 950,-420 940,-440 C 950,-460 970,-470 990,-470 Z" stroke="#000000" stroke-width="2.8" fill="none"/>
<path d="M 1020,-470 C 1010,-460 1010,-420 1020,-410" stroke="#000000" stroke-width="2.8" fill="none"/>
<circle cx="1020.0" cy="-420.0" r="2.0" stroke="#000000" stroke-width="2.8" fill="#000000" />
<circle cx="1020.0" cy="-460.0" r="2.0" stroke="#000000" stroke-width="2.8" fill="#000000" />
<circle cx="940.0" cy="-440.0" r="2.0" stroke="#000000" stroke-width="2.8" fill="#000000" />
</g>
<g>
<path d="M 530,-30 L 530,-1 L 470,-1 L 470,-30 C 470,-40 480,-60 500,-59 C 520,-59 530,-40 530,-30 Z" stroke="#000000" stroke-width="2.8" fill="none"/>
<circle cx="480.0" cy="0.0" r="2.0" stroke="#000000" stroke-width="2.8" fill="#000000" />
<circle cx="520.0" cy="0.0" r="2.0" stroke="#000000" stroke-width="2.8" fill="#000000" />
<circle cx="500.0" cy="-60.0" r="2.0" stroke="#000000" stroke-width="2.8" fill="#000000" />
</g>
<g>
<path d="M -300,320 L -314,312 L -314,328 Z" stroke="#000000" stroke-width="2.8" fill="none"/>
<text text-anchor="end" x="-319.0" y="326.75" fill="#000000" style="font-size:18px">o5</text>
<circle cx="-300.0" cy="320.0" r="2.0" stroke="#000000" stroke-width="2.8" fill="#000000" />
</g>
<g>
<path d="M 1280,-180 L 1272,-166 L 1288,-166 Z" stroke="#000000" stroke-width="2.8" fill="none"/>
<text text-anchor="end" x="1280.0" y="-154.25" fill="#000000" style="font-size:18px" transform="rotate(-90,1280.0,-161.0)" >o5</text>
<circle cx="1280.0" cy="-180.0" r="2.0" stroke="#000000" stroke-width="2.8" fill="#000000" />
</g>
<g>
<path d="M 1201,-210 L 1259,-210 L 1259,-130 L 1201,-130 Z" stroke="#000000" stroke-width="2.8" fill="none"/>
<text text-anchor="start" x="1204.0" y="-193.25" fill="#000000" style="font-size:18px">Set</text>
<text text-anchor="start" x="1204.0" y="-173.25" fill="#000000" style="font-size:18px">D</text>
<path d="M 1201,-153 L 1208,-160 L 1201,-167" stroke="#000000" stroke-width="1.4" fill="none"/>
<text text-anchor="start" x="1211.0" y="-153.25" fill="#000000" style="font-size:18px">C</text>
<text text-anchor="start" x="1204.0" y="-133.25" fill="#000000" style="font-size:18px">Clr</text>
<text text-anchor="end" x="1256.0" y="-193.25" fill="#000000" style="font-size:18px">Q</text>
<text text-anchor="end" x="1256.0" y="-173.25" fill="#000000" style="font-size:18px"><tspan style="text-decoration:overline;">Q</tspan></text>
<text text-anchor="middle" x="1230.0" y="-112.5" fill="#000000" style="font-size:18px">D-AS</text>
<circle cx="1200.0" cy="-200.0" r="2.0" stroke="#000000" stroke-width="2.8" fill="#000000" />
<circle cx="1200.0" cy="-180.0" r="2.0" stroke="#000000" stroke-width="2.8" fill="#000000" />
<circle cx="1200.0" cy="-160.0" r="2.0" stroke="#000000" stroke-width="2.8" fill="#000000" />
<circle cx="1200.0" cy="-140.0" r="2.0" stroke="#000000" stroke-width="2.8" fill="#000000" />
<circle cx="1260.0" cy="-200.0" r="2.0" stroke="#000000" stroke-width="2.8" fill="#000000" />
<circle cx="1260.0" cy="-180.0" r="2.0" stroke="#000000" stroke-width="2.8" fill="#000000" />
</g>
<g>
<text text-anchor="end" x="1177.0" y="-191.0" fill="#000000" style="font-size:24px">0</text>
<circle cx="1180.0" cy="-200.0" r="2.0" stroke="#000000" stroke-width="2.8" fill="#000000" />
</g>
<g>
<path d="M 1180,-160 L 1166,-168 L 1166,-152 Z" stroke="#000000" stroke-width="2.8" fill="none"/>
<text text-anchor="end" x="1161.0" y="-153.25" fill="#000000" style="font-size:18px">ck</text>
<circle cx="1180.0" cy="-160.0" r="2.0" stroke="#000000" stroke-width="2.8" fill="#000000" />
</g>
<g>
<path d="M 1180,-140 L 1166,-148 L 1166,-132 Z" stroke="#000000" stroke-width="2.8" fill="none"/>
<text text-anchor="end" x="1161.0" y="-133.25" fill="#000000" style="font-size:18px">rst</text>
<circle cx="1180.0" cy="-140.0" r="2.0" stroke="#000000" stroke-width="2.8" fill="#000000" />
</g>
<g>
<path d="M 1250,10 L 1280,10 C 1270,26 1270,54 1280,70 L 1260,70 C 1230,70 1210,60 1200,40 C 1210,20 1230,10 1250,10 Z" stroke="#000000" stroke-width="2.8" fill="none"/>
<circle cx="1190.0" cy="40.0" r="9.0" stroke="#000000" stroke-width="2.8" fill="none" />
<circle cx="1280.0" cy="60.0" r="2.0" stroke="#000000" stroke-width="2.8" fill="#000000" />
<circle cx="1280.0" cy="20.0" r="2.0" stroke="#000000" stroke-width="2.8" fill="#000000" />
<circle cx="1180.0" cy="40.0" r="2.0" stroke="#000000" stroke-width="2.8" fill="#000000" />
</g>
<g>
<path d="M -300,340 L -314,332 L -314,348 Z" stroke="#000000" stroke-width="2.8" fill="none"/>
<text text-anchor="end" x="-319.0" y="346.75" fill="#000000" style="font-size:18px">o6</text>
<circle cx="-300.0" cy="340.0" r="2.0" stroke="#000000" stroke-width="2.8" fill="#000000" />
</g>
<g>
<path d="M 1540,-180 L 1532,-166 L 1548,-166 Z" stroke="#000000" stroke-width="2.8" fill="none"/>
<text text-anchor="end" x="1540.0" y="-154.25" fill="#000000" style="font-size:18px" transform="rotate(-90,1540.0,-161.0)" >o6</text>
<circle cx="1540.0" cy="-180.0" r="2.0" stroke="#000000" stroke-width="2.8" fill="#000000" />
</g>
<g>
<path d="M 1441,-210 L 1499,-210 L 1499,-130 L 1441,-130 Z" stroke="#000000" stroke-width="2.8" fill="none"/>
<text text-anchor="start" x="1444.0" y="-193.25" fill="#000000" style="font-size:18px">Set</text>
<text text-anchor="start" x="1444.0" y="-173.25" fill="#000000" style="font-size:18px">D</text>
<path d="M 1441,-153 L 1448,-160 L 1441,-167" stroke="#000000" stroke-width="1.4" fill="none"/>
<text text-anchor="start" x="1451.0" y="-153.25" fill="#000000" style="font-size:18px">C</text>
<text text-anchor="start" x="1444.0" y="-133.25" fill="#000000" style="font-size:18px">Clr</text>
<text text-anchor="end" x="1496.0" y="-193.25" fill="#000000" style="font-size:18px">Q</text>
<text text-anchor="end" x="1496.0" y="-173.25" fill="#000000" style="font-size:18px"><tspan style="text-decoration:overline;">Q</tspan></text>
<text text-anchor="middle" x="1470.0" y="-112.5" fill="#000000" style="font-size:18px">D-AS</text>
<circle cx="1440.0" cy="-200.0" r="2.0" stroke="#000000" stroke-width="2.8" fill="#000000" />
<circle cx="1440.0" cy="-180.0" r="2.0" stroke="#000000" stroke-width="2.8" fill="#000000" />
<circle cx="1440.0" cy="-160.0" r="2.0" stroke="#000000" stroke-width="2.8" fill="#000000" />
<circle cx="1440.0" cy="-140.0" r="2.0" stroke="#000000" stroke-width="2.8" fill="#000000" />
<circle cx="1500.0" cy="-200.0" r="2.0" stroke="#000000" stroke-width="2.8" fill="#000000" />
<circle cx="1500.0" cy="-180.0" r="2.0" stroke="#000000" stroke-width="2.8" fill="#000000" />
</g>
<g>
<text text-anchor="end" x="1417.0" y="-191.0" fill="#000000" style="font-size:24px">0</text>
<circle cx="1420.0" cy="-200.0" r="2.0" stroke="#000000" stroke-width="2.8" fill="#000000" />
</g>
<g>
<path d="M 1420,-160 L 1406,-168 L 1406,-152 Z" stroke="#000000" stroke-width="2.8" fill="none"/>
<text text-anchor="end" x="1401.0" y="-153.25" fill="#000000" style="font-size:18px">ck</text>
<circle cx="1420.0" cy="-160.0" r="2.0" stroke="#000000" stroke-width="2.8" fill="#000000" />
</g>
<g>
<path d="M 1420,-140 L 1406,-148 L 1406,-132 Z" stroke="#000000" stroke-width="2.8" fill="none"/>
<text text-anchor="end" x="1401.0" y="-133.25" fill="#000000" style="font-size:18px">rst</text>
<circle cx="1420.0" cy="-140.0" r="2.0" stroke="#000000" stroke-width="2.8" fill="#000000" />
</g>
<g>
<path d="M 770,-410 L 790,-410 C 780,-394 780,-366 790,-350 L 770,-350 C 750,-350 730,-360 720,-380 C 730,-400 750,-410 770,-410 Z" stroke="#000000" stroke-width="2.8" fill="none"/>
<path d="M 800,-410 C 790,-400 790,-360 800,-350" stroke="#000000" stroke-width="2.8" fill="none"/>
<circle cx="800.0" cy="-360.0" r="2.0" stroke="#000000" stroke-width="2.8" fill="#000000" />
<circle cx="800.0" cy="-400.0" r="2.0" stroke="#000000" stroke-width="2.8" fill="#000000" />
<circle cx="720.0" cy="-380.0" r="2.0" stroke="#000000" stroke-width="2.8" fill="#000000" />
</g>
<g>
<path d="M 330,70 L 281,70 L 281,10 L 330,10 C 340,10 360,20 359,40 C 359,60 340,70 330,70 Z" stroke="#000000" stroke-width="2.8" fill="none"/>
<circle cx="280.0" cy="20.0" r="2.0" stroke="#000000" stroke-width="2.8" fill="#000000" />
<circle cx="280.0" cy="60.0" r="2.0" stroke="#000000" stroke-width="2.8" fill="#000000" />
<circle cx="360.0" cy="40.0" r="2.0" stroke="#000000" stroke-width="2.8" fill="#000000" />
</g>
<g>
<path d="M -300,360 L -314,352 L -314,368 Z" stroke="#000000" stroke-width="2.8" fill="none"/>
<text text-anchor="end" x="-319.0" y="366.75" fill="#000000" style="font-size:18px">o7</text>
<circle cx="-300.0" cy="360.0" r="2.0" stroke="#000000" stroke-width="2.8" fill="#000000" />
</g>
<g>
<path d="M 1780,-180 L 1772,-166 L 1788,-166 Z" stroke="#000000" stroke-width="2.8" fill="none"/>
<text text-anchor="end" x="1780.0" y="-154.25" fill="#000000" style="font-size:18px" transform="rotate(-90,1780.0,-161.0)" >o7</text>
<circle cx="1780.0" cy="-180.0" r="2.0" stroke="#000000" stroke-width="2.8" fill="#000000" />
</g>
<g>
<path d="M 1681,-210 L 1739,-210 L 1739,-130 L 1681,-130 Z" stroke="#000000" stroke-width="2.8" fill="none"/>
<text text-anchor="start" x="1684.0" y="-193.25" fill="#000000" style="font-size:18px">Set</text>
<text text-anchor="start" x="1684.0" y="-173.25" fill="#000000" style="font-size:18px">D</text>
<path d="M 1681,-153 L 1688,-160 L 1681,-167" stroke="#000000" stroke-width="1.4" fill="none"/>
<text text-anchor="start" x="1691.0" y="-153.25" fill="#000000" style="font-size:18px">C</text>
<text text-anchor="start" x="1684.0" y="-133.25" fill="#000000" style="font-size:18px">Clr</text>
<text text-anchor="end" x="1736.0" y="-193.25" fill="#000000" style="font-size:18px">Q</text>
<text text-anchor="end" x="1736.0" y="-173.25" fill="#000000" style="font-size:18px"><tspan style="text-decoration:overline;">Q</tspan></text>
<text text-anchor="middle" x="1710.0" y="-112.5" fill="#000000" style="font-size:18px">D-AS</text>
<circle cx="1680.0" cy="-200.0" r="2.0" stroke="#000000" stroke-width="2.8" fill="#000000" />
<circle cx="1680.0" cy="-180.0" r="2.0" stroke="#000000" stroke-width="2.8" fill="#000000" />
<circle cx="1680.0" cy="-160.0" r="2.0" stroke="#000000" stroke-width="2.8" fill="#000000" />
<circle cx="1680.0" cy="-140.0" r="2.0" stroke="#000000" stroke-width="2.8" fill="#000000" />
<circle cx="1740.0" cy="-200.0" r="2.0" stroke="#000000" stroke-width="2.8" fill="#000000" />
<circle cx="1740.0" cy="-180.0" r="2.0" stroke="#000000" stroke-width="2.8" fill="#000000" />
</g>
<g>
<text text-anchor="end" x="1657.0" y="-191.0" fill="#000000" style="font-size:24px">0</text>
<circle cx="1660.0" cy="-200.0" r="2.0" stroke="#000000" stroke-width="2.8" fill="#000000" />
</g>
<g>
<path d="M 1660,-160 L 1646,-168 L 1646,-152 Z" stroke="#000000" stroke-width="2.8" fill="none"/>
<text text-anchor="end" x="1641.0" y="-153.25" fill="#000000" style="font-size:18px">ck</text>
<circle cx="1660.0" cy="-160.0" r="2.0" stroke="#000000" stroke-width="2.8" fill="#000000" />
</g>
<g>
<path d="M 1660,-140 L 1646,-148 L 1646,-132 Z" stroke="#000000" stroke-width="2.8" fill="none"/>
<text text-anchor="end" x="1641.0" y="-133.25" fill="#000000" style="font-size:18px">rst</text>
<circle cx="1660.0" cy="-140.0" r="2.0" stroke="#000000" stroke-width="2.8" fill="#000000" />
</g>
<g>
<path d="M 590,10 L 639,10 L 639,70 L 590,70 C 580,70 560,60 561,40 C 561,20 580,10 590,10 Z" stroke="#000000" stroke-width="2.8" fill="none"/>
<circle cx="640.0" cy="60.0" r="2.0" stroke="#000000" stroke-width="2.8" fill="#000000" />
<circle cx="640.0" cy="20.0" r="2.0" stroke="#000000" stroke-width="2.8" fill="#000000" />
<circle cx="560.0" cy="40.0" r="2.0" stroke="#000000" stroke-width="2.8" fill="#000000" />
</g>
<g>
<path d="M -300,380 L -314,372 L -314,388 Z" stroke="#000000" stroke-width="2.8" fill="none"/>
<text text-anchor="end" x="-319.0" y="386.75" fill="#000000" style="font-size:18px">o8</text>
<circle cx="-300.0" cy="380.0" r="2.0" stroke="#000000" stroke-width="2.8" fill="#000000" />
</g>
<g>
<path d="M 2000,-200 L 2014,-192 L 2014,-208 Z" stroke="#000000" stroke-width="2.8" fill="none"/>
<text text-anchor="start" x="2019.0" y="-193.25" fill="#000000" style="font-size:18px">o8</text>
<circle cx="2000.0" cy="-200.0" r="2.0" stroke="#000000" stroke-width="2.8" fill="#000000" />
</g>
<g>
<path d="M 1901,-210 L 1959,-210 L 1959,-130 L 1901,-130 Z" stroke="#000000" stroke-width="2.8" fill="none"/>
<text text-anchor="start" x="1904.0" y="-193.25" fill="#000000" style="font-size:18px">Set</text>
<text text-anchor="start" x="1904.0" y="-173.25" fill="#000000" style="font-size:18px">D</text>
<path d="M 1901,-153 L 1908,-160 L 1901,-167" stroke="#000000" stroke-width="1.4" fill="none"/>
<text text-anchor="start" x="1911.0" y="-153.25" fill="#000000" style="font-size:18px">C</text>
<text text-anchor="start" x="1904.0" y="-133.25" fill="#000000" style="font-size:18px">Clr</text>
<text text-anchor="end" x="1956.0" y="-193.25" fill="#000000" style="font-size:18px">Q</text>
<text text-anchor="end" x="1956.0" y="-173.25" fill="#000000" style="font-size:18px"><tspan style="text-decoration:overline;">Q</tspan></text>
<text text-anchor="middle" x="1930.0" y="-112.5" fill="#000000" style="font-size:18px">D-AS</text>
<circle cx="1900.0" cy="-200.0" r="2.0" stroke="#000000" stroke-width="2.8" fill="#000000" />
<circle cx="1900.0" cy="-180.0" r="2.0" stroke="#000000" stroke-width="2.8" fill="#000000" />
<circle cx="1900.0" cy="-160.0" r="2.0" stroke="#000000" stroke-width="2.8" fill="#000000" />
<circle cx="1900.0" cy="-140.0" r="2.0" stroke="#000000" stroke-width="2.8" fill="#000000" />
<circle cx="1960.0" cy="-200.0" r="2.0" stroke="#000000" stroke-width="2.8" fill="#000000" />
<circle cx="1960.0" cy="-180.0" r="2.0" stroke="#000000" stroke-width="2.8" fill="#000000" />
</g>
<g>
<text text-anchor="end" x="1877.0" y="-191.0" fill="#000000" style="font-size:24px">0</text>
<circle cx="1880.0" cy="-200.0" r="2.0" stroke="#000000" stroke-width="2.8" fill="#000000" />
</g>
<g>
<path d="M 1880,-160 L 1866,-168 L 1866,-152 Z" stroke="#000000" stroke-width="2.8" fill="none"/>
<text text-anchor="end" x="1861.0" y="-153.25" fill="#000000" style="font-size:18px">ck</text>
<circle cx="1880.0" cy="-160.0" r="2.0" stroke="#000000" stroke-width="2.8" fill="#000000" />
</g>
<g>
<path d="M 1880,-140 L 1866,-148 L 1866,-132 Z" stroke="#000000" stroke-width="2.8" fill="none"/>
<text text-anchor="end" x="1861.0" y="-133.25" fill="#000000" style="font-size:18px">rst</text>
<circle cx="1880.0" cy="-140.0" r="2.0" stroke="#000000" stroke-width="2.8" fill="#000000" />
</g>
<g>
<path d="M 590,-150 L 570,-150 C 580,-166 580,-194 570,-210 L 590,-210 C 610,-210 630,-200 640,-180 C 630,-160 610,-150 590,-150 Z" stroke="#000000" stroke-width="2.8" fill="none"/>
<path d="M 560,-150 C 570,-160 570,-200 560,-210" stroke="#000000" stroke-width="2.8" fill="none"/>
<circle cx="560.0" cy="-200.0" r="2.0" stroke="#000000" stroke-width="2.8" fill="#000000" />
<circle cx="560.0" cy="-160.0" r="2.0" stroke="#000000" stroke-width="2.8" fill="#000000" />
<circle cx="640.0" cy="-180.0" r="2.0" stroke="#000000" stroke-width="2.8" fill="#000000" />
</g>
<g>
<path d="M 450,-190 L 430,-190 C 440,-206 440,-234 430,-250 L 450,-250 C 470,-250 490,-240 500,-220 C 490,-200 470,-190 450,-190 Z" stroke="#000000" stroke-width="2.8" fill="none"/>
<path d="M 420,-190 C 430,-200 430,-240 420,-250" stroke="#000000" stroke-width="2.8" fill="none"/>
<circle cx="510.0" cy="-220.0" r="9.0" stroke="#000000" stroke-width="2.8" fill="none" />
<circle cx="420.0" cy="-240.0" r="2.0" stroke="#000000" stroke-width="2.8" fill="#000000" />
<circle cx="420.0" cy="-200.0" r="2.0" stroke="#000000" stroke-width="2.8" fill="#000000" />
<circle cx="520.0" cy="-220.0" r="2.0" stroke="#000000" stroke-width="2.8" fill="#000000" />
</g>
<g>
<path d="M 790,-50 L 820,-50 C 810,-34 810,-6 820,10 L 800,10 C 770,10 750,0 740,-20 C 750,-40 770,-50 790,-50 Z" stroke="#000000" stroke-width="2.8" fill="none"/>
<circle cx="730.0" cy="-20.0" r="9.0" stroke="#000000" stroke-width="2.8" fill="none" />
<circle cx="820.0" cy="0.0" r="2.0" stroke="#000000" stroke-width="2.8" fill="#000000" />
<circle cx="820.0" cy="-40.0" r="2.0" stroke="#000000" stroke-width="2.8" fill="#000000" />
<circle cx="720.0" cy="-20.0" r="2.0" stroke="#000000" stroke-width="2.8" fill="#000000" />
</g>
</g>
</svg>